<?xml version="1.0" standalone="no"?>
<!DOCTYPE svg PUBLIC "-//W3C//DTD SVG 1.1//EN" "http://www.w3.org/Graphics/SVG/1.1/DTD/svg11.dtd" >
<svg xmlns="http://www.w3.org/2000/svg" xmlns:xlink="http://www.w3.org/1999/xlink" version="1.1">
<metadata></metadata>
<defs>
<font id="adventure_subtitlesnormal" horiz-adv-x="1011" >
<font-face units-per-em="2050" ascent="1640" descent="-410" />
<missing-glyph horiz-adv-x="606" />
<glyph horiz-adv-x="0" />
<glyph unicode="&#xd;" horiz-adv-x="606" />
<glyph unicode=" "  horiz-adv-x="606" />
<glyph unicode="&#x09;" horiz-adv-x="606" />
<glyph unicode="&#xa0;" horiz-adv-x="606" />
<glyph unicode="!" horiz-adv-x="431" d="M123 238q51 0 85 -30.5t34 -80.5q0 -54 -30 -89q-32 -38 -85 -38q-56 0 -91.5 35.5t-35.5 91.5q0 111 123 111zM246 1421v-1077h-246v1077h246z" />
<glyph unicode="&#x22;" horiz-adv-x="831" d="M242 1315v-135l-242 -127v262q0 110 123 110q52 0 85.5 -29.5t33.5 -80.5zM651 1315v-135l-241 -127v262q0 110 122 110q119 0 119 -110z" />
<glyph unicode="#" horiz-adv-x="1002" d="M483 1020v119h246v-119h94v-246h-94v-90h94v-246h-94v-123h-246v123h-114v-123h-246v123h-123v246h123v90h-123v246h123v119h246v-119h114zM369 774v-90h114v90h-114z" />
<glyph unicode="$" horiz-adv-x="1399" d="M459 971h-172v-240h172v240zM459 266v219h-203q-123 0 -180 56q-76 75 -76 180v240q0 107 74.5 181.5t181.5 74.5h203v204h246v-204h528v-246h-528v-240h270q130 0 182 -53q73 -75 74 -182l2 -240q1 -104 -75.5 -180t-180.5 -76h-272v-567h-246v567h-459v266h459z M705 266h239v219h-239v-219z" />
<glyph unicode="%" horiz-adv-x="1795" d="M1438 1421l-946 -1421h-287l944 1421h289zM590 1270v-510q0 -61 -41.5 -103.5t-102.5 -42.5h-301q-60 0 -102.5 43t-42.5 103v510q0 61 42 103t103 42h304q61 0 101 -42t40 -103zM453 754v522h-314v-522h314zM1614 655v-510q0 -61 -41.5 -103t-102.5 -42h-301 q-59 0 -102 43t-43 102v510q0 62 41.5 104t103.5 42h304q62 0 101.5 -42t39.5 -104zM1477 139v523h-314v-523h314z" />
<glyph unicode="&#x26;" horiz-adv-x="1290" d="M246 834h329v342h-329v-342zM246 584v-338h512zM1028 313l102 -67v-246l-153 102q-87 -102 -205 -102h-518q-106 0 -181 75t-75 181v342q0 47 36 71q22 15 34 27q-44 44 -52 56q-18 27 -18 71v342q0 108 74 182t182 74h313q109 0 182.5 -73.5t73.5 -182.5v-329 q0 -105 -75 -181q-60 -60 -146 -63l178 -117v123h248v-285z" />
<glyph unicode="'" horiz-adv-x="422" d="M242 1315v-135l-242 -127v262q0 110 123 110q52 0 85.5 -29.5t33.5 -80.5z" />
<glyph unicode="(" horiz-adv-x="763" d="M246 246h372v-246h-362q-105 0 -180.5 75.5t-75.5 180.5v909q0 108 74 182t182 74h362v-245h-372v-930z" />
<glyph unicode=")" horiz-adv-x="804" d="M373 246v930h-373v245h362q109 0 182.5 -73.5t73.5 -182.5v-909q0 -106 -75 -181t-181 -75h-362v246h373z" />
<glyph unicode="*" horiz-adv-x="1047" d="M219 840l-215 299h246l180 -252l193 256h245l-225 -303h180v-246h-180l205 -283h-246l-174 242l-178 -238h-246l207 279h-211v246h219z" />
<glyph unicode="+" horiz-adv-x="980" d="M295 840v299h246v-299h282v-246h-282v-279h-246v279h-295v246h295z" />
<glyph unicode="," horiz-adv-x="435" d="M242 127v-135l-242 -127v262q0 111 123 111q51 0 85 -30.5t34 -80.5z" />
<glyph unicode="-" d="M0 594v246h823v-246h-823z" />
<glyph unicode="." horiz-adv-x="423" d="M123 238q51 0 85 -30.5t34 -80.5q0 -54 -30 -89q-32 -38 -85 -38q-56 0 -91.5 35.5t-35.5 91.5q0 111 123 111z" />
<glyph unicode="/" horiz-adv-x="1284" d="M1233 1421l-946 -1421h-287l944 1421h289z" />
<glyph unicode="0" horiz-adv-x="1417" d="M1231 1165v-909q0 -108 -74 -182t-182 -74h-719q-105 0 -180.5 75.5t-75.5 180.5v909q0 108 74 182t182 74h721q110 0 182 -73t72 -183zM985 246v930h-739v-930h739z" />
<glyph unicode="1" horiz-adv-x="844" d="M371 0l2 1024l-369 -176v287l653 286v-1421h-286z" />
<glyph unicode="2" horiz-adv-x="1375" d="M1233 0h-1233v559q0 108 93 184q88 72 198 72l694 -2v363h-883v245h875q108 0 182 -74t74 -182v-342q0 -106 -75 -181t-181 -75h-729v-321h985v-246z" />
<glyph unicode="3" horiz-adv-x="1418" d="M0 0v246h985v342h-739v246h739v342h-985v245h977q108 0 182 -74t74 -182v-342q0 -44 -18 -71q-8 -12 -52 -56q27 -18 64 -54q6 -11 6 -44v-342q0 -106 -75 -181t-181 -75h-977z" />
<glyph unicode="4" horiz-adv-x="1420" d="M0 590l418 827h246l-254 -581l575 -2v591h248v-1425h-248v588z" />
<glyph unicode="5" horiz-adv-x="1419" d="M0 844v577h1231l2 -391h-248v146h-739v-342h731q95 0 175.5 -71t80.5 -165v-342q0 -160 -176 -231q-62 -25 -113 -25h-944v246h985v342h-739q-109 0 -177.5 73t-68.5 183z" />
<glyph unicode="6" horiz-adv-x="1413" d="M246 246h739v342h-739v-342zM1233 1030h-248v146h-739v-342h731q95 0 175.5 -71t80.5 -165v-342q0 -160 -176 -231q-62 -25 -113 -25h-688q-105 0 -180.5 75.5t-75.5 180.5v909q0 108 74 182t182 74h721q109 0 180.5 -73.5t73.5 -182.5z" />
<glyph unicode="7" horiz-adv-x="1277" d="M1231 1421l-989 -1423h-248l817 1178h-811v245h1231z" />
<glyph unicode="8" horiz-adv-x="1418" d="M246 834h739v342h-739v-342zM246 246h739v342h-739v-342zM254 1421h723q108 0 182 -74t74 -182v-342q0 -44 -18 -71q-8 -12 -52 -56q27 -18 64 -54q6 -11 6 -44v-342q0 -106 -75 -181t-181 -75h-723q-106 0 -181 75t-75 181v342q0 47 36 71q22 15 34 27q-44 44 -52 56 q-18 27 -18 71v342q0 108 74 182t182 74z" />
<glyph unicode="9" horiz-adv-x="1419" d="M987 1176h-739v-342h739v342zM0 391h248v-145h739v342h-731q-95 0 -174 69q-82 72 -82 166v342q0 109 92 185q86 71 197 71h688q106 0 181 -75t75 -181v-909q0 -107 -74.5 -181.5t-181.5 -74.5h-721q-108 0 -180 73.5t-74 182.5z" />
<glyph unicode=":" horiz-adv-x="425" d="M123 750q51 0 85 -30.5t34 -80.5q0 -54 -30 -89q-32 -38 -85 -38q-56 0 -91.5 35.5t-35.5 91.5q0 111 123 111zM123 238q51 0 85 -30.5t34 -80.5q0 -54 -30 -89q-32 -38 -85 -38q-56 0 -91.5 35.5t-35.5 91.5q0 111 123 111z" />
<glyph unicode=";" horiz-adv-x="409" d="M242 127v-135l-242 -127v262q0 111 123 111q51 0 85 -30.5t34 -80.5zM123 750q51 0 85 -30.5t34 -80.5q0 -54 -30 -89q-32 -38 -85 -38q-56 0 -91.5 35.5t-35.5 91.5q0 111 123 111z" />
<glyph unicode="&#x3c;" horiz-adv-x="1005" d="M0 756l823 186v-246l-329 -73l329 -91v-245l-827 225v246z" />
<glyph unicode="=" horiz-adv-x="982" d="M0 696v246h823v-246h-823zM0 287v245h823v-245h-823z" />
<glyph unicode="&#x3e;" horiz-adv-x="969" d="M823 741v-249l-8 2l-815 -207v245l326 82l-326 82v246z" />
<glyph unicode="?" horiz-adv-x="1347" d="M0 344v213q0 119 66 182q77 74 180 74h739v363h-985v245h977q108 0 182 -74t74 -182v-342q0 -106 -75 -181t-181 -75h-731v-223h-246zM123 238q51 0 85 -30.5t34 -80.5q0 -54 -30 -89q-32 -38 -85 -38q-56 0 -91.5 35.5t-35.5 91.5q0 111 123 111z" />
<glyph unicode="@" horiz-adv-x="1622" d="M1436 1165v-909q0 -108 -74 -182t-182 -74h-924q-105 0 -180.5 75.5t-75.5 180.5v909q0 108 74 182t182 74h930q106 0 178 -75t72 -181zM1190 246v930h-944v-930h944zM1079 858v-448h-579q-74 0 -133.5 55t-59.5 129q0 54 55 104q37 34 127 47l373 56v65h-368v-65h-187 v57q0 81 70 138q65 55 147 55h338q83 0 148 -54q69 -58 69 -139zM862 594v53l-368 -53h368z" />
<glyph unicode="A" horiz-adv-x="1420" d="M985 731v445h-739v-445h739zM977 1421q108 0 182 -74t74 -182v-1165h-248v485h-739v-485h-246v1165q0 108 74 182t182 74h721z" />
<glyph unicode="B" horiz-adv-x="1418" d="M985 1176h-739v-342h739v342zM985 588h-739v-342h739v342zM1163 696q27 -18 64 -54q6 -11 6 -44v-342q0 -106 -75 -181t-181 -75h-977v1421h977q108 0 182 -74t74 -182v-342q0 -44 -18 -71q-8 -12 -52 -56z" />
<glyph unicode="C" horiz-adv-x="1300" d="M246 246h987v-246h-977q-105 0 -180.5 75.5t-75.5 180.5v909q0 108 74 182t182 74h977v-245h-987v-930z" />
<glyph unicode="D" horiz-adv-x="1417" d="M246 246h739v930h-739v-930zM0 0v1421h977q110 0 182 -73t72 -183v-909q0 -108 -74 -182t-182 -74h-975z" />
<glyph unicode="E" horiz-adv-x="1346" d="M1233 0h-977q-105 0 -180.5 75.5t-75.5 180.5v909q0 108 74 182t182 74h977v-245h-987v-342h987v-246h-987v-342h987v-246z" />
<glyph unicode="F" horiz-adv-x="1306" d="M0 0v1165q0 108 74 182t182 74h977v-245h-987v-342h987v-246h-987v-588h-246z" />
<glyph unicode="G" horiz-adv-x="1415" d="M1233 0h-977q-105 0 -180.5 75.5t-75.5 180.5v909q0 108 74 182t182 74h977v-245h-987v-930h739v342h-453v246h701v-834z" />
<glyph unicode="H" horiz-adv-x="1420" d="M1233 0h-248v588h-739v-588h-246v1421h246v-587h739v587h248v-1421z" />
<glyph unicode="I" horiz-adv-x="1170" d="M637 246h391v-246h-1028v246h391v930h-391v245h1028v-245h-391v-930z" />
<glyph unicode="J" horiz-adv-x="1419" d="M1233 256q0 -106 -75 -181t-181 -75h-721q-105 0 -180.5 75.5t-75.5 180.5v346h287v-315h657v1134h289v-1165z" />
<glyph unicode="K" horiz-adv-x="1376" d="M1233 0h-289l-461 588h-237v-588h-246v1421h246v-587h237l461 587h289l-553 -710z" />
<glyph unicode="L" horiz-adv-x="1116" d="M287 287h741v-287h-772q-105 0 -180.5 75.5t-75.5 180.5v1165h287v-1134z" />
<glyph unicode="M" horiz-adv-x="1827" d="M686 0v1135h-440v-1135h-246v1165q0 108 74 182t182 74h367q107 0 180 -73q76 73 180 73h403q110 0 182 -73t72 -183v-1165h-245v1135h-463v-1135h-246z" />
<glyph unicode="N" horiz-adv-x="1420" d="M985 434v987h248v-1421h-248l-739 991v-991h-246v1421h246z" />
<glyph unicode="O" horiz-adv-x="1622" d="M1436 1165v-909q0 -108 -74 -182t-182 -74h-924q-105 0 -180.5 75.5t-75.5 180.5v909q0 108 74 182t182 74h930q106 0 178 -75t72 -181zM1190 246v930h-944v-930h944z" />
<glyph unicode="P" horiz-adv-x="1349" d="M985 1176h-739v-363h739v363zM246 567v-567h-246v1421h977q108 0 182 -74t74 -182v-342q0 -106 -75 -181t-181 -75h-731z" />
<glyph unicode="Q" horiz-adv-x="1619" d="M981 0h-725q-105 0 -180.5 75.5t-75.5 180.5v909q0 108 74 182t182 74h930q106 0 178 -75t72 -181v-909q0 -106 -74 -180q-43 -43 -94 -62l170 -219h-289zM1065 246h125v930h-944v-930h522l-203 262l320 -2z" />
<glyph unicode="R" horiz-adv-x="1411" d="M1233 0h-346l-430 567h-211v-567h-246v1421h977q108 0 182 -74t74 -182v-342q0 -106 -75 -181t-181 -75h-164zM985 1176h-739v-363h739v363z" />
<glyph unicode="S" horiz-adv-x="1412" d="M1233 256q1 -105 -75 -180.5t-181 -75.5h-977v266h944v322h-688q-124 0 -180 55q-76 75 -76 180v342q0 108 74 182t182 74h977v-245h-946v-342h688q129 0 182 -54q73 -75 74 -182z" />
<glyph unicode="T" horiz-adv-x="1345" d="M1233 1176h-494v-1176h-245v1176h-494v245h1233v-245z" />
<glyph unicode="U" horiz-adv-x="1419" d="M1233 256q0 -106 -75 -181t-181 -75h-721q-105 0 -180.5 75.5t-75.5 180.5v1165h246v-1175h739v1175h248v-1165z" />
<glyph unicode="V" horiz-adv-x="1330" d="M760 0h-287l-473 1421h246l370 -1124l369 1124h248z" />
<glyph unicode="W" horiz-adv-x="1826" d="M709 1421h245v-1175h441v1175h245v-1165q0 -108 -74 -182t-182 -74h-366q-102 0 -180 74q-79 -74 -181 -74h-403q-108 0 -181 74t-73 182v1165h246v-1175h463v1175z" />
<glyph unicode="X" horiz-adv-x="1383" d="M760 711l473 -711h-289l-328 496l-329 -496h-287l473 711l-473 710h287l329 -495l328 495h289z" />
<glyph unicode="Y" horiz-adv-x="1302" d="M739 711v-711h-245v711l-494 710h246l370 -495l369 495h248z" />
<glyph unicode="Z" horiz-adv-x="1361" d="M0 1421h1233l-756 -1175h756v-246h-1233l754 1176h-754v245z" />
<glyph unicode="[" horiz-adv-x="763" d="M0 1421h618v-245h-372v-930h372v-246h-618v1421z" />
<glyph unicode="\" horiz-adv-x="1281" d="M287 1421l946 -1421h-289l-944 1421h287z" />
<glyph unicode="]" horiz-adv-x="805" d="M618 0h-618v246h373v930h-373v245h618v-1421z" />
<glyph unicode="^" horiz-adv-x="994" d="M406 1176l-406 -168v245l401 168l422 -172v-245z" />
<glyph unicode="_" horiz-adv-x="1633" d="M0 0v246h1438v-246h-1438z" />
<glyph unicode="`" horiz-adv-x="430" d="M242 1315v-262l-242 118v144q0 110 123 110q52 0 85.5 -29.5t33.5 -80.5z" />
<glyph unicode="a" horiz-adv-x="1211" d="M1028 598v-598h-772q-100 0 -178 73.5t-78 172.5q0 49 18 79q58 96 224 121l497 74v88h-491v-88h-248v78q0 109 92 185q86 71 197 71h450q111 0 197 -71q92 -76 92 -185zM739 246v69l-491 -69h491z" />
<glyph unicode="b" horiz-adv-x="1209" d="M780 608h-534v-362h534v362zM0 1421h246v-567h493q111 0 197 -71q92 -76 92 -185v-342q0 -106 -75 -181t-181 -75h-772v1421z" />
<glyph unicode="c" horiz-adv-x="962" d="M823 0h-567q-106 0 -181 75t-75 181v342q0 109 92 185q86 71 197 71h534v-246h-575v-362h575v-246z" />
<glyph unicode="d" horiz-adv-x="1215" d="M248 608v-362h534v362h-534zM1028 1421v-1421h-772q-106 0 -181 75t-75 181v342q0 109 92 185q86 71 197 71h493v567h246z" />
<glyph unicode="e" horiz-adv-x="1204" d="M739 520v88h-491v-362h780v-246h-772q-106 0 -181 75t-75 181v342q0 109 92 185q86 71 197 71h450q111 0 198 -71q92 -76 91 -185q0 -27 -4 -70q-33 -101 -61 -135q-64 -78 -209 -78h-451v205h436z" />
<glyph unicode="f" horiz-adv-x="969" d="M0 608v246h266v322q0 116 92 184q83 61 203 61h262v-245h-311v-322h311v-246h-311v-608h-246v608h-266z" />
<glyph unicode="g" horiz-adv-x="1214" d="M248 246h534v362h-534v-362zM0 -154h248v-163h532l2 317h-493q-111 0 -197 71q-92 76 -92 185v342q0 106 75 181t181 75h772v-1161q0 -106 -75 -181t-181 -75h-516q-106 0 -181 75t-75 181v153z" />
<glyph unicode="h" horiz-adv-x="1213" d="M1028 598v-598h-248v608h-534v-608h-246v1421h246v-567h493q111 0 197 -71q92 -76 92 -185z" />
<glyph unicode="i" horiz-adv-x="433" d="M246 0h-246v854h246v-854zM123 1290q119 0 119 -110q0 -54 -30 -89q-32 -38 -85 -38q-56 0 -91.5 35.5t-35.5 91.5q0 110 123 110z" />
<glyph unicode="j" horiz-adv-x="1010" d="M700 1290q119 0 119 -110q0 -53 -31 -90t-83 -37q-57 0 -92 35t-35 92q0 110 122 110zM823 -311q0 -109 -72.5 -182.5t-181.5 -73.5h-313q-106 0 -181 75t-75 181v157h246v-168l332 -2v1178h245v-1165z" />
<glyph unicode="k" horiz-adv-x="1153" d="M1028 0h-289l-358 260h-94v-260h-287v1421h287v-977h94l358 410h289l-450 -492z" />
<glyph unicode="l" horiz-adv-x="433" d="M246 0h-246v1421h246v-1421z" />
<glyph unicode="m" horiz-adv-x="1365" d="M721 608v-608h-248v608h-225v-608h-248v854h893q111 0 197 -71q92 -76 92 -185v-598h-248v608h-213z" />
<glyph unicode="n" horiz-adv-x="1211" d="M0 854h739q111 0 197 -71q92 -76 92 -185v-598h-248v608h-532v-608h-248v854z" />
<glyph unicode="o" horiz-adv-x="1208" d="M780 608h-532v-362h532v362zM772 0h-516q-106 0 -181 75t-75 181v342q0 109 92 185q86 71 197 71h450q111 0 197 -71q92 -76 92 -185v-342q0 -106 -75 -181t-181 -75z" />
<glyph unicode="p" horiz-adv-x="1207" d="M780 246v362h-534v-362h534zM0 -567v1421h772q106 0 181 -75t75 -181v-342q0 -160 -176 -231q-62 -25 -113 -25h-493v-567h-246z" />
<glyph unicode="q" horiz-adv-x="1214" d="M248 246h534v362h-534v-362zM1028 -567h-246v567h-493q-111 0 -197 71q-92 76 -92 185v342q0 106 75 181t181 75h772v-1421z" />
<glyph unicode="r" horiz-adv-x="1141" d="M1028 410h-248v198h-534v-608h-246v854h772q106 0 181 -75t75 -181v-188z" />
<glyph unicode="s" horiz-adv-x="1195" d="M1026 608h-778v-88h487q147 0 211 -65q79 -80 78 -172q0 -28 -4 -70q-33 -101 -62 -135q-66 -78 -208 -78h-750v246h754v69h-500q-98 0 -193 95q-61 61 -61 188q0 109 92 185q86 71 197 71h737v-246z" />
<glyph unicode="t" horiz-adv-x="985" d="M0 854h266v281h246v-281h311v-246h-311v-362h311v-246h-262q-119 0 -203 62q-92 68 -92 184v362l-266 2v244z" />
<glyph unicode="u" horiz-adv-x="1213" d="M780 854h248v-598q0 -106 -75 -181t-181 -75h-516q-106 0 -181 75t-75 181v598h248v-608h532v608z" />
<glyph unicode="v" horiz-adv-x="1176" d="M352 0l-352 854h248l252 -608l280 608h248l-397 -854h-279z" />
<glyph unicode="w" horiz-adv-x="1539" d="M1108 854h246v-598q0 -107 -74.5 -181.5t-181.5 -74.5h-224q-106 0 -180 74q-77 -74 -180 -74h-260q-108 0 -181 74t-73 182v598h246v-567h319v567h246v-567h297v567z" />
<glyph unicode="x" horiz-adv-x="1180" d="M373 420l-373 434l266 2l248 -278l248 278l266 -2l-373 -434l373 -420h-295l-219 256l-219 -256h-295z" />
<glyph unicode="y" horiz-adv-x="1181" d="M680 0l-229 -567h-246l231 571l-428 852h254l285 -580l235 578h246l-346 -850l2 -4h-4z" />
<glyph unicode="z" horiz-adv-x="1181" d="M0 608v246h1028l-520 -608h520v-246h-1028l528 610z" />
<glyph unicode="{" horiz-adv-x="780" d="M618 0h-362q-106 0 -181 75t-75 181v342q0 47 36 71q22 15 34 27q-44 44 -52 56q-18 27 -18 71v342q0 108 74 182t182 74h362v-245h-370v-342h370v-246h-370v-342h370v-246z" />
<glyph unicode="|" horiz-adv-x="433" d="M246 -567h-246v1988h246v-1988z" />
<glyph unicode="}" horiz-adv-x="803" d="M0 0v246h371v342h-371v246h371v342h-371v245h362q109 0 182.5 -73.5t73.5 -182.5v-342q0 -55 -23 -80q-11 -12 -46 -47q27 -19 63 -54q6 -11 6 -44v-342q0 -106 -75 -181t-181 -75h-362z" />
<glyph unicode="~" horiz-adv-x="1002" d="M283 1171l-283 -163v245l283 181l278 -181l262 181v-263l-262 -163z" />
<glyph unicode="&#xad;" d="M0 594v246h823v-246h-823z" />
<glyph unicode="&#x2000;" horiz-adv-x="717" />
<glyph unicode="&#x2001;" horiz-adv-x="1434" />
<glyph unicode="&#x2002;" horiz-adv-x="717" />
<glyph unicode="&#x2003;" horiz-adv-x="1434" />
<glyph unicode="&#x2004;" horiz-adv-x="478" />
<glyph unicode="&#x2005;" horiz-adv-x="358" />
<glyph unicode="&#x2006;" horiz-adv-x="239" />
<glyph unicode="&#x2007;" horiz-adv-x="239" />
<glyph unicode="&#x2008;" horiz-adv-x="179" />
<glyph unicode="&#x2009;" horiz-adv-x="286" />
<glyph unicode="&#x200a;" horiz-adv-x="79" />
<glyph unicode="&#x2010;" d="M0 594v246h823v-246h-823z" />
<glyph unicode="&#x2011;" d="M0 594v246h823v-246h-823z" />
<glyph unicode="&#x2012;" d="M0 594v246h823v-246h-823z" />
<glyph unicode="&#x2013;" horiz-adv-x="1213" d="M0 594v246h1025v-246h-1025z" />
<glyph unicode="&#x2014;" horiz-adv-x="2238" d="M0 594v246h2050v-246h-2050z" />
<glyph unicode="&#x202f;" horiz-adv-x="286" />
<glyph unicode="&#x205f;" horiz-adv-x="358" />
<glyph unicode="&#x25fc;" horiz-adv-x="855" d="M0 855h855v-855h-855v855z" />
</font>
</defs>
</svg>
