<?xml version="1.0" standalone="no"?>
<!DOCTYPE svg PUBLIC "-//W3C//DTD SVG 1.1//EN" "http://www.w3.org/Graphics/SVG/1.1/DTD/svg11.dtd" >
<svg xmlns="http://www.w3.org/2000/svg">
<metadata>
This is a custom SVG webfont generated by Font Squirrel.
Copyright   :  2001 Graham Meade  Apostrophic Lab All rights reserved infoapostrophiclabcom wwwapostrophiclabcom
Designer    : Graham Meade
Foundry URL : wwwapostrophiclabcom
</metadata>
<defs>
<font id="font" horiz-adv-x="1079" >
<font-face units-per-em="2048" ascent="1638" descent="-410" />
<missing-glyph horiz-adv-x="878" />
<glyph unicode=" "  horiz-adv-x="878" />
<glyph unicode="&#x09;" horiz-adv-x="878" />
<glyph unicode="&#xa0;" horiz-adv-x="878" />
<glyph unicode="!" horiz-adv-x="434" d="M354 485v1127q0 78 -121 78t-120 -78v-1127q0 -82 120 -82q121 0 121 82zM354 82v78q0 82 -121 82t-120 -82v-78q0 -82 120 -82q121 0 121 82z" />
<glyph unicode="&#x22;" horiz-adv-x="796" d="M717 1419v201q0 82 -121 82t-121 -82v-201q0 -82 121 -82t121 82zM354 1419v201q0 82 -121 82t-120 -82v-201q0 -82 120 -82q121 0 121 82z" />
<glyph unicode="#" horiz-adv-x="1316" d="M1212 645q6 41 -32 41h-121l35 322h123q39 0 45 41q4 41 -35 41h-121l20 159q8 80 -112 80q-121 0 -127 -80l-21 -159h-280l18 159q8 80 -110 80q-123 0 -132 -80l-18 -159h-162q-43 0 -47 -41t35 -41h162l-37 -322h-160q-45 0 -47 -41q-6 -39 35 -39h160l-19 -162 q-10 -82 113 -82t129 82l20 162h283l-18 -162q-12 -82 108 -82q121 0 127 82l21 162h120q43 0 45 39zM819 686h-280l34 322h283z" />
<glyph unicode="$" d="M999 332v162q0 301 -362 319v561q86 -12 106 -86q12 -37 13 -151q0 -80 123 -80q121 0 120 80q0 168 -98 245q-45 31 -110.5 50.5t-153.5 23.5v43q0 51 -16.5 65.5t-63.5 14.5q-51 0 -66.5 -14.5t-15.5 -65.5v-43q-90 -4 -154.5 -23.5t-107.5 -50.5q-100 -76 -100 -245 v-80q0 -176 98 -246q90 -66 264 -74v-643q-84 14 -106 86q-6 18 -10.5 56t-4.5 96q0 82 -121 82t-120 -82q0 -170 98 -244q90 -66 264 -74v-43q0 -51 15.5 -66.5t66.5 -15.5q47 0 63.5 17.5t16.5 64.5v43q176 10 262 74q100 74 100 244zM475 819q-84 8 -106 86 q-6 20 -10.5 57t-4.5 95v80q0 59 4 96t11 55q23 74 106 86v-555zM756 332q0 -106 -13 -152q-25 -70 -106 -86v639q84 -16 106 -88q12 -41 13 -151v-162z" />
<glyph unicode="%" horiz-adv-x="1880" d="M840 1286h-4v82h4q0 201 -84 262q-72 59 -281 60q-207 0 -282 -60q-80 -70 -80 -262v-82q0 -190 86 -260q39 -31 108.5 -45t167.5 -14q102 0 172 14t105 45q88 63 88 260zM1802 324v79q0 197 -84 265q-37 27 -104.5 41t-171.5 14q-102 0 -172 -14.5t-109 -40.5 q-82 -68 -82 -265v-79q0 -197 82 -265q78 -59 281 -59q199 0 276 59q84 72 84 265zM1481 1649q0 43 -78 39q-109 0 -152 -84l-811 -1526q-10 -20 -10 -41q0 -37 76 -37q111 0 153 82l807 1526q15 33 15 41zM598 1135q0 -68 -29 -78q-16 -8 -94 -8t-92 8q-33 10 -33 78v387 q0 66 33 77q18 12 92 13q70 0 94 -13q29 -12 29 -77v-201v-115v-53v-18zM1565 168q0 -59 -31 -78q-18 -8 -92 -8q-76 0 -94 8q-31 20 -31 78v389q0 61 31 78q25 10 94 10q68 0 92 -10q31 -16 31 -78v-203v-114v-54v-18z" />
<glyph unicode="&#x26;" horiz-adv-x="1138" d="M1247 -233q0 39 -43 38q-133 0 -170 58q-31 37 -30 184v524q0 80 -119 80q-121 0 -121 -80v-245q0 -143 -31 -187q-37 -51 -170 -51q-135 0 -172 51q-31 49 -31 191v403q0 158 43 203q35 35 160 35v2q201 0 303 57q133 78 133 264v80q0 190 -133 268q-102 55 -309 56 q-217 0 -311 -56q-133 -74 -133 -268v-80q0 -215 166 -282q-158 -68 -158 -279v-403q0 -193 121 -262q92 -59 321 -60q59 0 109.5 4t91.5 13q6 -178 143 -250q98 -47 297 -47q43 0 43 39zM756 1294q0 -74 -5.5 -120t-21.5 -66q-39 -55 -172 -55t-172 53q-14 23 -22.5 70 t-8.5 118v80q0 158 41 205q39 37 162 37q61 0 99 -9.5t59 -27.5q41 -43 41 -205v-80z" />
<glyph unicode="'" horiz-adv-x="434" d="M354 1419v201q0 82 -121 82t-120 -82v-201q0 -82 120 -82q121 0 121 82z" />
<glyph unicode="(" horiz-adv-x="675" d="M596 -82q0 39 -39 39q-131 0 -172 53q-14 25 -22.5 72t-8.5 119v1284q0 72 8.5 119t22.5 67q37 55 172 55q39 0 39 39t-39 39q-115 0 -194.5 -14t-129.5 -43q-121 -72 -120 -262v-1284q0 -193 120 -264q96 -57 320 -58h4q39 0 39 39z" />
<glyph unicode=")" horiz-adv-x="675" d="M596 201v1284q0 190 -121 262q-98 57 -319 57q-43 0 -43 -39t43 -39q135 0 170 -55q29 -37 28 -186v-1284q0 -150 -28 -191q-37 -53 -170 -53q-43 0 -43 -39t43 -39q121 10 195.5 23.5t109.5 29.5q135 64 135 269z" />
<glyph unicode="*" horiz-adv-x="1058" d="M979 1323q16 23 -8 39q-27 20 -39 -8q-41 -61 -127 -62q-51 0 -107 23q35 47 54.5 101t19.5 116q0 76 -35 151q-12 20 -30 19q-35 -14 -23 -43q6 -16 10 -28.5t4 -28.5q0 -84 -96 -162q-82 201 -299 213q-16 4 -21.5 -3.5t-9.5 -23.5q-2 -25 29 -29q119 -10 150 -176 q-16 2 -29 2h-29q-178 0 -280 -153q-20 -23 8 -39q20 -14 39 8q43 61 127 61q43 0 102 -18q-74 -98 -74 -221q0 -80 33 -152q12 -27 41 -14q16 10 17 23q0 6 -7 18q-14 25 -14 57q0 84 94 160q88 -221 299 -221h4q29 -6 29 26q2 25 -25 31q-123 6 -153 182q12 -2 24 -2h29 q188 0 291 154h2z" />
<glyph unicode="+" horiz-adv-x="997" d="M918 848q0 39 -39 39h-242v241q0 80 -121 80q-123 0 -123 -80v-241h-237q-43 0 -43 -39t43 -39h237v-244q0 -80 123 -80q121 0 121 80v244h242q39 0 39 39z" />
<glyph unicode="," horiz-adv-x="434" d="M354 90v82q0 80 -121 80t-120 -80v-82q0 -74 100 -80l-76 -203q-12 -39 45 -38q63 0 76 38l90 242v8v4q2 6 4 14.5t2 14.5z" />
<glyph unicode="-" horiz-adv-x="772" d="M715 555q0 39 -39 39h-570q-43 0 -43 -39t43 -39h570q39 0 39 39z" />
<glyph unicode="." horiz-adv-x="434" d="M354 90v82q0 80 -121 80t-120 -80v-82q0 -80 120 -80q121 0 121 80z" />
<glyph unicode="/" horiz-adv-x="1245" d="M1165 1657q0 39 -78 35q-111 0 -153 -80l-809 -1528q-4 -14 -8 -25.5t-4 -15.5q0 -41 77 -39q111 0 154 84l807 1526q6 16 10 25.5t4 17.5z" />
<glyph unicode="0" d="M999 324v1044q0 190 -133 268q-51 27 -127.5 41.5t-181.5 14.5q-219 0 -311 -54q-133 -74 -133 -270v-1044q0 -195 133 -267q94 -55 311 -55q219 0 322 59q120 75 120 263zM756 1006q0 -119 -199 -119q-61 0 -111.5 -3t-91.5 -7v491q0 162 41 207q33 37 162 37 q123 0 158 -37q41 -41 41 -207v-362zM756 324q0 -72 -5.5 -118t-21.5 -69q-39 -55 -172 -55t-172 53q-14 23 -22.5 70t-8.5 119v360q0 121 203 121q59 0 109.5 3t89.5 7v-491z" />
<glyph unicode="1" horiz-adv-x="612" d="M612 43q0 39 -41 39h-86v1517q0 8 -4 13h4v80l-401 -271q-43 -29 -43 -67q0 -23 12 -23q16 0 31 12l160 107v-1368h-74q-39 0 -39 -39q0 -41 39 -41h401q41 0 41 41z" />
<glyph unicode="2" horiz-adv-x="1060" d="M999 43q0 39 -41 39h-604v483q0 156 41 203q39 37 162 37q106 0 183 14.5t126 40.5q133 80 133 268v228q0 195 -133 268q-104 57 -309 57q-209 0 -311 -57q-133 -72 -133 -268q0 -78 120 -78q121 0 121 78v4q0 154 29 188q18 25 60 38t114 13q127 0 158 -36 q41 -41 41 -207v-228q0 -72 -5.5 -118.5t-21.5 -69.5q-18 -29 -62 -41t-110 -12q-209 0 -309 -56q-135 -74 -135 -266v-489h2q6 -74 118 -74h725q41 0 41 41z" />
<glyph unicode="3" horiz-adv-x="1048" d="M969 324v282q-4 211 -166 277q166 68 166 286v199q0 190 -133 268q-51 27 -128 41.5t-182 14.5q-219 0 -311 -54q-133 -74 -133 -270q0 -80 121 -80t121 80q0 162 41 207q33 37 161 37q123 0 158 -37q41 -41 41 -207v-199q0 -76 -5 -122t-22 -64q-39 -57 -172 -57 q-41 0 -41 -39t41 -39q129 0 170 -57q29 -41 29 -195v-272q0 -72 -5 -118t-22 -69q-39 -55 -172 -55t-172 53q-14 23 -22 70t-8 119q0 80 -121 79q-121 0 -121 -79q0 -195 133 -267q94 -55 311 -55q219 0 322 59q121 75 121 263z" />
<glyph unicode="4" horiz-adv-x="1017" d="M1012 766q0 39 -41 39h-131v563q0 82 -123 82q-121 0 -121 -82v-563h-242v821q-10 68 -121 68q-113 0 -118 -68h-2v-821q0 -80 120 -80h363v-643q0 -80 121 -80q123 0 123 80v643h131q41 0 41 41z" />
<glyph unicode="5" horiz-adv-x="1067" d="M999 324v442h-2q-12 172 -147 233q-47 23 -121 36.5t-172 13.5q-61 0 -111.5 -5.5t-91.5 -13.5v582h602q43 0 43 37q0 43 -43 43h-843v-967q0 -80 120 -80q121 0 121 80v4q0 139 31 186q41 51 172 52q125 0 158 -39q41 -39 41 -203v-401q0 -72 -5.5 -118t-21.5 -69 q-39 -55 -172 -55t-172 53q-14 23 -22.5 70t-8.5 119v6q0 78 -121 78t-120 -78v-6q0 -195 133 -267q94 -55 311 -55q219 0 322 59q120 75 120 263z" />
<glyph unicode="6" d="M999 324v385q0 193 -133 264q-100 57 -309 57q-61 0 -111.5 -3t-91.5 -13v354q0 162 41 207q33 37 162 37q123 0 158 -37q41 -41 41 -207q0 -80 123 -80q121 0 120 80q0 190 -133 268q-51 27 -127.5 41.5t-181.5 14.5q-219 0 -311 -54q-133 -74 -133 -270v-1044 q0 -195 133 -267q94 -55 311 -55q219 0 322 59q120 75 120 263zM756 324q0 -72 -5.5 -118t-21.5 -69q-39 -55 -172 -55t-172 53q-14 23 -22.5 70t-8.5 119v389q0 139 31 186q20 29 63.5 40t108.5 11q66 0 110 -13t62 -42q16 -20 21.5 -67.5t5.5 -118.5v-385z" />
<glyph unicode="7" horiz-adv-x="897" d="M893 1638q0 53 -96 54h-723q-43 0 -43 -43q0 -37 43 -37h610l-114 -597l-81 -425l-52 -282l-30 -166l-15 -79l-3 -20q0 -41 72 -41q131 0 145 80q4 10 4 16q0 8 2 15l275 1499q2 8 4 14t2 12z" />
<glyph unicode="8" d="M999 324v282q0 213 -163 281q164 68 163 282v199q0 190 -133 268q-51 27 -127.5 41.5t-181.5 14.5q-219 0 -311 -54q-133 -74 -133 -270v-199q0 -215 163 -282q-164 -68 -163 -281v-282q0 -195 133 -267q94 -55 311 -55q219 0 322 59q120 75 120 263zM756 1169 q0 -76 -5.5 -122t-21.5 -64q-39 -57 -172 -57t-172 55q-14 20 -22.5 66.5t-8.5 121.5v199q0 162 41 207q33 37 162 37q123 0 158 -37q41 -41 41 -207v-199zM756 324q0 -72 -5.5 -118t-21.5 -69q-39 -55 -172 -55t-172 53q-14 23 -22.5 70t-8.5 119v282q0 72 8.5 118t22.5 67 q41 57 172 57q133 0 172 -57q16 -20 21.5 -66.5t5.5 -118.5v-282z" />
<glyph unicode="9" d="M999 315v1047q0 190 -120 262q-94 59 -322 59q-229 0 -324 -59q-121 -70 -120 -262v-379q0 -193 135 -268q92 -53 309 -53q61 0 110.5 4t88.5 12v-363q0 -139 -29 -186q-39 -53 -170 -53q-133 0 -172 53q-31 47 -31 186q0 82 -121 82t-120 -82q0 -193 135 -266 q51 -27 128 -41t181 -14q106 0 183 14.5t126 40.5q133 73 133 266zM756 981q0 -139 -29 -184q-39 -53 -170 -54q-133 0 -172 54q-31 47 -31 186v379q0 72 8.5 119t22.5 67q39 55 172 56q66 0 110 -13.5t62 -42.5q16 -20 21.5 -67t5.5 -119v-381z" />
<glyph unicode=":" horiz-adv-x="434" d="M354 856v80q0 80 -121 80t-120 -80v-80q0 -82 120 -82q121 0 121 82zM354 90v82q0 80 -121 80t-120 -80v-82q0 -80 120 -80q121 0 121 80z" />
<glyph unicode=";" horiz-adv-x="434" d="M354 856v80q0 80 -121 80t-120 -80v-80q0 -82 120 -82q121 0 121 82zM354 90v82q0 80 -121 80t-120 -80v-82q0 -74 100 -80l-76 -203q-12 -39 45 -38q63 0 76 38l90 242v8v4q2 6 4 14.5t2 14.5z" />
<glyph unicode="&#x3c;" horiz-adv-x="1064" d="M985 440q0 37 -41 49l-403 111q-59 14 -95 32.5t-55 37.5q-45 45 -51 168q6 129 51 174q18 18 54 35.5t96 33.5l403 111q41 10 41 49q0 47 -41 31l-403 -109q-102 -29 -176 -56.5t-119 -55.5q-133 -84 -133 -213q0 -203 428 -320l403 -110q4 -2 14 -2q27 -1 27 34z" />
<glyph unicode="=" horiz-adv-x="997" d="M918 1049q0 41 -39 41h-723q-43 0 -43 -41t43 -41h723q39 0 39 41zM918 645q0 41 -39 41h-723q-43 0 -43 -41q0 -39 43 -39h723q39 0 39 39z" />
<glyph unicode="&#x3e;" horiz-adv-x="1064" d="M985 846q0 129 -131 211q-90 53 -297 108l-401 111q-8 2 -19 2q-25 0 -24 -31q0 -39 43 -51l401 -111q57 -16 95 -32.5t59.5 -43t32 -65.5t12.5 -98q-2 -59 -12.5 -99t-32 -67t-59.5 -44.5t-95 -33.5l-401 -106q-43 -12 -43 -54q0 -41 43 -28l401 108q428 121 428 324z " />
<glyph unicode="?" horiz-adv-x="995" d="M915 1137v231q0 188 -120 262q-100 59 -322 60q-223 0 -323 -60q-121 -72 -121 -262q0 -82 121 -82t120 82q0 74 8.5 121t22.5 67q39 55 172 56q133 0 172 -58q16 -18 21.5 -65t5.5 -121v-231q0 -182 -10 -201q-18 -41 -127 -41q-203 0 -279 -57q-84 -66 -84 -265v-100 q2 -76 121 -76q121 0 121 80l-2 248q0 66 30 84q18 6 93 6q211 0 290 62q90 67 90 260zM414 82v78q0 82 -121 82t-121 -82v-78q0 -82 121 -82t121 82z" />
<glyph unicode="@" horiz-adv-x="1589" d="M1563 309q0 82 -121 82q-123 0 -123 -82q0 -242 -479 -241q-485 0 -486 241v684q0 244 363 244q322 0 321 -244q0 -121 -202 -121q-442 0 -443 -198q0 -197 133 -268q102 -57 310 -58q211 0 309 58q135 74 135 268v319q0 322 -563 322q-604 0 -604 -322v-684 q0 -176 260 -262q190 -59 467 -59q123 0 229.5 13t202.5 42q291 76 291 266zM1038 674q0 -76 -8 -122t-22 -67q-41 -55 -172 -55q-129 0 -170 57q-29 45 -29 187q0 117 199 117q61 0 111 2t91 10v-129z" />
<glyph unicode="A" d="M999 82v1286q0 190 -133 268q-51 27 -127.5 41.5t-181.5 14.5q-219 0 -311 -54q-133 -74 -133 -270v-1286q0 -80 120 -80q121 0 121 80v766h402v-766q0 -80 123 -80q120 0 120 80zM756 926h-402v442q0 162 41 207q33 37 162 37q123 0 158 -37q41 -41 41 -207v-442z" />
<glyph unicode="B" d="M999 324v282q0 213 -163 281q164 68 163 282v199q0 190 -133 268q-51 27 -127.5 41.5t-181.5 14.5h-324q-121 0 -120 -80v-1530q4 -10 7 -22.5t5 -22.5q25 -35 108 -35h324q221 0 322 59q120 75 120 263zM756 1169q0 -76 -5.5 -122t-21.5 -64q-39 -57 -172 -57h-203v686 h203q123 0 158 -37q41 -41 41 -207v-199zM756 324q0 -72 -5.5 -118t-21.5 -69q-39 -55 -172 -55h-203v766h203q133 0 172 -57q16 -20 21.5 -66.5t5.5 -118.5v-282z" />
<glyph unicode="C" horiz-adv-x="1040" d="M999 317v5q0 80 -120 79q-123 0 -123 -79v-5q0 -74 -5.5 -120.5t-21.5 -65.5q-39 -57 -172 -57q-131 0 -172 53q-31 47 -31 190v1051q0 162 41 207q33 37 162 37q123 0 158 -37q41 -41 41 -207v-2q0 -82 123 -82q121 0 120 82v2q0 190 -133 268q-51 27 -127.5 41.5 t-181.5 14.5q-219 0 -311 -54q-133 -74 -133 -270v-1051q0 -193 120 -264q96 -57 324 -57q225 0 322 57q120 74 120 264z" />
<glyph unicode="D" d="M999 324v1044q0 190 -133 268q-51 27 -127.5 41.5t-181.5 14.5h-324q-121 0 -120 -80v-1530q0 -80 120 -80h324q221 0 322 59q120 75 120 263zM756 324q0 -72 -5.5 -118t-21.5 -69q-39 -55 -172 -55h-203v1530h203q123 0 158 -37q41 -41 41 -207v-1044z" />
<glyph unicode="E" horiz-adv-x="1003" d="M999 43q0 39 -43 39h-602v766h443q43 0 43 39t-43 39h-443v686h602q43 0 43 37q0 43 -43 43h-723q-121 0 -120 -80v-1530q4 -10 7 -22.5t5 -22.5q25 -35 108 -35h723q43 0 43 41z" />
<glyph unicode="F" horiz-adv-x="972" d="M999 1649q0 43 -43 43h-723q-121 0 -120 -80v-1530q0 -80 120 -80q121 0 121 80v807h443q43 0 43 39t-43 39h-443v645h602q43 0 43 37z" />
<glyph unicode="G" d="M999 324v524q0 78 -120 78h-322q-41 0 -41 -39t41 -39h199v-524q0 -72 -5.5 -118t-21.5 -69q-39 -55 -172 -55t-172 53q-14 23 -22.5 70t-8.5 119v1032q0 162 41 207q31 37 162 36q127 0 158 -36q41 -41 41 -207v-2q0 -82 123 -82q121 0 120 82v2q0 195 -133 268 q-104 57 -309 57q-209 0 -311 -57q-133 -72 -133 -268v-1032q0 -190 120 -263q100 -59 324 -59q221 0 322 59q120 75 120 263z" />
<glyph unicode="H" d="M999 82v1530q0 80 -120 80q-123 0 -123 -80v-686h-402v686q0 80 -121 80t-120 -80v-1530q0 -80 120 -80q121 0 121 80v766h402v-766q0 -80 123 -80q120 0 120 80z" />
<glyph unicode="I" horiz-adv-x="542" d="M535 43q0 39 -39 39h-88v1530h81q39 0 39 37q0 43 -39 43h-401q-43 0 -43 -43q0 -37 43 -37h78v-1530h-74q-39 0 -39 -39q0 -41 39 -41h404q39 0 39 41z" />
<glyph unicode="J" horiz-adv-x="1034" d="M954 324v1298h-2q-6 70 -118 70q-115 0 -123 -70v-1298q0 -72 -5.5 -118t-21.5 -69q-39 -55 -172 -55t-172 53q-14 23 -22.5 70t-8.5 119q-12 61 -121 61q-106 0 -118 -61h-2v-17q0 -180 143 -254q106 -51 301 -51q221 0 322 59q120 75 120 263z" />
<glyph unicode="K" d="M999 82v518q0 213 -163 281q154 66 161 256h2v475q0 78 -120 78q-123 0 -123 -78v-449q0 -76 -5.5 -121t-21.5 -65q-18 -29 -62 -42t-110 -13h-203v692q0 80 -121 80t-120 -80v-1530q0 -80 120 -80q121 0 121 80v754h199q129 0 162 -35q41 -41 41 -203v-518 q0 -82 123 -82q120 0 120 82z" />
<glyph unicode="L" horiz-adv-x="999" d="M999 39q0 43 -43 43h-399q-133 0 -172 53q-14 20 -22.5 66.5t-8.5 117.5v1303q-10 68 -121 68q-113 0 -118 -68h-2v-1303q0 -193 135 -262q104 -57 309 -57h399q43 0 43 39z" />
<glyph unicode="M" horiz-adv-x="1560" d="M1481 82v1286q0 188 -101 262q-88 59 -301 60q-98 0 -167.5 -12.5t-114.5 -35.5q-45 23 -115 35.5t-166 12.5q-215 0 -303 -60q-100 -74 -100 -262v-1286q0 -82 120 -82q121 0 121 82v1286q0 78 2 124t11 60q25 59 149 60q117 0 148 -60q12 -31 12 -180v-1290 q0 -82 121 -82t121 82v1290q0 150 12 180q29 59 149 60q123 0 148 -60q12 -31 12 -184v-1286q0 -82 121 -82t121 82z" />
<glyph unicode="N" d="M999 82v1286q0 188 -120 262q-100 59 -322 60q-223 0 -324 -60q-121 -72 -120 -262v-1286q0 -82 120 -82q121 0 121 82v1286q0 139 31 186q41 57 172 58q133 0 172 -58q16 -23 21.5 -68.5t5.5 -117.5v-1286q0 -82 123 -82q120 0 120 82z" />
<glyph unicode="O" d="M999 319v1049q0 188 -120 262q-100 59 -322 60q-223 0 -324 -60q-121 -72 -120 -262v-1049q0 -193 135 -262q104 -57 309 -57q207 0 309 57q133 72 133 262zM756 319q0 -137 -29 -184q-39 -53 -170 -53q-133 0 -172 53q-14 20 -22.5 66.5t-8.5 117.5v1049q0 139 31 186 q41 57 172 58q133 0 172 -58q16 -23 21.5 -68.5t5.5 -117.5v-1049z" />
<glyph unicode="P" horiz-adv-x="1060" d="M999 1126v242q0 188 -120 262q-100 59 -322 60h-324q-121 0 -120 -78v-1530q0 -82 120 -82q121 0 121 82v723h203q106 0 183 14.5t126 40.5q133 73 133 266zM756 1126q0 -72 -5.5 -117.5t-21.5 -68.5q-39 -57 -172 -57h-203v729h203q133 0 172 -58q16 -23 21.5 -68.5 t5.5 -117.5v-242z" />
<glyph unicode="Q" horiz-adv-x="1089" d="M1024 -193q-168 0 -233 220q209 61 208 299v1046q0 188 -120 262q-102 57 -322 58q-115 0 -194.5 -14.5t-129.5 -43.5q-121 -72 -120 -262v-1046q0 -195 133 -267q98 -57 311 -57h12q59 -133 187 -203q125 -70 270 -69q41 0 41 39q0 38 -43 38zM756 326v-35q0 -16 -2 -31 q-12 76 -47 141.5t-88.5 116.5t-121 86t-143.5 47v721q0 139 31 187q20 29 63.5 42t108.5 13q133 0 172 -58q16 -20 21.5 -66t5.5 -118v-1046zM539 84q-121 0 -160 61q-25 43 -25 181v229q154 -84 166 -371q4 -23 7.5 -47t11.5 -53z" />
<glyph unicode="R" d="M999 82v481q0 215 -163 283q164 68 163 280v242q0 188 -120 262q-100 59 -322 60h-324q-121 0 -120 -78v-1530q0 -82 120 -82q121 0 121 82v723h203q61 0 99 -9.5t59 -27.5q41 -43 41 -205v-481q0 -82 123 -82q120 0 120 82zM756 1126q0 -72 -5.5 -117.5t-21.5 -68.5 q-39 -57 -172 -57h-203v729h203q133 0 172 -58q16 -23 21.5 -68.5t5.5 -117.5v-242z" />
<glyph unicode="S" d="M999 309v293q0 190 -133 268q-51 27 -127.5 41.5t-181.5 14.5q-133 0 -172 55q-14 20 -22.5 66.5t-8.5 117.5v217q0 139 31 187q41 57 172 57q133 0 172 -57q16 -23 21.5 -69t5.5 -118q0 -82 123 -82q121 0 120 82q0 188 -120 263q-100 59 -322 59q-223 0 -324 -59 q-121 -72 -120 -263v-217q0 -193 135 -266q47 -29 125 -41t184 -12q123 0 158 -37q41 -41 41 -207v-293q0 -137 -29 -184q-39 -53 -170 -53q-133 0 -172 53q-14 20 -22.5 66.5t-8.5 117.5q0 84 -121 84t-120 -84q0 -193 135 -262q104 -57 309 -57q207 0 309 57 q133 72 133 262z" />
<glyph unicode="T" horiz-adv-x="923" d="M920 1649q0 41 -43 41h-801q-43 0 -43 -41q0 -37 43 -37h280v-1530q0 -82 121 -82q119 0 119 82v1530h281q43 0 43 37z" />
<glyph unicode="U" d="M999 319v1293q0 78 -120 78q-123 0 -123 -78v-1293q0 -137 -29 -184q-39 -53 -170 -53q-133 0 -172 53q-14 20 -22.5 66.5t-8.5 117.5v1293q0 78 -121 78t-120 -78v-1293q0 -193 135 -262q104 -57 309 -57t307 57q135 69 135 262z" />
<glyph unicode="V" horiz-adv-x="888" d="M889 1642q0 49 -101 50q-92 0 -110 -80l-9 -52q-5 -30 -14 -71l-194 -1079l-199 1069l-24 133q-10 51 -31 65.5t-74 14.5q-98 0 -98 -50q0 -16 6 -30l270 -1491q2 -74 68 -105q25 -14 78 -14h8q29 0 47 4t35 10q63 31 63 105l271 1491q8 20 8 30z" />
<glyph unicode="W" horiz-adv-x="1560" d="M1481 324v1284q0 80 -121 80t-121 -80v-1284q0 -154 -12 -185q-25 -57 -148 -57q-121 0 -149 57q-12 31 -12 180v1289v4q0 80 -121 80t-121 -80v-1293q0 -150 -12 -180q-25 -57 -148 -57q-125 0 -149 57q-8 16 -10.5 61.5t-2.5 123.5v1288q0 80 -121 80t-120 -80v-1288 q0 -188 100 -263q88 -59 303 -59q96 0 166 12.5t115 34.5q45 -23 114.5 -35t167.5 -12q213 0 301 59q101 75 101 263z" />
<glyph unicode="X" d="M999 88v518q0 213 -163 281q164 68 163 282v439q0 80 -120 80q-123 0 -123 -80v-439q0 -76 -5.5 -122t-21.5 -64q-39 -57 -172 -57t-172 55q-14 20 -22.5 66.5t-8.5 121.5v443q0 80 -121 80t-120 -80v-443q0 -215 163 -282q-164 -68 -163 -281v-524q0 -80 120 -80 q121 0 121 80v524q0 160 41 205q33 37 162 37q123 0 158 -37q41 -41 41 -205v-518q0 -80 123 -80q120 0 120 80z" />
<glyph unicode="Y" d="M999 1169v439q0 80 -120 80q-123 0 -123 -80v-439q0 -76 -5.5 -122t-21.5 -64q-39 -57 -172 -57t-172 55q-14 20 -22.5 66.5t-8.5 121.5v443q0 80 -121 80t-120 -80v-443q0 -289 323 -315v-772q0 -80 121 -80q119 0 119 80v772q323 28 323 315z" />
<glyph unicode="Z" horiz-adv-x="874" d="M860 43q0 39 -39 39h-512l522 1534q8 16 10.5 27.5t2.5 17.5q0 37 -62 37h-684q-43 0 -43 -39q0 -43 43 -43h498l-528 -1532q-4 -16 -5 -27q0 -55 72 -55h686q39 0 39 41z" />
<glyph unicode="[" horiz-adv-x="471" d="M596 -82q0 39 -39 39h-203v1769h203q39 0 39 39t-39 39h-324q-121 0 -120 -78v-1769q0 -78 120 -78h324q39 0 39 39z" />
<glyph unicode="\" horiz-adv-x="1245" d="M1165 43q0 12 -14 41l-807 1528q-43 80 -154 80q-78 2 -77 -39q0 -6 4 -14.5t8 -24.5l809 -1526q43 -84 153 -84q78 -4 78 39z" />
<glyph unicode="]" horiz-adv-x="468" d="M389 -43v1769q0 78 -121 78h-319q-43 0 -43 -39t43 -39h198v-1769h-198q-43 0 -43 -39t43 -39h319q121 0 121 78z" />
<glyph unicode="^" horiz-adv-x="796" d="M717 1378q0 12 -4 23l-8 20l-130 199q-25 39 -61.5 60.5t-87.5 21.5q-39 0 -59 -10q-78 -12 -111 -78l-131 -197q-4 -12 -8 -21.5t-4 -19.5q0 -39 77 -39q102 4 154 82l72 115l73 -111q43 -76 150 -80q78 0 78 35z" />
<glyph unicode="_" horiz-adv-x="849" d="M852 -2q0 39 -39 39h-741q-43 0 -43 -39t43 -39h741q39 0 39 39z" />
<glyph unicode="`" horiz-adv-x="563" d="M483 1378q0 23 -10 43l-129 199q-45 82 -154 82q-78 0 -77 -37q0 -12 4 -23l8 -20l131 -199q39 -76 150 -80q77 0 77 35z" />
<glyph unicode="a" d="M999 319v322q0 195 -133 268q-102 57 -309 58q-213 0 -311 -58q-133 -74 -133 -268q0 -78 120 -78q121 0 121 78v4q0 158 41 203q37 35 162 35q121 0 158 -35q41 -41 41 -207q0 -119 -199 -119q-444 0 -444 -203q0 -193 135 -262q104 -57 309 -57q207 0 309 57 q133 72 133 262zM756 319q0 -72 -5.5 -117.5t-21.5 -66.5q-39 -57 -172 -57q-66 0 -108.5 13t-63.5 42q-31 47 -31 186q0 123 203 123q59 0 109.5 2t89.5 9v-134z" />
<glyph unicode="b" d="M999 319v322q0 195 -133 268q-102 57 -309 58q-123 0 -203 -19v660q0 82 -121 82t-120 -82v-1289q0 -193 135 -262q104 -57 309 -57q207 0 309 57q133 72 133 262zM756 319q0 -72 -5.5 -117.5t-21.5 -66.5q-39 -57 -172 -57q-66 0 -108.5 13t-63.5 42q-31 47 -31 186v322 q0 162 41 207q37 35 162 35q121 0 158 -35q41 -41 41 -207v-322z" />
<glyph unicode="c" horiz-adv-x="1060" d="M999 319v7q0 80 -120 80q-123 0 -123 -80v-7q0 -72 -5.5 -117.5t-21.5 -66.5q-39 -57 -172 -57q-66 0 -108.5 13t-63.5 42q-31 47 -31 186v322q0 162 41 207q37 35 162 35q121 0 158 -35q41 -41 41 -207v-2q0 -82 123 -82q121 0 120 82v2q0 195 -133 268q-102 57 -309 58 q-213 0 -311 -58q-133 -74 -133 -268v-322q0 -193 135 -262q104 -57 309 -57q207 0 309 57q133 72 133 262z" />
<glyph unicode="d" d="M999 319v1289q0 82 -120 82q-123 0 -123 -82v-660q-78 18 -199 19q-213 0 -311 -58q-133 -74 -133 -268v-322q0 -193 135 -262q104 -57 309 -57q207 0 309 57q133 72 133 262zM756 319q0 -72 -5.5 -117.5t-21.5 -66.5q-39 -57 -172 -57q-66 0 -108.5 13t-63.5 42 q-31 47 -31 186v322q0 162 41 207q37 35 162 35q121 0 158 -35q41 -41 41 -207v-322z" />
<glyph unicode="e" d="M999 324q0 80 -120 79q-123 0 -123 -79q0 -72 -5.5 -118t-21.5 -69q-39 -55 -172 -55t-172 53q-14 23 -22.5 70t-8.5 119q0 121 203 120q442 0 442 201q0 180 -120 260q-57 37 -144.5 56.5t-179.5 19.5t-178 -19.5t-144 -56.5q-121 -78 -120 -260v-321q0 -195 133 -267 q98 -57 311 -57q205 0 309 57q133 74 133 267zM756 645q0 -123 -199 -123q-61 0 -111.5 -2t-91.5 -8v133q0 164 41 205q37 37 162 37q66 0 110 -13.5t62 -42.5q16 -20 21.5 -66t5.5 -120z" />
<glyph unicode="f" horiz-adv-x="716" d="M797 1649q0 43 -41 43h-199q-219 0 -311 -54q-133 -74 -133 -270v-1286q0 -80 120 -80q121 0 121 80v821h363q39 0 39 41t-39 41h-363v383q0 162 41 207q33 37 162 37h199q41 0 41 37z" />
<glyph unicode="g" horiz-adv-x="1107" d="M1120 967q0 41 -41 41q-246 0 -340 -54q-55 23 -127 26q-18 1 -35 1l-108 -7q-72 -9 -132.5 -25.5t-90.5 -35.5q-133 -74 -133 -268v-205q4 -201 145 -268q-145 -49 -145 -170v-324q0 -96 35.5 -159.5t99.5 -104.5q53 -35 135 -52t168 -17q88 0 172 17t143 52 q133 76 133 264q0 203 -442 203q-203 0 -203 121q0 119 203 119q109 0 188.5 14.5t131.5 46.5q123 78 122 258v205q-12 168 -92 238q37 43 172 43q41 0 41 41zM756 444q0 -72 -5.5 -117.5t-21.5 -66.5q-39 -57 -172 -57t-172 53q-14 23 -22.5 70t-8.5 118v201q0 164 41 205 q37 37 162 37q121 0 158 -37q41 -39 41 -205v-201zM756 -322q0 -135 -29 -186q-41 -53 -170 -53q-131 0 -172 53q-31 47 -31 186v134q41 -8 91.5 -10.5t111.5 -2.5q199 0 199 -121z" />
<glyph unicode="h" d="M999 84v557q0 195 -133 268q-102 57 -309 58q-123 0 -203 -19v660q0 82 -121 82t-120 -82v-1530q0 -78 120 -78q121 0 121 78v563q0 162 41 207q37 35 162 35q121 0 158 -35q41 -41 41 -207v-557q0 -80 123 -80q120 0 120 80z" />
<glyph unicode="i" horiz-adv-x="434" d="M354 1204v82q0 82 -121 82t-120 -82v-82q0 -78 120 -78q121 0 121 78zM354 78v805q0 84 -121 84t-120 -84v-805q0 -78 120 -78q121 0 121 78z" />
<glyph unicode="j" horiz-adv-x="493" d="M391 1202v80q0 80 -121 80q-123 0 -123 -80v-80q0 -82 123 -82q121 0 121 82zM391 -127v1006q0 82 -121 82q-123 0 -123 -82v-1006q0 -74 -11 -138.5t-36 -117.5q-63 -147 -190 -147q-43 0 -43 -39t43 -39q201 0 340 139q141 141 141 342z" />
<glyph unicode="k" d="M999 78v160q0 213 -163 280q154 66 161 256h2v109q0 84 -120 84q-123 0 -123 -84v-82q0 -76 -5.5 -122t-21.5 -67q-39 -55 -172 -55h-203v1051q0 82 -121 82t-120 -82v-1530q0 -78 120 -78q121 0 121 78v399h199q133 0 174 -55q29 -41 29 -184v-160q0 -78 123 -78 q120 0 120 78z" />
<glyph unicode="l" horiz-adv-x="434" d="M354 78v1530q0 82 -121 82t-120 -82v-1530q0 -78 120 -78q121 0 121 78z" />
<glyph unicode="m" horiz-adv-x="1560" d="M1481 84v557q0 193 -101 262q-90 59 -301 60q-193 0 -282 -48q-90 47 -281 48q-217 0 -303 -60q-100 -70 -100 -262v-563q0 -78 120 -78q121 0 121 78v563q0 78 2 123t11 59q25 59 149 60q123 0 148 -58q12 -31 12 -180v-567q0 -78 121 -78t121 78v567q0 147 12 178 q27 59 149 60q123 0 148 -60q12 -31 12 -182v-557q0 -82 121 -82t121 82z" />
<glyph unicode="n" d="M999 84v557q0 190 -120 262q-98 59 -322 60q-219 0 -311 -54q-133 -74 -133 -268v-563q0 -78 120 -78q121 0 121 78v563q0 162 41 207q37 35 162 35q121 0 158 -35q41 -41 41 -207v-557q0 -82 123 -82q120 0 120 82z" />
<glyph unicode="o" d="M999 319v322q0 190 -120 262q-98 59 -322 60q-219 0 -311 -54q-133 -74 -133 -268v-322q0 -193 133 -266q92 -53 311 -53t322 59q120 72 120 260zM756 319q0 -72 -5.5 -117.5t-21.5 -66.5q-39 -57 -172 -57q-66 0 -108.5 13t-63.5 42q-31 47 -31 186v322q0 162 41 207 q37 35 162 35q121 0 158 -35q41 -41 41 -207v-322z" />
<glyph unicode="p" d="M999 319v326q0 190 -133 264q-102 57 -309 58q-213 0 -309 -54q-135 -74 -135 -268v-1171q0 -82 120 -82q121 0 121 82v542q41 -10 91.5 -13t111.5 -3q207 0 309 57q133 72 133 262zM756 319q0 -137 -29 -184q-39 -53 -170 -53q-133 0 -172 53q-14 20 -22.5 66.5 t-8.5 117.5v326q0 158 41 203q37 35 162 35q121 0 158 -35q41 -41 41 -203v-326z" />
<glyph unicode="q" d="M999 -526v1171q0 188 -120 260q-102 61 -322 62q-215 0 -311 -54q-133 -74 -133 -268v-321q0 -190 120 -263q100 -59 324 -59q61 0 110.5 4t88.5 10v-542q0 -82 123 -82q120 0 120 82zM756 324q0 -72 -5.5 -118t-21.5 -69q-39 -55 -172 -55t-172 53q-14 23 -22.5 70 t-8.5 119v321q0 164 41 205q37 37 162 37q121 0 158 -37q41 -39 41 -205v-321z" />
<glyph unicode="r" horiz-adv-x="675" d="M676 924q0 39 -39 39q-135 0 -224 -10.5t-137 -28.5q-164 -63 -163 -283v-563q0 -78 120 -78q121 0 121 78v563q0 180 82 227q31 14 201 15q39 0 39 41z" />
<glyph unicode="s" d="M999 319q0 201 -442 201q-203 0 -203 121q0 162 41 207q37 35 162 35q121 0 158 -35q41 -41 41 -207q0 -78 123 -78q121 0 120 78q0 190 -120 262q-98 59 -322 60q-219 0 -311 -54q-133 -74 -133 -268q0 -199 444 -199q199 0 199 -123q0 -72 -5.5 -117.5t-21.5 -66.5 q-39 -57 -172 -57q-66 0 -108.5 13t-63.5 42q-31 47 -31 186q0 80 -121 80t-120 -80q0 -193 133 -266q92 -53 311 -53t322 59q120 72 120 260z" />
<glyph unicode="t" horiz-adv-x="716" d="M717 942q0 39 -41 39h-322v461q0 82 -121 82t-120 -82v-1370q0 -78 120 -78q121 0 121 78v827h322q41 0 41 43z" />
<glyph unicode="u" d="M999 315v557q0 82 -120 82q-123 0 -123 -82v-557q0 -72 -5.5 -117.5t-21.5 -68.5q-39 -57 -172 -57t-172 55q-14 23 -22.5 70t-8.5 118v564q0 82 -121 82t-120 -82v-564q0 -190 120 -262q100 -59 324 -59q221 0 322 59q120 74 120 262z" />
<glyph unicode="v" horiz-adv-x="880" d="M885 922q0 49 -101 49q-80 0 -110 -80l-217 -631l-224 631q-20 53 -34 63q-16 16 -70 17q-98 0 -98 -49q0 -16 6 -31l276 -803q20 -49 62 -68q23 -16 78 -16h8q29 0 47 4t35 12q47 18 59 68l275 803q8 21 8 31z" />
<glyph unicode="w" horiz-adv-x="1560" d="M1481 326v561q0 80 -121 80t-121 -80v-561q0 -150 -12 -181q-25 -57 -148 -57t-149 57q-12 31 -12 181v561v4q0 80 -121 80t-121 -80v-565q0 -156 -12 -181q-25 -57 -148 -57q-125 0 -149 57q-8 12 -10.5 57.5t-2.5 123.5v565q0 80 -121 80t-120 -80v-565 q0 -193 110 -265q43 -29 116 -43t177 -14q96 0 166 13.5t115 35.5q45 -23 114.5 -36t167.5 -13q201 0 291 57q111 75 111 265z" />
<glyph unicode="x" d="M999 94v129q0 213 -163 281q164 68 163 282v105q0 80 -120 80q-123 0 -123 -80v-105q0 -72 -5.5 -118.5t-21.5 -71.5q-18 -27 -62 -40t-110 -13q-131 0 -172 53q-14 25 -22.5 72t-8.5 118v109q0 82 -121 82t-120 -82v-109q0 -215 163 -282q-164 -68 -163 -281v-133 q0 -80 120 -80q121 0 121 80v133q0 156 41 203q39 37 162 37q61 0 99 -9.5t59 -27.5q23 -23 32 -74t9 -129v-129q0 -80 123 -80q120 0 120 80z" />
<glyph unicode="y" d="M999 -283v1162q0 82 -120 82q-123 0 -123 -82v-562q0 -139 -29 -184q-37 -55 -170 -55q-66 0 -108.5 13t-63.5 42q-31 47 -31 186v564q0 80 -121 80t-120 -80v-564q0 -193 133 -266q92 -53 311 -53q127 0 199 14v-297q0 -72 -5.5 -119t-21.5 -69q-18 -29 -62 -41 t-110 -12q-133 0 -172 53q-31 47 -31 186v2q0 80 -121 80t-120 -80q0 -195 133 -266q98 -57 311 -57q207 0 309 57q133 78 133 266z" />
<glyph unicode="z" horiz-adv-x="858" d="M854 39q0 39 -41 39h-512l526 805q16 25 17 43q0 37 -70 37h-684q-39 0 -39 -39q0 -41 39 -41h498l-522 -805q-20 -23 -21 -41q0 -37 84 -37h684q41 0 41 39z" />
<glyph unicode="{" horiz-adv-x="667" d="M764 1765q0 39 -41 39q-217 0 -320 -57q-121 -72 -120 -262v-365q0 -141 -33 -184q-37 -55 -168 -55q-14 0 -25 -9q-23 -12 -22 -36q0 -39 43 -39q59 0 99 -8.5t56 -28.5q43 -47 43 -205v-358q0 -193 121 -263q100 -59 322 -59q43 0 43 39q0 41 -43 41q-127 0 -158 37 q-43 45 -43 205v358q0 213 -162 281q168 68 168 284v365q0 156 41 203q35 39 158 38q41 0 41 39z" />
<glyph unicode="|" horiz-adv-x="434" d="M354 -35v1755q0 82 -121 82t-120 -82v-1755q0 -78 120 -78q121 0 121 78z" />
<glyph unicode="}" horiz-adv-x="641" d="M635 836q0 45 -45 45q-125 0 -158 37q-43 45 -43 202v365q0 190 -121 262q-98 57 -319 57q-43 0 -43 -39t43 -39q135 0 170 -55q29 -37 28 -186v-365q0 -217 170 -284q-164 -68 -163 -281v-358q0 -139 -33 -189q-35 -53 -168 -53q-41 0 -41 -41q0 -39 41 -39 q109 0 185.5 13.5t125.5 41.5q131 72 131 267v358q0 158 41 205q16 20 57.5 28.5t100.5 8.5q41 0 41 39z" />
<glyph unicode="~" horiz-adv-x="1396" d="M1317 1333q23 37 -10 58q-31 20 -56 -13q-55 -80 -172 -80q-94 0 -280 93q-92 49 -163 72.5t-120 23.5q-260 0 -403 -215q-23 -35 10 -55q37 -23 57 10q47 84 170 84q47 0 116 -22.5t161 -71.5q94 -47 165.5 -70t125.5 -23q258 0 399 209z" />
<glyph unicode="&#xa2;" d="M999 332v6q0 80 -120 80q-123 0 -123 -80v-6q0 -106 -13 -152q-25 -70 -106 -86v799q86 -16 106 -88q12 -41 13 -152v-2q0 -84 123 -84q121 0 120 84v2q0 303 -362 320v84q0 51 -16.5 65.5t-63.5 14.5q-51 0 -66.5 -14.5t-15.5 -65.5v-84q-362 -16 -362 -320v-321 q0 -170 98 -244q90 -66 264 -74v-84q0 -49 15.5 -64.5t66.5 -15.5q47 0 63.5 15.5t16.5 64.5v84q176 10 262 74q100 74 100 244zM475 94q-84 14 -106 86q-6 18 -10.5 56t-4.5 96v321q0 53 4 92t11 60q20 72 106 88v-799z" />
<glyph unicode="&#xa3;" horiz-adv-x="1202" d="M1120 53q0 37 -37 37h-608v713h404q39 0 39 39t-39 39h-404v487q0 162 41 207q37 37 160 37t160 -37q43 -141 43 -207v-2q0 -82 120 -82q121 0 121 82v2q0 190 -135 268q-47 27 -125 41.5t-184 14.5q-217 0 -309 -54q-133 -74 -134 -270l-2 -487h-75q-43 0 -43 -39 t43 -39h75v-750q0 -43 41 -43h811q37 0 37 43z" />
<glyph unicode="&#xa4;" horiz-adv-x="1273" d="M1196 336v4q0 80 -121 80t-121 -80v-4q0 -152 -28 -186q-39 -57 -172 -58q-131 0 -172 53q-31 47 -31 191v342h328q39 0 39 37q0 45 -39 45h-328v178h412q39 0 38 43q0 41 -38 41h-412v346q0 160 43 207q37 37 160 37t157 -37q43 -141 43 -207v-2q0 -82 121 -82t121 82v2 q0 197 -131 268q-49 27 -127 41.5t-184 14.5q-104 0 -183 -12.5t-131 -41.5q-131 -76 -131 -270v-346h-71q-41 0 -41 -41q0 -43 41 -43h71v-178h-153q-43 0 -43 -45q0 -37 43 -37h153v-342q0 -193 121 -264q96 -57 324 -58q227 0 321 58q121 71 121 264z" />
<glyph unicode="&#x20ac;" horiz-adv-x="1273" d="M1196 336v4q0 80 -121 80t-121 -80v-4q0 -152 -28 -186q-39 -57 -172 -58q-131 0 -172 53q-31 47 -31 191v342h328q39 0 39 37q0 45 -39 45h-328v178h412q39 0 38 43q0 41 -38 41h-412v346q0 160 43 207q37 37 160 37t157 -37q43 -141 43 -207v-2q0 -82 121 -82t121 82v2 q0 197 -131 268q-49 27 -127 41.5t-184 14.5q-104 0 -183 -12.5t-131 -41.5q-131 -76 -131 -270v-346h-71q-41 0 -41 -41q0 -43 41 -43h71v-178h-153q-43 0 -43 -45q0 -37 43 -37h153v-342q0 -193 121 -264q96 -57 324 -58q227 0 321 58q121 71 121 264z" />
<glyph unicode="&#xa5;" d="M999 1169v435q0 84 -120 84q-123 0 -123 -84v-435q0 -76 -5.5 -122t-21.5 -64q-39 -57 -172 -57t-172 55q-14 20 -22.5 66.5t-8.5 121.5v443q0 78 -121 78t-120 -78v-443q0 -289 323 -319v-166h-243q-37 0 -37 -39t37 -39h243v-244h-243q-37 0 -37 -38q0 -43 37 -43h243 v-199q0 -82 121 -82q119 0 119 82v199h242q39 0 38 43q0 39 -38 38h-242v244h242q39 0 38 39q0 39 -38 39h-242v166q323 30 323 319z" />
<glyph unicode="&#xa8;" horiz-adv-x="798" d="M721 1501v84q0 80 -123 80q-119 0 -119 -80v-84q0 -80 119 -80q123 0 123 80zM354 1501v84q0 80 -121 80t-120 -80v-84q0 -80 120 -80q121 0 121 80z" />
<glyph unicode="&#xa9;" horiz-adv-x="1402" d="M1323 451v786q0 141 -219 197q-131 33 -137 32q-33 8 -93.5 10.5t-152.5 2.5t-153.5 -2t-96.5 -11l-139 -32q-219 -55 -219 -197v-786q0 -139 219 -195l94 -23q35 -8 45 -10q25 -6 87.5 -11t162.5 -5q98 0 158.5 5t87.5 11l137 33q219 56 219 195zM1083 451 q0 -139 -125 -166q-23 -8 -83 -11.5t-154 -3.5q-100 0 -160.5 2t-81.5 9q-125 31 -125 170v786q0 137 125 170q23 8 83.5 10t158.5 2q94 0 154.5 -2t82.5 -10q125 -37 125 -170v-786zM989 541v4q0 45 -76 45q-70 0 -69 -45v-4q0 -41 -4 -69t-17 -42q-18 -33 -100 -33 q-78 0 -105 33q-16 33 -16 111v622q0 86 16 113q14 14 39 22.5t66 8.5q80 0 104 -35q16 -23 17 -109v-4q0 -47 69 -47q76 0 76 47v4q0 193 -266 193q-131 0 -184 -33q-82 -45 -82 -160v-622q0 -117 82 -160q55 -33 184 -33q66 0 111 9.5t75 25.5q80 39 80 158z" />
<glyph unicode="&#xab;" horiz-adv-x="968" d="M889 455q0 51 -27 65l-190 103q-49 27 -64 61q-23 49 -22 162q0 109 22 160q14 33 64 61l190 107q27 12 27 59q0 61 -39 43l-191 -107q-55 -33 -95 -64.5t-62 -66.5q-51 -72 -51 -192q0 -205 208 -324l191 -108q39 -20 39 41zM551 455q0 51 -27 65l-190 103 q-55 27 -76 96q-6 18 -8 50t-2 77q0 109 22 160q14 33 64 61l190 107q27 12 27 59q0 59 -43 43l-186 -107q-55 -33 -95.5 -64.5t-62.5 -66.5q-51 -72 -51 -192q0 -205 209 -324l186 -108q43 -20 43 41z" />
<glyph unicode="&#xad;" horiz-adv-x="772" d="M715 555q0 39 -39 39h-570q-43 0 -43 -39t43 -39h570q39 0 39 39z" />
<glyph unicode="&#xae;" horiz-adv-x="1402" d="M1323 451v786q0 141 -219 197q-131 33 -137 32q-33 8 -93.5 10.5t-152.5 2.5t-153.5 -2t-96.5 -11l-139 -32q-219 -55 -219 -197v-786q0 -139 219 -195l94 -23q35 -8 45 -10q25 -6 87.5 -11t162.5 -5q98 0 158.5 5t87.5 11l137 33q219 56 219 195zM1083 451 q0 -139 -125 -166q-23 -8 -83 -11.5t-154 -3.5q-100 0 -160.5 2t-81.5 9q-125 31 -125 170v786q0 137 125 170q23 8 83.5 10t158.5 2q94 0 154.5 -2t82.5 -10q125 -37 125 -170v-786zM989 385v291q0 129 -98 170q98 37 98 168v145q0 113 -80 162q-29 14 -75 22.5t-111 8.5 h-195q-72 0 -71 -47v-920q0 -47 71 -47q74 0 74 47v438h121q80 0 104 -37q16 -23 17 -110v-291q0 -47 69 -47q76 0 76 47zM844 1014q0 -41 -4 -68.5t-17 -44.5q-18 -31 -100 -31h-121v435h121q82 0 100 -35q20 -20 21 -111v-145z" />
<glyph unicode="&#xb4;" horiz-adv-x="563" d="M483 1659q0 41 -77 35q-111 -4 -150 -80l-131 -197q-4 -12 -8 -21.5t-4 -19.5q0 -39 77 -39q111 4 154 82l129 197q10 23 10 43z" />
<glyph unicode="&#xb8;" horiz-adv-x="647" d="M569 -356v151q0 147 -180 160l33 98h-131l-58 -164h134q43 0 51 -26q8 -20 8 -68v-151q0 -63 -12 -78q-8 -10 -26.5 -14.5t-47.5 -4.5q-57 0 -71.5 20.5t-12.5 80.5q-4 31 -82 30q-61 0 -61 -30v-4q0 -162 227 -162q229 0 229 162z" />
<glyph unicode="&#xbb;" horiz-adv-x="968" d="M889 846q0 119 -49 192q-23 35 -64 67t-94 64l-188 107q-43 16 -43 -43q0 -47 28 -59l187 -107q51 -29 65 -61q23 -51 23 -160q0 -45 -2 -77t-9 -50q-20 -70 -77 -96l-187 -103q-29 -14 -28 -65q0 -61 43 -41l188 108q207 121 207 324zM551 846q0 119 -49 192 q-23 35 -64 67t-94 64l-192 107q-39 18 -39 -43q0 -47 28 -59l187 -107q51 -29 65 -61q23 -51 23 -160q0 -113 -23 -162q-14 -35 -65 -61l-187 -103q-29 -14 -28 -65q0 -61 39 -41l192 108q207 121 207 324z" />
<glyph unicode="&#xc2;" d="M856 1860q0 10 -2 20t-10 21l-127 196q-49 78 -154 82q-41 0 -59 -8q-76 -12 -111 -78l-129 -199q-10 -16 -10 -39q0 -39 74 -38q106 2 155 79l74 117l70 -108q49 -82 151 -82q78 -6 78 37zM999 82v1286q0 190 -133 268q-51 27 -127.5 41.5t-181.5 14.5q-219 0 -311 -54 q-133 -74 -133 -270v-1286q0 -80 120 -80q121 0 121 80v766h402v-766q0 -80 123 -80q120 0 120 80zM756 926h-402v442q0 162 41 207q33 37 162 37q123 0 158 -37q41 -41 41 -207v-442z" />
<glyph unicode="&#xce;" horiz-adv-x="538" d="M588 1860q0 10 -4 20l-9 21l-129 196q-49 80 -149 82q-43 0 -59 -8q-78 -12 -111 -78l-131 -199q-4 -10 -8 -19t-4 -20q0 -39 77 -38q100 2 154 79l72 117l73 -108q43 -82 150 -82q78 -6 78 37zM532 43q0 39 -43 39h-83v1530h81q39 0 39 37q0 43 -39 43h-405 q-43 0 -43 -43q0 -37 43 -37h80v-1530h-76q-35 0 -35 -39q0 -41 35 -41h403q43 0 43 41z" />
<glyph unicode="&#xe2;" d="M856 1210q0 10 -2 21.5t-10 21.5l-127 197q-49 78 -154 82q-41 0 -59 -8q-76 -16 -111 -80l-129 -197q-10 -18 -10 -39q0 -39 74 -39q109 4 155 80l74 117l70 -111q51 -82 151 -81q78 -1 78 36zM999 319v322q0 195 -133 268q-102 57 -309 58q-213 0 -311 -58 q-133 -74 -133 -268q0 -78 120 -78q121 0 121 78v4q0 158 41 203q37 35 162 35q121 0 158 -35q41 -41 41 -207q0 -119 -199 -119q-444 0 -444 -203q0 -193 135 -262q104 -57 309 -57t307 57q135 69 135 262zM756 319q0 -72 -5.5 -117.5t-21.5 -66.5q-39 -57 -172 -57 q-66 0 -108.5 13t-63.5 42q-31 47 -31 186q0 123 203 123q59 0 109.5 2t89.5 9v-134z" />
<glyph unicode="&#xee;" horiz-adv-x="436" d="M520 1210q0 10 -4 22l-8 21l-129 197q-49 80 -150 82q-43 0 -59 -8q-78 -16 -111 -80l-131 -197l-8 -20q-4 -10 -4 -19q0 -39 78 -39q104 4 153 80l72 117l74 -111q45 -82 149 -81q78 -1 78 36zM342 78v805q0 84 -123 84q-121 0 -121 -84v-805q0 -78 121 -78 q123 0 123 78z" />
<glyph unicode="&#x162;" horiz-adv-x="923" d="M690 -391v151q0 147 -180 160l33 98h-131l-58 -164h134q43 0 51 -26q8 -20 8 -68v-151q0 -63 -12 -78q-8 -10 -26.5 -14.5t-47.5 -4.5q-57 0 -71.5 20.5t-12.5 80.5q-4 31 -82 30q-61 0 -61 -30v-4q0 -162 227 -162q229 0 229 162zM920 1649q0 41 -43 41h-801 q-43 0 -43 -41q0 -37 43 -37h280v-1530q0 -82 121 -82q119 0 119 82v1530h281q43 0 43 37z" />
<glyph unicode="&#x163;" horiz-adv-x="716" d="M446 -397v151q0 147 -180 160l33 98h-131l-58 -164h134q43 0 51 -26q8 -20 8 -68v-151q0 -63 -12 -78q-8 -10 -26.5 -14.5t-47.5 -4.5q-57 0 -71.5 20.5t-12.5 80.5q-4 31 -82 30q-61 0 -61 -30v-4q0 -162 227 -162q229 0 229 162zM717 942q0 39 -41 39h-322v461 q0 82 -121 82t-120 -82v-1370q0 -78 120 -78q121 0 121 78v827h322q41 0 41 43z" />
<glyph unicode="&#x218;" d="M678 -295v82q0 80 -121 80t-120 -80v-82q0 -74 100 -80l-76 -203q-12 -39 45 -38q63 0 76 38l90 242v8v4q2 6 4 14.5t2 14.5zM999 309v293q0 190 -133 268q-51 27 -127.5 41.5t-181.5 14.5q-133 0 -172 55q-14 20 -22.5 66.5t-8.5 117.5v217q0 139 31 187q41 57 172 57 q133 0 172 -57q16 -23 21.5 -69t5.5 -118q0 -82 123 -82q121 0 120 82q0 188 -120 263q-100 59 -322 59q-223 0 -324 -59q-121 -72 -120 -263v-217q0 -193 135 -266q47 -29 125 -41t184 -12q123 0 158 -37q41 -41 41 -207v-293q0 -137 -29 -184q-39 -53 -170 -53 q-133 0 -172 53q-14 20 -22.5 66.5t-8.5 117.5q0 84 -121 84t-120 -84q0 -193 135 -262q104 -57 309 -57q207 0 309 57q133 72 133 262z" />
<glyph unicode="&#x219;" d="M678 -285v82q0 80 -121 80t-120 -80v-82q0 -74 100 -80l-76 -203q-12 -39 45 -38q63 0 76 38l90 242v8v4q2 6 4 14.5t2 14.5zM999 319q0 201 -442 201q-203 0 -203 121q0 162 41 207q37 35 162 35q121 0 158 -35q41 -41 41 -207q0 -78 123 -78q121 0 120 78 q0 190 -120 262q-98 59 -322 60q-219 0 -311 -54q-133 -74 -133 -268q0 -199 444 -199q199 0 199 -123q0 -72 -5.5 -117.5t-21.5 -66.5q-39 -57 -172 -57q-66 0 -108.5 13t-63.5 42q-31 47 -31 186q0 80 -121 80t-120 -80q0 -193 133 -266q92 -53 311 -53t322 59 q120 72 120 260z" />
<glyph unicode="&#x2c6;" horiz-adv-x="796" d="M717 1378q0 12 -4 23l-8 20l-130 199q-25 39 -61.5 60.5t-87.5 21.5q-39 0 -59 -10q-78 -12 -111 -78l-131 -197q-4 -12 -8 -21.5t-4 -19.5q0 -39 77 -39q102 4 154 82l72 115l73 -111q43 -76 150 -80q78 0 78 35z" />
<glyph unicode="&#x2dc;" horiz-adv-x="944" d="M864 1526q2 6 3 11t1 11q0 43 -26 43q-12 0 -21 -20q-33 -84 -106 -84q-57 0 -172 94q-115 98 -181 98q-162 0 -249 -217q-14 -39 6 -57q23 -25 37 12q29 84 104 84q53 0 174 -96q115 -96 180 -96q160 0 250 217z" />
<glyph unicode="&#x2000;" horiz-adv-x="1089" />
<glyph unicode="&#x2001;" horiz-adv-x="2179" />
<glyph unicode="&#x2002;" horiz-adv-x="1089" />
<glyph unicode="&#x2003;" horiz-adv-x="2179" />
<glyph unicode="&#x2004;" horiz-adv-x="724" />
<glyph unicode="&#x2005;" horiz-adv-x="544" />
<glyph unicode="&#x2006;" horiz-adv-x="362" />
<glyph unicode="&#x2007;" horiz-adv-x="362" />
<glyph unicode="&#x2008;" horiz-adv-x="272" />
<glyph unicode="&#x2009;" horiz-adv-x="434" />
<glyph unicode="&#x200a;" horiz-adv-x="120" />
<glyph unicode="&#x2010;" horiz-adv-x="772" d="M715 555q0 39 -39 39h-570q-43 0 -43 -39t43 -39h570q39 0 39 39z" />
<glyph unicode="&#x2011;" horiz-adv-x="772" d="M715 555q0 39 -39 39h-570q-43 0 -43 -39t43 -39h570q39 0 39 39z" />
<glyph unicode="&#x2012;" horiz-adv-x="772" d="M715 555q0 39 -39 39h-570q-43 0 -43 -39t43 -39h570q39 0 39 39z" />
<glyph unicode="&#x2013;" horiz-adv-x="958" d="M940 848q0 39 -39 39h-807q-43 0 -43 -39t43 -39h807q39 0 39 39z" />
<glyph unicode="&#x2014;" horiz-adv-x="1269" d="M1251 848q0 39 -41 39h-1116q-43 0 -43 -39t43 -39h1116q41 0 41 39z" />
<glyph unicode="&#x2018;" horiz-adv-x="434" d="M354 1294v82q0 35 -24.5 56.5t-75.5 23.5l74 203q16 39 -45 39q-63 0 -74 -39l-52 -142l-30 -75q-10 -25 -11 -30t3 -7q-6 -12 -6 -29v-82q0 -80 120 -80q121 0 121 80z" />
<glyph unicode="&#x2019;" horiz-adv-x="434" d="M354 1534v82q0 82 -121 82t-120 -82v-82q0 -76 100 -78l-76 -203q-12 -39 45 -39q63 0 76 39l90 254q2 4 4 12.5t2 14.5z" />
<glyph unicode="&#x201a;" horiz-adv-x="434" d="M354 90v82q0 80 -121 80t-120 -80v-82q0 -74 100 -80l-76 -203q-12 -39 45 -38q63 0 76 38l90 242v8v4q2 6 4 14.5t2 14.5z" />
<glyph unicode="&#x201c;" horiz-adv-x="772" d="M692 1294v82q0 35 -24.5 56.5t-75.5 23.5l74 203q16 39 -45 39q-63 0 -74 -39l-57 -146q-19 -49 -27 -71.5t-8 -26.5t2 -10q-6 -12 -6 -29v-82q0 -80 120 -80q121 0 121 80zM354 1294v82q0 35 -24.5 56.5t-75.5 23.5l74 203q16 39 -45 39q-63 0 -74 -39l-52 -142l-30 -75 q-10 -25 -11 -30t3 -7q-6 -12 -6 -29v-82q0 -80 120 -80q121 0 121 80z" />
<glyph unicode="&#x201d;" horiz-adv-x="772" d="M692 1534v82q0 82 -121 82t-120 -82v-82q0 -76 100 -78l-76 -203q-12 -39 45 -39q63 0 76 39l90 254q2 4 4 12.5t2 14.5zM354 1534v82q0 82 -121 82t-120 -82v-82q0 -76 100 -78l-76 -203q-12 -39 45 -39q63 0 76 39l90 254q2 4 4 12.5t2 14.5z" />
<glyph unicode="&#x201e;" horiz-adv-x="772" d="M692 90v82q0 80 -121 80t-120 -80v-82q0 -74 100 -80l-76 -203q-12 -39 45 -38q63 0 76 38l90 242v8v4q2 6 4 14.5t2 14.5zM354 90v82q0 80 -121 80t-120 -80v-82q0 -74 100 -80l-76 -203q-12 -39 45 -38q63 0 76 38l90 242v8v4q2 6 4 14.5t2 14.5z" />
<glyph unicode="&#x2026;" horiz-adv-x="1304" d="M1225 90v82q0 80 -123 80q-121 0 -121 -80v-82q0 -80 121 -80q123 0 123 80zM784 90v82q0 80 -122 80q-119 0 -119 -80v-82q0 -80 119 -80q122 0 122 80zM354 90v82q0 80 -121 80t-120 -80v-82q0 -80 120 -80q121 0 121 80z" />
<glyph unicode="&#x202f;" horiz-adv-x="434" />
<glyph unicode="&#x2039;" horiz-adv-x="630" d="M551 455q0 51 -27 65l-190 103q-55 27 -76 96q-6 18 -8 50t-2 77q0 109 22 160q14 33 64 61l190 107q27 12 27 59q0 59 -43 43l-186 -107q-55 -33 -95.5 -64.5t-62.5 -66.5q-51 -72 -51 -192q0 -205 209 -324l186 -108q43 -20 43 41z" />
<glyph unicode="&#x203a;" horiz-adv-x="630" d="M551 846q0 119 -49 192q-23 35 -64 67t-94 64l-192 107q-39 18 -39 -43q0 -47 28 -59l187 -107q51 -29 65 -61q23 -51 23 -160q0 -113 -23 -162q-14 -35 -65 -61l-187 -103q-29 -14 -28 -65q0 -61 39 -41l192 108q207 121 207 324z" />
<glyph unicode="&#x205f;" horiz-adv-x="544" />
<glyph unicode="&#x2122;" horiz-adv-x="1828" d="M1749 922v417q0 90 -90 123q-35 10 -95.5 17.5t-146.5 7.5q-156 0 -223 -21q-68 20 -223 21q-86 0 -147.5 -7t-98.5 -18q-86 -31 -86 -123v-417q0 -49 109 -50q111 0 110 50v417q0 35 6 53.5t17 26.5q8 2 28.5 4t61.5 2t62.5 -2t27.5 -4q23 -16 22 -80v-417 q0 -49 111 -50q111 0 111 50v417q0 66 22 80q4 2 27.5 4t62.5 2t62.5 -2t29.5 -4q23 -16 23 -80v-417q0 -49 106 -50q111 1 111 50zM768 1571q0 31 -49 31h-635q-47 0 -47 -31t47 -31h209v-618q0 -49 110 -50q106 0 107 50v618h209q49 0 49 31z" />
<glyph unicode="&#xe000;" horiz-adv-x="975" d="M0 975h975v-975h-975v975z" />
<glyph unicode="&#xfb01;" horiz-adv-x="1150" d="M1071 1204v82q0 82 -121 82t-120 -82v-82q0 -78 120 -78q121 0 121 78zM1071 78v805q0 84 -121 84t-120 -84v-805q0 -78 120 -78q121 0 121 78zM797 1649q0 43 -41 43h-199q-219 0 -311 -54q-133 -74 -133 -270v-1286q0 -80 120 -80q121 0 121 80v821h363q39 0 39 41 t-39 41h-363v383q0 162 41 207q33 37 162 37h199q41 0 41 37z" />
<glyph unicode="&#xfb02;" horiz-adv-x="1150" d="M1071 78v1530q0 82 -121 82t-120 -82v-1530q0 -78 120 -78q121 0 121 78zM797 1649q0 43 -41 43h-199q-219 0 -311 -54q-133 -74 -133 -270v-1286q0 -80 120 -80q121 0 121 80v821h363q39 0 39 41t-39 41h-363v383q0 162 41 207q33 37 162 37h199q41 0 41 37z" />
<glyph unicode="&#xfb03;" horiz-adv-x="1867" d="M1788 1204v82q0 82 -121 82t-120 -82v-82q0 -78 120 -78q121 0 121 78zM1788 78v805q0 84 -121 84t-120 -84v-805q0 -78 120 -78q121 0 121 78zM1514 1649q0 43 -41 43h-199q-219 0 -311 -54q-133 -74 -133 -270v-1286q0 -80 120 -80q121 0 121 80v821h363q39 0 39 41 t-39 41h-363v383q0 162 41 207q33 37 162 37h199q41 0 41 37zM797 1649q0 43 -41 43h-199q-219 0 -311 -54q-133 -74 -133 -270v-1286q0 -80 120 -80q121 0 121 80v821h363q39 0 39 41t-39 41h-363v383q0 162 41 207q33 37 162 37h199q41 0 41 37z" />
<glyph unicode="&#xfb04;" horiz-adv-x="1867" d="M1788 78v1530q0 82 -121 82t-120 -82v-1530q0 -78 120 -78q121 0 121 78zM1514 1649q0 43 -41 43h-199q-219 0 -311 -54q-133 -74 -133 -270v-1286q0 -80 120 -80q121 0 121 80v821h363q39 0 39 41t-39 41h-363v383q0 162 41 207q33 37 162 37h199q41 0 41 37zM797 1649 q0 43 -41 43h-199q-219 0 -311 -54q-133 -74 -133 -270v-1286q0 -80 120 -80q121 0 121 80v821h363q39 0 39 41t-39 41h-363v383q0 162 41 207q33 37 162 37h199q41 0 41 37z" />
</font>
</defs>
</svg>
