<?xml version="1.0" encoding="UTF-8" standalone="no"?>
<svg id="svg5" height="400" width="500" version="1.1" xmlns="http://www.w3.org/2000/svg" xmlns:svg="http://www.w3.org/2000/svg" xmlns:rdf="http://www.w3.org/1999/02/22-rdf-syntax-ns#" xmlns:cc="http://creativecommons.org/ns#" xmlns:dc="http://purl.org/dc/elements/1.1/">
  <metadata id="metadata11">
    <rdf:RDF>
      <cc:Work rdf:about="">
        <dc:format>image/svg+xml</dc:format>
        <dc:type rdf:resource="http://purl.org/dc/dcmitype/StillImage" />
      </cc:Work>
    </rdf:RDF>
  </metadata>
  <defs id="defs9" />
  <rect style="fill:#ffffff;fill-rule:evenodd;stop-color:#000000" id="rect853" width="500" height="400" x="0" y="0" />
  <g transform="matrix(1.6435234,0,0,1.6435234,162.39603,594.41745)" id="g882">
    <g aria-label="BIWA" id="text838" style="font-weight:bold;font-size:40.2815px;line-height:1.25;font-family:Bicubik;-inkscape-font-specification:'Bicubik Bold';letter-spacing:0px;word-spacing:0px;stroke-width:0.755281">
      <path id="path3896" style="stroke-width:1.24132" d="M 160.95703 241.25977 L 160.95703 287.60156 L 194.05859 287.60156 C 201.4734 287.40296 207.29883 281.51131 207.29883 274.36133 C 207.29883 270.38911 205.77604 267.07978 202.79688 264.43164 C 205.77604 261.7835 207.29883 258.47222 207.29883 254.5 C 207.29883 247.15141 201.00997 241.25977 194.05859 241.25977 L 160.95703 241.25977 z M 213.25781 241.25977 L 213.25781 287.60156 L 219.87695 287.60156 L 219.87695 241.25977 L 213.25781 241.25977 z M 226.49805 241.25977 L 226.49805 274.36133 C 226.49805 281.84233 232.6545 287.60156 239.73828 287.60156 L 246.35938 287.60156 C 250.33159 287.60156 253.64092 286.07877 256.28906 283.09961 C 258.93721 286.07877 262.24849 287.60156 266.2207 287.60156 L 272.83984 287.60156 C 280.25465 287.60156 286.08008 281.37891 286.08008 274.36133 L 286.08008 241.25977 L 279.46094 241.25977 L 279.46094 274.36133 C 279.46094 278.00254 276.48104 280.98242 272.83984 280.98242 L 266.2207 280.98242 C 262.57951 280.98242 259.59961 278.00254 259.59961 274.36133 L 259.59961 241.25977 L 252.97852 241.25977 L 252.97852 274.36133 C 252.97852 278.00254 250.00057 280.98242 246.35938 280.98242 L 239.73828 280.98242 C 236.09708 280.98242 233.11719 278.00254 233.11719 274.36133 L 233.11719 241.25977 L 226.49805 241.25977 z M 305.94141 241.25977 C 298.5266 241.25977 292.70117 247.48242 292.70117 254.5 L 292.70117 287.60156 L 299.32227 287.60156 L 299.32227 274.36133 L 332.42383 274.36133 L 332.42383 287.60156 L 339.04297 287.60156 L 339.04297 254.5 C 338.84437 247.15141 332.88651 241.25977 325.80273 241.25977 L 305.94141 241.25977 z M 167.57617 247.88086 L 194.05859 247.88086 C 197.69979 247.88086 200.67773 250.85881 200.67773 254.5 C 200.67773 258.14119 197.69979 261.12109 194.05859 261.12109 L 167.57617 261.12109 L 167.57617 247.88086 z M 305.94141 247.88086 L 325.80273 247.88086 C 329.44394 247.88086 332.42383 250.85881 332.42383 254.5 L 332.42383 267.74023 L 299.32227 267.74023 L 299.32227 254.5 C 299.32227 250.85881 302.30021 247.88086 305.94141 247.88086 z M 167.57617 267.74023 L 194.05859 267.74023 C 197.69979 267.74023 200.67773 270.72013 200.67773 274.36133 C 200.67773 278.00254 197.69979 280.98242 194.05859 280.98242 L 167.57617 280.98242 L 167.57617 267.74023 z " transform="matrix(0.6084489,0,0,0.6084489,-98.809685,-361.67264)" />
    </g>
    <path id="path3923" style="font-weight:bold;font-size:22.8602px;line-height:1.25;font-family:Bicubik;-inkscape-font-specification:'Bicubik Bold';letter-spacing:0px;word-spacing:0px;stroke-width:0.70446" d="M 168.4707 296.96094 C 164.26272 296.96094 160.95703 300.49206 160.95703 304.47461 C 160.95703 308.72016 164.45058 311.99023 168.4707 311.99023 L 179.74219 311.99023 C 181.80861 311.99023 183.49805 313.67968 183.49805 315.74609 C 183.49805 317.81251 181.80861 319.50391 179.74219 319.50391 L 168.4707 319.50391 C 166.40428 319.50391 164.71289 317.81251 164.71289 315.74609 L 160.95703 315.74609 C 161.06975 319.99164 164.37543 323.26172 168.4707 323.26172 L 179.74219 323.26172 C 183.95017 323.26172 187.25586 319.72865 187.25586 315.74609 C 187.25586 311.57567 183.68717 308.23242 179.74219 308.23242 L 168.4707 308.23242 C 166.40428 308.23242 164.71289 306.54103 164.71289 304.47461 C 164.71289 302.40819 166.40428 300.71875 168.4707 300.71875 L 179.74219 300.71875 C 181.80861 300.71875 183.49805 302.40819 183.49805 304.47461 L 187.25586 304.47461 C 187.14315 300.30419 183.76231 296.96094 179.74219 296.96094 L 168.4707 296.96094 z M 197.77539 296.96094 C 193.56741 297.07368 190.26172 300.41691 190.26172 304.47461 L 190.26172 315.74609 C 190.26172 319.99164 193.75527 323.26172 197.77539 323.26172 L 209.04688 323.26172 C 213.25486 323.26172 216.5625 319.72865 216.5625 315.74609 L 212.80469 315.74609 C 212.80469 317.81251 211.1133 319.50391 209.04688 319.50391 L 197.77539 319.50391 C 195.70897 319.50391 194.01953 317.81251 194.01953 315.74609 L 194.01953 304.47461 C 194.01953 302.40819 195.70897 300.71875 197.77539 300.71875 L 209.04688 300.71875 C 211.1133 300.71875 212.80469 302.40819 212.80469 304.47461 L 216.5625 304.47461 C 216.44979 300.30419 213.067 296.96094 209.04688 296.96094 L 197.77539 296.96094 z M 219.56641 296.96094 L 219.56641 323.26172 L 223.32422 323.26172 L 223.32422 311.99023 L 242.10938 311.99023 L 242.10938 323.26172 L 245.86719 323.26172 L 245.86719 296.96094 L 242.10938 296.96094 L 242.10938 308.23242 L 223.32422 308.23242 L 223.32422 296.96094 L 219.56641 296.96094 z M 249.625 296.96094 L 249.625 323.26172 L 275.92383 323.26172 L 275.92383 319.50391 L 253.38086 319.50391 L 253.38086 311.99023 L 272.16797 311.99023 L 272.16797 308.23242 L 253.38086 308.23242 L 253.38086 300.71875 L 275.92383 300.71875 L 275.92383 296.96094 L 249.625 296.96094 z M 278.92969 296.96094 L 278.92969 323.26172 L 282.6875 323.26172 L 282.6875 303.68555 L 293.95898 319.95508 L 305.23047 303.68555 L 305.23047 323.26172 L 308.98633 323.26172 L 308.98633 296.96094 L 305.23047 296.96094 L 293.95898 313.22852 L 282.6875 296.96094 L 278.92969 296.96094 z M 312.74414 296.96094 L 312.74414 323.26172 L 339.04297 323.26172 L 339.04297 319.50391 L 316.50195 319.50391 L 316.50195 311.99023 L 335.28711 311.99023 L 335.28711 308.23242 L 316.50195 308.23242 L 316.50195 300.71875 L 339.04297 300.71875 L 339.04297 296.96094 L 312.74414 296.96094 z " transform="matrix(0.6084489,0,0,0.6084489,-98.809685,-361.67264)" />
    <g id="g871" transform="translate(-78.436314,-163.54566)">
      <path id="path858" style="font-style:normal;font-variant:normal;font-weight:normal;font-stretch:normal;font-size:53.3333px;line-height:1.25;font-family:Arial;-inkscape-font-specification:Arial;letter-spacing:0px;word-spacing:0px;stroke-width:2.98038" d="M 190.99609 76.738281 C 186.54621 76.738281 183.33927 76.9982 181.37305 77.515625 C 178.47543 78.343512 176.09517 79.558085 174.23242 81.162109 C 172.36968 82.714395 170.79162 84.810323 169.49805 87.449219 C 168.25622 90.088104 167.40122 93.581338 166.93555 97.927734 C 166.67675 100.67011 166.52236 106.36091 166.4707 115.00195 C 166.41896 123.64302 165.97828 129.75006 165.15039 133.32031 C 164.3225 136.89058 162.64087 139.7096 160.10547 141.7793 C 157.62181 143.79721 154.38848 144.8574 150.4043 144.96094 L 150.4043 157.61328 C 154.38848 157.71676 157.62181 158.80332 160.10547 160.87305 C 162.64087 162.94275 164.3225 165.76176 165.15039 169.33203 C 165.97836 172.90228 166.41904 179.34449 166.4707 188.6582 C 166.52244 197.97191 166.8576 204.67404 167.47852 208.76172 C 168.15117 212.8494 169.57485 216.21268 171.74805 218.85156 C 173.92125 221.54219 176.66306 223.48179 179.97461 224.67188 C 182.25129 225.49976 185.92529 225.91406 190.99609 225.91406 L 195.3418 225.91406 L 195.3418 213.72852 L 192.9375 213.72852 C 188.02195 213.72852 184.70948 213.02987 183.00195 211.63281 C 181.34619 210.23576 180.31044 207.77828 179.89648 204.25977 C 179.68953 202.34528 179.58789 196.34181 179.58789 186.25195 C 179.58789 175.12724 178.29417 167.13335 175.70703 162.26953 C 173.17161 157.35395 169.05694 153.70634 163.36523 151.32617 C 168.17733 148.99775 171.69693 146.33313 173.92188 143.33203 C 176.19855 140.33096 177.80105 136.06188 178.73242 130.52539 C 179.3016 126.95514 179.58789 118.39255 179.58789 104.83594 C 179.58789 98.109358 180.46732 93.787532 182.22656 91.873047 C 183.98583 89.906823 187.55625 88.923828 192.9375 88.923828 L 195.3418 88.923828 L 195.3418 76.738281 L 190.99609 76.738281 z M 304.6582 76.738281 L 304.6582 88.923828 L 307.0625 88.923828 C 311.97807 88.923828 315.26415 89.622482 316.91992 91.019531 C 318.62742 92.364843 319.66317 94.771499 320.02539 98.238281 C 320.28408 100.2045 320.41211 106.23241 320.41211 116.32227 C 320.41211 127.44697 321.62863 135.36365 324.06055 140.07227 C 326.49247 144.7291 330.68435 148.48031 336.63477 151.32617 C 332.08138 153.24067 328.56177 155.93167 326.07812 159.39844 C 323.59447 162.81347 321.9392 167.39327 321.11133 173.13672 C 320.64563 176.60349 320.41211 184.80452 320.41211 197.74023 C 320.41211 204.51855 319.53268 208.86481 317.77344 210.7793 C 316.01417 212.74552 312.44375 213.72852 307.0625 213.72852 L 304.6582 213.72852 L 304.6582 225.91406 L 309.00391 225.91406 C 313.45379 225.91406 316.66071 225.62972 318.62695 225.06055 C 321.52454 224.23266 323.90483 223.01614 325.76758 221.41211 C 327.63033 219.85982 329.18396 217.76388 330.42578 215.125 C 331.71935 212.53786 332.59878 209.04463 333.06445 204.64648 C 333.32319 201.90411 333.47758 196.21332 333.5293 187.57227 C 333.58103 178.93121 334.02171 172.85054 334.84961 169.33203 C 335.67751 165.76176 337.33276 162.94275 339.81641 160.87305 C 342.3518 158.80339 345.61152 157.71682 349.5957 157.61328 L 349.5957 144.96094 C 345.61152 144.85746 342.3518 143.77089 339.81641 141.70117 C 337.33276 139.63145 335.67751 136.83882 334.84961 133.32031 C 334.02158 129.75006 333.5809 123.30786 333.5293 113.99414 C 333.47756 104.68042 333.11601 97.980262 332.44336 93.892578 C 331.82245 89.804894 330.42516 86.415232 328.25195 83.724609 C 326.07876 81.033975 323.33691 79.118817 320.02539 77.980469 C 317.74868 77.152593 314.0747 76.738281 309.00391 76.738281 L 304.6582 76.738281 z M 226.85938 103.69922 L 226.85938 113.37109 L 232.73633 113.37109 C 237.10315 113.37109 240.24593 115.9437 242.16406 121.08594 L 246.69336 133.20508 L 216.63672 198.95312 L 228.57422 198.95312 L 252.20312 148.26562 L 271.42578 198.95312 L 283.36328 198.95312 L 251.71484 114.41211 C 249.14373 107.47417 243.24486 103.9447 234.02148 103.82227 L 226.85938 103.69922 z " transform="matrix(0.6084489,0,0,0.6084489,-20.373371,-198.12698)" />
    </g>
  </g>
</svg>
