<?xml version="1.0" encoding="UTF-8" standalone="no"?>
<svg id="svg2558" version="1.1" viewBox="0 0 132.29167 105.83334" height="105.83334mm" width="132.29167mm" xmlns:xlink="http://www.w3.org/1999/xlink" xmlns="http://www.w3.org/2000/svg" xmlns:svg="http://www.w3.org/2000/svg" xmlns:rdf="http://www.w3.org/1999/02/22-rdf-syntax-ns#" xmlns:cc="http://creativecommons.org/ns#" xmlns:dc="http://purl.org/dc/elements/1.1/">
  <defs id="defs2552" />
  <metadata id="metadata2555">
    <rdf:RDF>
      <cc:Work rdf:about="">
        <dc:format>image/svg+xml</dc:format>
        <dc:type rdf:resource="http://purl.org/dc/dcmitype/StillImage" />
      </cc:Work>
    </rdf:RDF>
  </metadata>
  <g transform="translate(204.74071,-109.15234)" id="layer1">
    <rect style="opacity:1;vector-effect:none;fill:#ffffff;fill-opacity:1;stroke:none;stroke-width:0.286051;stroke-linecap:butt;stroke-linejoin:miter;stroke-miterlimit:4;stroke-dasharray:none;stroke-dashoffset:0;stroke-opacity:1" id="rect1647-2" width="132.29167" height="105.83334" x="-204.74071" y="109.15234" />
    <g id="g3307" transform="translate(13.260178,1.0552561e-4)">
      <path id="path844" style="font-weight:bold;font-size:15.8797px;line-height:1.25;font-family:'Century Gothic';-inkscape-font-specification:'Century Gothic Bold';letter-spacing:0px;word-spacing:0px;stroke-width:1.12534" d="m 295.19922,277.9707 c -1.40667,0 -2.60909,0.49971 -3.60547,1.4961 -0.99641,0.99638 -1.49414,2.19685 -1.49414,3.60351 0,1.4653 0.49773,2.71649 1.49414,3.75196 1.01591,1.01591 2.23785,1.52343 3.66406,1.52343 1.38714,0 2.57979,-0.49775 3.57617,-1.49414 0.99639,-1.01593 1.49414,-2.23787 1.49414,-3.66406 10e-6,-1.44574 -0.5075,-2.67547 -1.52343,-3.69141 -0.99639,-1.01591 -2.19881,-1.52539 -3.60547,-1.52539 z m -156.05274,0.82227 v 15.82422 c -1.42619,-1.44575 -2.978,-2.53104 -4.6582,-3.25391 -1.68018,-0.72287 -3.47794,-1.08398 -5.39258,-1.08398 -4.16138,0 -7.69835,1.57327 -10.60937,4.71875 -2.91104,3.14547 -4.36719,7.18017 -4.36719,12.10351 0,4.74749 1.50497,8.72365 4.51367,11.92774 3.00871,3.18453 6.57494,4.77539 10.69727,4.77539 1.83647,0 3.53662,-0.32209 5.09961,-0.9668 1.58249,-0.66426 3.15383,-1.73786 4.71679,-3.22266 v 3.36915 h 7.97071 v -44.19141 z m 54.48047,0 v 44.19141 h 7.94141 v -3.36915 c 1.56299,1.4848 3.13431,2.5584 4.7168,3.22266 1.58251,0.64471 3.29243,0.9668 5.1289,0.9668 4.12233,0 7.68856,-1.59086 10.69727,-4.77539 3.0087,-3.20409 4.51367,-7.18025 4.51367,-11.92774 0,-4.92334 -1.45617,-8.95804 -4.36719,-12.10351 -2.91104,-3.14548 -6.44799,-4.71875 -10.60937,-4.71875 -1.91464,0 -3.7124,0.36111 -5.39258,1.08398 -1.6802,0.72287 -3.24176,1.80816 -4.6875,3.25391 V 278.79297 Z M 55.244141,290.2793 c -3.418986,0 -6.514789,0.74369 -9.289063,2.22851 -2.754721,1.4848 -4.903832,3.52655 -6.447266,6.125 -1.543407,2.59843 -2.314453,5.44051 -2.314453,8.52735 0,4.45445 1.581093,8.34276 4.746094,11.66406 3.184529,3.3213 7.580369,4.98047 13.1875,4.98047 6.23234,0 11.05953,-2.21745 14.478516,-6.65235 l -6.300781,-4.30664 c -1.992794,2.44216 -4.778234,3.66211 -8.353516,3.66211 -2.89149,0 -5.226042,-0.85884 -7.003906,-2.57812 -1.777865,-1.71926 -2.666016,-3.93671 -2.666016,-6.65235 0,-2.7938 0.917434,-5.07955 2.753906,-6.85742 1.856025,-1.79742 4.2784,-2.69726 7.267578,-2.69726 1.641096,0 3.067984,0.2557 4.279297,0.76367 1.230816,0.50797 2.472263,1.41563 3.722657,2.72461 l 6.652343,-3.66406 c -1.602041,-2.32492 -3.663329,-4.11096 -6.183593,-5.36133 -2.52029,-1.26992 -5.364296,-1.90625 -8.529297,-1.90625 z m 36.896484,0 c -4.161411,0 -7.844746,1.4464 -11.048828,4.33789 -3.653417,3.3213 -5.478516,7.47313 -5.478516,12.45508 0,4.64982 1.610375,8.60645 4.833985,11.86914 3.243162,3.24313 7.15099,4.86328 11.722656,4.86328 3.106394,0 5.948446,-0.732 8.527348,-2.19727 2.57887,-1.4848 4.61087,-3.53632 6.0957,-6.1543 1.50435,-2.61795 2.25781,-5.43072 2.25781,-8.43945 0,-2.98915 -0.74369,-5.77266 -2.22851,-8.35156 -1.4848,-2.5789 -3.55586,-4.62065 -6.21289,-6.125 -2.637511,-1.50435 -5.460049,-2.25781 -8.468755,-2.25781 z m 78.070315,0 c -4.72796,0 -8.66508,1.61232 -11.81055,4.83593 -3.12592,3.20409 -4.68945,7.23879 -4.68945,12.10352 0,4.74751 1.5733,8.70414 4.71875,11.86914 3.14547,3.14545 7.2192,4.7168 12.2207,4.7168 3.22361,0 6.00712,-0.56609 8.35156,-1.69922 2.34444,-1.15271 4.35691,-2.92117 6.03711,-5.30469 l -6.74023,-3.16406 c -2.14907,2.09046 -4.71786,3.13476 -7.70703,3.13476 -2.50074,0 -4.562,-0.66365 -6.1836,-1.99218 -1.60204,-1.34806 -2.58778,-3.1556 -2.95898,-5.42188 h 25.70117 l 0.0293,-1.52344 c 0,-5.27501 -1.5733,-9.51466 -4.71875,-12.71875 -3.14548,-3.22361 -7.22898,-4.83593 -12.25,-4.83593 z m 75.02148,0 c -1.46527,0 -2.81213,0.4099 -4.04297,1.23047 -1.23084,0.82056 -2.21853,2.02298 -2.96093,3.60546 v -4.01562 h -6.85743 l 0.002,31.88477 h 7.9414 v -12.89454 l -0.0293,-1.55273 c 0,-4.45445 0.41967,-7.44292 1.25976,-8.9668 0.85962,-1.5239 1.90393,-2.28711 3.13477,-2.28711 0.60565,0 1.37863,0.23424 2.3164,0.70313 l 2.49024,-6.88672 c -1.13315,-0.54705 -2.21844,-0.82031 -3.25391,-0.82031 z m 20.7207,0 c -4.16141,0 -7.69835,1.57327 -10.60937,4.71875 -2.91102,3.14547 -4.36719,7.18017 -4.36719,12.10351 0,4.74749 1.50497,8.72365 4.51367,11.92774 3.00871,3.18453 6.57494,4.77539 10.69727,4.77539 1.83647,0 3.5347,-0.32209 5.09766,-0.9668 1.58251,-0.66426 3.15579,-1.73786 4.71875,-3.22266 v 3.36915 h 7.9707 v -31.88477 h -7.9707 v 3.51758 c -1.4262,-1.44575 -2.97996,-2.53104 -4.66016,-3.25391 -1.68018,-0.72287 -3.47599,-1.08398 -5.39063,-1.08398 z m 57.93555,0 c -1.54343,0 -3.05619,0.30254 -4.54101,0.9082 -1.46528,0.5861 -3.10689,1.64211 -4.92383,3.16602 v -3.25391 h -7.97071 v 31.88477 h 7.97071 v -12.80665 c 0,-3.32129 0.11698,-5.48017 0.35156,-6.47656 0.44934,-1.91463 1.24964,-3.40788 2.40234,-4.48242 1.17221,-1.09407 2.56984,-1.64258 4.19141,-1.64258 1.25039,0 2.29468,0.33378 3.13477,0.99805 0.85961,0.64471 1.45691,1.59143 1.78906,2.8418 0.35167,1.25039 0.52734,3.78013 0.52734,7.58984 v 13.97852 h 7.91211 v -21.07032 c 0,-3.67297 -0.9272,-6.44671 -2.7832,-8.32226 -2.2077,-2.2077 -4.89555,-3.3125 -8.06055,-3.3125 z m 27.60742,0 c -3.02823,0 -5.52089,0.89985 -7.47461,2.69726 -1.93416,1.77787 -2.90039,3.92698 -2.90039,6.44727 0,3.9074 2.57854,7.15939 7.73633,9.75781 l 2.69727,1.34766 c 2.32491,1.1722 3.48633,2.37462 3.48633,3.60547 0,0.66426 -0.32209,1.24984 -0.9668,1.75781 -0.64474,0.50794 -1.49384,0.76172 -2.54883,0.76172 -0.97686,0 -2.1012,-0.33186 -3.37109,-0.9961 -1.2504,-0.68381 -2.34348,-1.57194 -3.28125,-2.66601 l -4.92383,5.36328 c 2.77425,3.63389 6.48689,5.44922 11.13672,5.44922 3.49714,0 6.28063,-0.94672 8.35156,-2.8418 2.09046,-1.8951 3.13477,-4.25894 3.13477,-7.0918 0,-2.12953 -0.57584,-3.98584 -1.72852,-5.56836 -1.15268,-1.58248 -3.27251,-3.13625 -6.35937,-4.66015 l -2.92969,-1.46485 c -1.2699,-0.62518 -2.07215,-1.11317 -2.4043,-1.46484 -0.31259,-0.3712 -0.46875,-0.77136 -0.46875,-1.20117 0,-0.56658 0.25375,-1.037 0.76172,-1.4082 0.50797,-0.39076 1.21263,-0.58594 2.11133,-0.58594 1.64112,0 3.46619,0.99744 5.47851,2.99023 l 4.95313,-4.95312 c -1.2699,-1.69973 -2.82369,-2.99974 -4.66016,-3.89844 -1.81697,-0.91825 -3.75915,-1.37695 -5.83008,-1.37695 z m -60.3125,0.82031 v 31.88477 h 8.03125 v -31.88477 z m -120.59179,5.94922 c 2.05137,0 3.84914,0.55825 5.39258,1.67187 1.56296,1.1136 2.60724,2.55805 3.13476,4.33594 h -17.31836 c 0.8987,-1.97327 1.8747,-3.34938 2.92969,-4.13086 1.6802,-1.25037 3.6341,-1.87695 5.86133,-1.87695 z m -39.85547,0.61523 c 2.53982,0 4.64013,0.86082 6.30078,2.58008 1.66065,1.71928 2.49023,3.96599 2.49023,6.74024 0,2.83288 -0.82958,5.12838 -2.49023,6.88671 -1.66065,1.73879 -3.7512,2.60743 -6.27149,2.60743 -2.44212,0 -4.50341,-0.88816 -6.18359,-2.66602 -1.66065,-1.77786 -2.49023,-4.04408 -2.49023,-6.79883 0,-2.73517 0.81981,-4.97213 2.46093,-6.71094 1.6411,-1.75833 3.70239,-2.63867 6.1836,-2.63867 z m 79.24219,0 c 2.50073,0 4.57176,0.88034 6.21289,2.63867 1.64109,1.73881 2.46093,3.97577 2.46093,6.71094 0,2.75475 -0.83935,5.02097 -2.51953,6.79883 -1.66065,1.77786 -3.71217,2.66602 -6.15429,2.66602 -2.52029,0 -4.61084,-0.86864 -6.27149,-2.60743 -1.66065,-1.75833 -2.49023,-4.05383 -2.49023,-6.88671 0,-2.77425 0.82958,-5.02096 2.49023,-6.74024 1.66065,-1.71926 3.7512,-2.58008 6.27149,-2.58008 z m 57.61523,0 c 2.53982,0 4.64013,0.86082 6.30078,2.58008 1.66065,1.71928 2.49024,3.96599 2.49024,6.74024 0,2.83288 -0.82959,5.12838 -2.49024,6.88671 -1.66065,1.73879 -3.75119,2.60743 -6.27148,2.60743 -2.44213,0 -4.50342,-0.88816 -6.1836,-2.66602 -1.66065,-1.77786 -2.49023,-4.04408 -2.49023,-6.79883 0,-2.73517 0.81984,-4.97213 2.46094,-6.71094 1.64112,-1.75833 3.70238,-2.63867 6.18359,-2.63867 z m -175.335938,0.14649 c 2.539818,0 4.620619,0.86082 6.242188,2.58007 1.64112,1.69973 2.46094,3.91716 2.46094,6.65235 0,2.73519 -0.82959,4.97215 -2.490237,6.71094 -1.660649,1.73881 -3.74145,2.60742 -6.242187,2.60742 -2.500763,0 -4.571795,-0.85887 -6.212891,-2.57813 -1.621569,-1.71928 -2.431641,-3.96598 -2.431641,-6.74023 0,-2.69611 0.819842,-4.90379 2.460938,-6.62305 1.660649,-1.73881 3.731681,-2.60937 6.21289,-2.60937 z" transform="matrix(0.26458333,0,0,0.26458333,-204.74071,109.15234)" />
      <g id="g3286">
        <path style="opacity:1;vector-effect:none;fill:#e0234e;fill-opacity:1;stroke:none;stroke-width:2;stroke-linecap:butt;stroke-linejoin:miter;stroke-miterlimit:4;stroke-dasharray:none;stroke-dashoffset:0;stroke-opacity:1" id="path1649" d="m -102.90039,296.66992 a 37.741502,37.741502 0 0 0 -9.21289,1.28125 l -172.93555,46.33789 a 37.741502,37.741502 0 0 0 -26.68359,26.6836 l -46.33985,172.9375 a 37.741502,37.741502 0 0 0 9.76563,36.45312 l 126.59961,126.59961 a 37.741502,37.741502 0 0 0 36.45312,9.76563 L -12.316406,670.38867 A 37.741502,37.741502 0 0 0 14.367188,643.70508 L 60.705078,470.76953 A 37.741502,37.741502 0 0 0 50.939453,434.31641 L -75.660156,307.7168 a 37.741502,37.741502 0 0 0 -27.240234,-11.04688 z" transform="matrix(0.09916301,0.02657065,-0.02657065,0.09916301,-123.59976,102.74535)" />
        <path style="fill:none;stroke:#ffffff;stroke-width:0.529167;stroke-linecap:butt;stroke-linejoin:miter;stroke-miterlimit:4;stroke-dasharray:none;stroke-opacity:1" d="m -138.30638,149.1042 h -13.51759" id="path1669" />
        <path style="fill:none;stroke:#ffffff;stroke-width:0.529167;stroke-linecap:butt;stroke-linejoin:miter;stroke-miterlimit:4;stroke-dasharray:none;stroke-opacity:1" d="m -151.82399,149.1041 6.75887,11.70654" id="path1667" />
        <path style="fill:none;stroke:#ffffff;stroke-width:0.529167;stroke-linecap:butt;stroke-linejoin:miter;stroke-miterlimit:4;stroke-dasharray:none;stroke-opacity:1" d="m -158.58277,160.81064 6.7588,-11.70644" id="path1677" />
        <path style="fill:none;stroke:#ffffff;stroke-width:0.529167;stroke-linecap:butt;stroke-linejoin:miter;stroke-miterlimit:4;stroke-dasharray:none;stroke-opacity:1" d="m -165.3416,149.10401 13.51763,-2e-5" id="path1675" />
        <path style="fill:none;stroke:#ffffff;stroke-width:0.529167;stroke-linecap:butt;stroke-linejoin:miter;stroke-miterlimit:4;stroke-dasharray:none;stroke-opacity:1" d="m -158.58266,137.39758 6.75869,11.70662" id="path1673" />
        <path style="fill:none;stroke:#ffffff;stroke-width:0.529167;stroke-linecap:butt;stroke-linejoin:miter;stroke-miterlimit:4;stroke-dasharray:none;stroke-opacity:1" d="m -145.06521,137.39756 -6.75876,11.70643" id="path1671" />
        <path style="fill:none;stroke:#ffffff;stroke-width:0.529167;stroke-linecap:butt;stroke-linejoin:miter;stroke-miterlimit:4;stroke-dasharray:none;stroke-opacity:1" d="m -165.3416,149.10401 6.75883,11.70663 h 13.51765 l 6.75874,-11.70644 -6.75883,-11.70664 -13.51745,2e-5 z" id="path1665" />
        <g style="fill:#ffffff;stroke:none" id="g3215">
          <use style="fill:#ffffff;stroke:none" x="0" y="0" xlink:href="#circle1651" id="use3190" transform="translate(13.517565,1.1970654e-4)" width="100%" height="100%" />
          <circle style="opacity:1;vector-effect:none;fill:#ffffff;fill-opacity:1;stroke:none;stroke-width:0.072379;stroke-linecap:butt;stroke-linejoin:miter;stroke-miterlimit:4;stroke-dasharray:none;stroke-dashoffset:0;stroke-opacity:1" id="circle1651" cx="-151.82397" cy="149.10399" r="1.3127996" />
          <use style="fill:#ffffff;stroke:none" height="100%" width="100%" transform="translate(6.758728,-11.706528)" id="use3198" xlink:href="#circle1651" y="0" x="0" />
          <use style="fill:#ffffff;stroke:none" x="0" y="0" xlink:href="#circle1651" id="use3200" transform="translate(-6.7587128,-11.706512)" width="100%" height="100%" />
          <use style="fill:#ffffff;stroke:none" height="100%" width="100%" transform="translate(-13.517654,6.1035156e-5)" id="use3202" xlink:href="#circle1651" y="0" x="0" />
          <use style="fill:#ffffff;stroke:none" x="0" y="0" xlink:href="#circle1651" id="use3204" transform="translate(-6.7588196,11.706696)" width="100%" height="100%" />
          <use style="fill:#ffffff;stroke:none" height="100%" width="100%" transform="translate(6.7588348,11.706558)" id="use3206" xlink:href="#circle1651" y="0" x="0" />
        </g>
      </g>
    </g>
  </g>
</svg>
