<?xml version="1.0" encoding="UTF-8" standalone="no"?>
<!-- Created with Inkscape (http://www.inkscape.org/) -->

<svg width="500" height="400" id="svg3547" version="1.1" xmlns="http://www.w3.org/2000/svg" xmlns:svg="http://www.w3.org/2000/svg" xmlns:rdf="http://www.w3.org/1999/02/22-rdf-syntax-ns#" xmlns:cc="http://creativecommons.org/ns#" xmlns:dc="http://purl.org/dc/elements/1.1/">
  <defs id="defs3549" />
  <metadata id="metadata3552">
    <rdf:RDF>
      <cc:Work rdf:about="">
        <dc:format>image/svg+xml</dc:format>
        <dc:type rdf:resource="http://purl.org/dc/dcmitype/StillImage" />
      </cc:Work>
    </rdf:RDF>
  </metadata>
  <g id="layer1" transform="translate(-135.44685,-346.45929)">
    <rect style="fill:#ffffff;fill-rule:evenodd;stop-color:#000000" id="rect853" width="500" height="400" x="135.44685" y="346.45929" />
    <g transform="matrix(1.1354671,0,0,1.1354671,381.68294,89.598729)" id="g3532">
      <g id="g3534" transform="translate(-140.15135,45.086236)">
        <path id="path3536" d="m 145.45428,261.79737 -79.687495,86.03125 h 21.4375 l 68.874985,-74.5625 z" style="fill:#ee8733;fill-opacity:1;fill-rule:evenodd;stroke:none" />
        <path id="path3538" d="m 157.45427,274.73487 -68.812485,74.46875 v 21.40625 l 78.687485,-85.1875 z" style="fill:#e3343b;fill-opacity:1;fill-rule:evenodd;stroke:none" />
        <path id="path3540" d="m 168.70427,286.92237 -80.062485,86.65625 v 19.96875 l 89.312485,-96.65625 z" style="fill:#4c343f;fill-opacity:1;fill-rule:evenodd;stroke:none" />
        <path id="path3542" d="m 179.32927,298.39112 -90.687485,98.125 v 22.0625 H 128.48553 V 369.3743 h 33.93749 v 49.20432 h 39.84375 v -70.75 h 22.84376 z" style="fill:#357a6d;fill-opacity:1;fill-rule:evenodd;stroke:none" />
      </g>
      <path id="path3167" style="font-weight:bold;font-size:30.4952px;line-height:0;font-family:'Media Gothic';-inkscape-font-specification:'Media Gothic Bold';baseline-shift:baseline;fill:#357a6d;stroke-width:1.13547;marker:none" d="M 132.43555 284.44727 C 127.16045 284.51489 123.42887 286.3734 121.24219 290.02539 C 120.06994 291.94156 119.48437 294.06087 119.48438 296.38281 C 119.48437 297.96084 119.76455 299.46064 120.32812 300.88086 C 120.98188 302.50396 121.91744 303.90198 123.13477 305.07422 C 125.43417 307.23837 128.54624 308.32031 132.46875 308.32031 C 137.69876 308.32031 141.45166 306.4492 143.72852 302.70703 C 144.90076 300.79086 145.48633 298.7268 145.48633 296.51758 C 145.48633 292.91067 144.2706 289.97022 141.83594 287.69336 C 139.53653 285.52922 136.40314 284.44727 132.43555 284.44727 z M 337.82617 284.44727 C 332.95685 284.44727 329.31446 285.99167 326.90234 289.08008 C 325.30178 291.15405 324.50195 293.58747 324.50195 296.38281 C 324.50195 298.43425 324.95374 300.30536 325.85547 301.99609 C 326.62194 303.48394 327.68061 304.73556 329.0332 305.75 C 331.31006 307.46328 334.24181 308.32031 337.82617 308.32031 C 339.62963 308.32031 341.17207 308.12738 342.45703 307.74414 C 343.76453 307.36091 345.3768 306.60567 347.29297 305.47852 C 348.23978 304.93748 348.93976 304.44305 349.39062 303.99219 L 347.5293 300.74609 C 346.51485 301.64782 345.64716 302.30125 344.92578 302.70703 C 342.8969 303.83419 340.74561 304.39648 338.46875 304.39648 C 335.76357 304.39648 333.59772 303.74304 331.97461 302.43555 C 330.05844 300.88006 329.10156 298.86256 329.10156 296.38281 C 329.10156 293.88052 330.05844 291.86301 331.97461 290.33008 C 333.59772 289.00003 335.76357 288.33594 338.46875 288.33594 C 340.74561 288.33594 342.8969 288.89823 344.92578 290.02539 C 345.66971 290.43116 346.5374 291.11853 347.5293 292.08789 L 349.39062 288.8418 C 348.91722 288.3233 348.21724 287.8056 347.29297 287.28711 C 345.35426 286.15995 343.74199 285.40471 342.45703 285.02148 C 341.17207 284.63825 339.62963 284.44727 337.82617 284.44727 z M 92.09375 284.85156 L 92.09375 307.91406 L 103.625 307.91406 C 105.72152 307.91406 107.43363 307.73373 108.76367 307.37305 C 110.11626 306.98981 111.30001 306.3577 112.31445 305.47852 C 114.68149 303.382 115.86523 300.35041 115.86523 296.38281 C 115.86523 294.10596 115.47065 292.12238 114.68164 290.43164 C 113.6672 288.29004 112.11214 286.74564 110.01562 285.79883 C 108.52778 285.16761 106.39781 284.85156 103.625 284.85156 L 92.09375 284.85156 z M 150.72852 284.85156 L 150.72852 307.91406 L 154.82031 307.91406 L 154.82031 291.98633 L 163.57812 307.60938 L 172.84375 291.98633 L 172.84375 307.91406 L 177.33984 307.91406 L 177.33984 284.85156 L 172.09961 284.85156 L 164.01758 298.68164 L 156.3418 284.85156 L 150.72852 284.85156 z M 184.17188 284.85156 L 184.17188 307.91406 L 205.27148 307.91406 L 205.27148 304.12695 L 188.66797 304.12695 L 188.66797 297.80273 L 199.79297 297.80273 L 199.79297 294.11719 L 188.66797 294.11719 L 188.66797 288.63867 L 204.86523 288.63867 L 204.86523 284.85156 L 184.17188 284.85156 z M 210.47852 284.85156 L 210.47852 307.91406 L 214.97656 307.91406 L 214.97656 299.9668 L 218.76367 297.12695 L 227.62305 307.91406 L 233.13477 307.91406 L 222.04297 294.18555 L 233.13477 284.85156 L 227.18359 284.85156 L 214.97656 294.69336 L 214.97656 284.85156 L 210.47852 284.85156 z M 243.95508 284.85156 L 243.95508 288.63867 L 252.88281 288.63867 L 252.88281 307.91406 L 257.38086 307.91406 L 257.38086 288.63867 L 266.30664 288.63867 L 266.30664 284.85156 L 243.95508 284.85156 z M 270.19531 284.85156 L 270.19531 307.91406 L 274.69336 307.91406 L 274.69336 299.9668 L 278.48047 297.12695 L 287.33984 307.91406 L 292.85156 307.91406 L 281.75977 294.18555 L 292.85156 284.85156 L 286.90039 284.85156 L 274.69336 294.69336 L 274.69336 284.85156 L 270.19531 284.85156 z M 306.61523 284.85156 L 295.92969 307.91406 L 300.05469 307.91406 L 302.99609 302.0293 L 313.81641 302.0293 L 316.75781 307.91406 L 321.56055 307.91406 L 310.60352 284.85156 L 306.61523 284.85156 z M 353.51562 284.85156 L 353.51562 288.63867 L 367.10938 288.63867 L 353.41406 306.73047 L 353.41406 307.91406 L 374.81836 307.91406 L 374.81836 304.12695 L 360.78516 304.12695 L 374.61523 285.79883 L 374.61523 284.85156 L 353.51562 284.85156 z M 379.89062 284.85156 L 379.89062 307.91406 L 384.38867 307.91406 L 384.38867 299.9668 L 388.17578 297.12695 L 397.03516 307.91406 L 402.54688 307.91406 L 391.45508 294.18555 L 402.54688 284.85156 L 396.5957 284.85156 L 384.38867 294.69336 L 384.38867 284.85156 L 379.89062 284.85156 z M 407.65234 284.85156 L 407.65234 307.91406 L 412.15039 307.91406 L 412.15039 284.85156 L 407.65234 284.85156 z M 132.46875 288.33594 C 134.74561 288.35848 136.65066 289.01191 138.18359 290.29688 C 139.98705 291.80727 140.88867 293.86937 140.88867 296.48438 C 140.88867 297.54391 140.67441 298.58126 140.24609 299.5957 C 139.77269 300.72286 139.08532 301.66908 138.18359 302.43555 C 136.6732 303.74304 134.77881 304.39648 132.50195 304.39648 C 130.20255 304.39648 128.2975 303.74304 126.78711 302.43555 C 124.98365 300.90261 124.08203 298.88511 124.08203 296.38281 C 124.08203 293.88052 124.98365 291.85235 126.78711 290.29688 C 128.2975 288.98937 130.19189 288.33594 132.46875 288.33594 z M 96.591797 288.63867 L 103.18555 288.63867 C 104.74102 288.63867 106.0033 288.79768 106.97266 289.11328 C 107.94201 289.42889 108.76511 289.94659 109.44141 290.66797 C 110.65874 291.99802 111.26562 293.90307 111.26562 296.38281 C 111.26563 299.80937 110.13908 302.109 107.88477 303.28125 C 106.82524 303.84483 105.25952 304.12695 103.18555 304.12695 L 96.591797 304.12695 L 96.591797 288.63867 z M 308.47461 290.66797 L 312.59961 298.88477 L 304.28125 298.88477 L 308.47461 290.66797 z " transform="matrix(0.88069483,0,0,0.88069483,-216.85885,226.21577)" />
      <path id="path3548" d="m -51.509565,441.60236 v 22.0625 h 39.843745 v -49.20432 h 33.93749 v 49.20432 h 39.84375 v -70.75 C 34.718685,381.64322 1.5062118,392.42262 -51.509565,441.60236 Z" style="fill:#357a6d;fill-opacity:1;fill-rule:evenodd;stroke:none" />
    </g>
  </g>
</svg>
