<?xml version="1.0" encoding="UTF-8" standalone="no"?>
<!-- Created with Inkscape (http://www.inkscape.org/) -->

<svg width="499.12018" height="399.12018" id="svg2" version="1.1" xmlns="http://www.w3.org/2000/svg" xmlns:svg="http://www.w3.org/2000/svg" xmlns:rdf="http://www.w3.org/1999/02/22-rdf-syntax-ns#" xmlns:cc="http://creativecommons.org/ns#" xmlns:dc="http://purl.org/dc/elements/1.1/">
  <defs id="defs4" />
  <metadata id="metadata7">
    <rdf:RDF>
      <cc:Work rdf:about="">
        <dc:format>image/svg+xml</dc:format>
        <dc:type rdf:resource="http://purl.org/dc/dcmitype/StillImage" />
      </cc:Work>
    </rdf:RDF>
  </metadata>
  <g id="layer1" transform="translate(-98.617416,-558.10699)">
    <rect style="fill:#ffffff;fill-rule:evenodd;stroke:none;stroke-width:0.879815;stop-color:#000000" id="rect2092" width="499.12018" height="399.12018" x="98.617416" y="558.10699" />
    <g id="g2176" transform="translate(-720.20736,-379.49085)">
      <path id="path3048" style="color:#000000;display:inline;overflow:visible;visibility:visible;fill:#d32e06;fill-opacity:1;fill-rule:nonzero;stroke:none;stroke-width:1.242;marker:none;enable-background:accumulate" d="m 1048.8184,518.09375 a 107.42857,107.42857 0 0 0 -35.7989,6.41406 l 52.8731,52.87305 -5.2891,5.28906 -55.289,-55.28906 a 107.42857,107.42857 0 0 0 -19.20708,11.23242 l 38.75198,38.75195 -5.2891,5.28711 -39.51171,-39.51172 a 107.42857,107.42857 0 0 0 -15.0039,15.46876 l 59.80471,59.80468 -5.2891,5.28711 -59.04296,-59.04297 a 107.42857,107.42857 0 0 0 -10.72461,19.71485 l 34.02344,34.02343 -5.28906,5.28907 -31.60938,-31.60938 a 107.42857,107.42857 0 0 0 -5.53711,33.44531 107.42857,107.42857 0 0 0 5.97657,34.62305 l 51.67969,-51.67969 5.28712,5.28907 -54.09377,54.09375 a 107.42857,107.42857 0 0 0 10.99415,19.47851 l 37.82812,-37.82812 5.2891,5.28906 -38.58988,38.58789 a 107.42857,107.42857 0 0 0 15.22266,15.21875 l 59.09372,-59.0957 5.2891,5.28906 -58.33595,58.33398 a 107.42857,107.42857 0 0 0 19.46285,10.97852 l 33.584,-33.58399 5.2891,5.28711 -31.1699,31.16993 a 107.42857,107.42857 0 0 0 34.6211,5.97656 107.42857,107.42857 0 0 0 33.4472,-5.53711 l -52.1191,-52.11719 5.289,-5.28906 54.5333,54.5332 a 107.42857,107.42857 0 0 0 19.7128,-10.72461 l -38.5175,-38.51953 5.2871,-5.28906 39.2793,39.2793 a 107.42857,107.42857 0 0 0 15.4687,-15.00391 l -60.0195,-60.01953 5.2891,-5.28711 59.2578,59.25781 a 107.42857,107.42857 0 0 0 11.2324,-19.20703 l -34.7637,-34.76367 5.2891,-5.28711 32.3476,32.3457 a 107.42857,107.42857 0 0 0 6.416,-35.79883 107.42857,107.42857 0 0 0 -5.8144,-34.78515 l -53.457,53.45703 -5.2891,-5.28711 55.8027,-55.80273 a 107.42857,107.42857 0 0 0 -10.9277,-19.51172 l -39.5859,39.58593 -5.2891,-5.28906 40.3262,-40.32617 a 107.42857,107.42857 0 0 0 -15.2188,-15.2207 l -60.8359,60.83593 -5.2871,-5.28906 60.0976,-60.0957 a 107.42857,107.42857 0 0 0 -19.5312,-10.94336 l -35.2949,35.29492 -5.2872,-5.28906 32.9473,-32.94727 a 107.42857,107.42857 0 0 0 -34.7851,-5.81445 z m -8.7403,49.33984 5.2891,5.28711 -30.457,30.45703 -5.2872,-5.28906 z m -4.6426,20.50782 30.4571,30.45507 -5.2891,5.28907 -30.457,-30.45703 z m 41.0333,0.0156 30.4394,30.43945 -5.2891,5.28907 -30.4394,-30.43946 z m -36.3731,20.50781 5.2871,5.28907 -30.4551,30.45703 -5.289,-5.28906 z m 41.0156,0 5.2891,5.28907 -30.457,30.45703 -5.2872,-5.28906 z m -86.70896,20.50977 30.45706,30.45508 -5.2891,5.28906 -30.45507,-30.45703 z m 41.03316,0.0156 30.4395,30.43946 -5.2871,5.28906 -30.4414,-30.43945 z m 45.6758,20.49219 5.2891,5.28711 -30.457,30.45703 -5.2872,-5.28906 z" transform="translate(19.565558,486.59836)" />
      <path id="path1768" style="font-weight:bold;font-size:31.7548px;line-height:1.25;font-family:Diavlo;-inkscape-font-specification:'Diavlo Bold';letter-spacing:0px;word-spacing:0px;fill:#d32e06" d="m 1023.4414,757.8125 c 0.5716,0.9526 -0.1901,1.84258 -1.6191,3.27148 l -1.0489,1.04688 c -1.3972,1.3972 1.9375,2.16016 1.9375,2.16016 l 1.8731,-1.39649 c 2.5086,-1.8736 2.0012,-4.66923 -1.1426,-5.08203 z m 35.5332,0.57227 v 22.41796 c 0,2.064 4.1289,2.06446 4.1289,2.06446 v -7.6836 c 6.5415,1.0796 4.0652,7.6836 8.4473,7.6836 0.6351,0 2.3496,-0.41211 2.3496,-0.41211 -1.937,-3.493 -2.0966,-7.33653 -6.8281,-9.01953 2.8579,-1.1432 3.939,-4.60278 5.6855,-6.98438 -0.6986,-0.2223 -1.4937,-0.38281 -2.2558,-0.38281 -1.2384,0 -2.4456,0.41354 -3.0489,1.55664 -1.429,2.6992 -2.4761,4.09701 -4.3496,4.38281 v -11.55859 c 0,-2.064 -4.1289,-2.06445 -4.1289,-2.06445 z m 65.0352,0 v 22.41796 c 0,2.064 4.1269,2.06446 4.1269,2.06446 v -7.6836 c 6.5415,1.0796 4.0651,7.6836 8.4473,7.6836 0.6351,0 2.3496,-0.41211 2.3496,-0.41211 -1.937,-3.493 -2.0967,-7.33653 -6.8281,-9.01953 2.8579,-1.1432 3.939,-4.60278 5.6855,-6.98438 -0.6986,-0.2223 -1.4937,-0.38281 -2.2558,-0.38281 -1.2385,0 -2.4435,0.41354 -3.0469,1.55664 -1.4289,2.6992 -2.478,4.09701 -4.3516,4.38281 v -11.55859 c 0,-2.064 -4.1269,-2.06445 -4.1269,-2.06445 z m -85.1993,1.04687 c 0,1.6512 0.3819,3.65234 3.0176,3.65234 h 3.9063 v 17.81446 c 0,2.0641 4.2539,2.06445 4.2539,2.06445 v -19.87891 h 4.0019 c 2.6357,0 3.0157,-2.00114 3.0157,-3.65234 0,0 -1.1102,0.50977 -3.5235,0.50977 h -11.1465 c -2.4133,0 -3.5254,-0.50977 -3.5254,-0.50977 z m -85.99214,0.50977 v 20.64062 c 0,1.9688 3.08089,2.0625 3.39844,2.0625 h 5.81054 c 5.08076,0 9.87696,-1.68195 9.87696,-7.81055 v -7.08203 c 0,-6.1287 -4.7962,-7.81054 -9.87696,-7.81054 z m 38.07422,0.2539 v 2.63477 c 0,0.4445 0.50888,0.92187 1.17578,0.92187 h 2.79492 v -2.63672 c 0,-0.4446 -0.66778,-0.91992 -1.17578,-0.91992 z m 150.04102,0 v 2.63477 c 0,0.4445 0.509,0.92187 1.1758,0.92187 h 2.7929 v -2.63672 c 0,-0.4446 -0.6657,-0.91992 -1.1738,-0.91992 z m -183.85938,2.88867 h 4.95312 c 3.14372,0 5.6211,1.17433 5.6211,4.95313 v 6.47851 c 0,3.77881 -2.47738,4.98633 -5.6211,4.98633 h -4.95312 z m 48.36328,2.82618 c -4.541,0 -7.01758,2.09684 -7.01758,5.58984 v 5.9375 c 0,3.493 2.82568,5.58789 7.65238,5.58789 3.6518,0 6.2871,-1.52415 6.2871,-3.81055 0,-0.7938 -0.3175,-1.65081 -0.9844,-2.60351 -0.032,1.9053 -2.159,3.24023 -5.3027,3.24023 -2.3816,0 -3.5254,-0.98532 -3.5254,-2.89062 v -1.14258 c 0.9526,0.381 1.9681,0.57031 2.9843,0.57031 5.0173,0 6.6055,-2.50793 6.6055,-5.20703 0,-3.1755 -2.1583,-5.27148 -6.6992,-5.27148 z m 10.0977,0 v 14.89257 c 0,2.064 4.1269,2.06446 4.1269,2.06446 v -13.43164 c 0,0 1.3981,-0.44532 3.0176,-0.44532 2.2546,0 3.0488,0.95372 3.0488,2.63672 v 9.17578 c 0,2.0005 4.127,2.06446 4.127,2.06446 v -11.7168 c 0,-4.1281 -3.4598,-5.24023 -6.7305,-5.24023 -1.7148,0 -3.1764,0.66796 -4.7324,0.66796 -1.6195,0 -2.8574,-0.66796 -2.8574,-0.66796 z m 66.4628,0 c -2.6039,0 -6.3203,0.82519 -6.3203,3.58789 0,0.8573 0.2862,1.84157 1.2071,3.08007 0,-2.6674 2.4126,-3.58789 5.08,-3.58789 2.4451,0 3.0821,1.01696 3.0821,2.16016 -1.302,2.5086 -9.8125,0.95253 -9.8125,6.89063 0,3.7788 3.2058,4.98437 6.4765,4.98437 1.8101,0 3.3987,-0.57031 4.9864,-0.57031 0.7939,0 1.6196,0.0947 2.4453,0.50781 v -11.62305 c 0,-3.4612 -2.4766,-5.42968 -7.1446,-5.42968 z m 17.6231,0 c -4.5409,0 -7.1758,2.12854 -7.1758,5.58984 v 5.9375 c 0,3.5247 2.8248,5.58789 7.334,5.58789 3.62,0 6.2891,-1.45924 6.2891,-3.77734 0,-0.7621 -0.3175,-1.61912 -0.9844,-2.60352 -0.032,1.8735 -2.0654,3.23828 -4.8281,3.23828 -2.5404,0 -3.7149,-0.98508 -3.7149,-3.27148 v -4.28711 c 0,-2.6674 1.5242,-3.30274 3.8106,-3.30274 2.0005,0 4.0644,1.1115 4.0644,3.6836 0.8574,-1.2384 1.2383,-2.28518 1.2383,-3.14258 0,-2.7944 -3.5563,-3.65234 -6.0332,-3.65234 z m -108.82227,0.1582 v 14.73437 c 0,2.064 4.12695,2.06446 4.12695,2.06446 v -14.73438 c 0,-2.0323 -3.87295,-2.06445 -4.12695,-2.06445 z m 150.04097,0 v 14.73437 c 0,2.064 4.127,2.06446 4.127,2.06446 v -14.73438 c 0,-2.0323 -3.873,-2.06445 -4.127,-2.06445 z m -163.53707,0.22266 c -2.38161,0 -2.38281,3.14453 -2.38281,3.14453 h 8.54297 c -2.1911,4.4774 -8.92383,6.73125 -8.92383,11.84375 0,0.254 8.8e-4,0.50783 0.19141,1.36523 h 11.30469 c 2.3816,0 2.38086,-3.14258 2.38086,-3.14258 h -9.36719 c 2.31814,-3.4612 7.46172,-6.00216 8.63672,-10.28906 0.254,-0.9844 0.38217,-1.96917 0.66797,-2.92187 z m 133.21097,0 c -2.3817,0 -2.3828,3.14453 -2.3828,3.14453 h 8.5429 c -2.1911,4.4774 -8.9238,6.73125 -8.9238,11.84375 0,0.254 9e-4,0.50783 0.1914,1.36523 h 11.3047 c 2.3816,0 2.3809,-3.14258 2.3809,-3.14258 h -9.3672 c 2.3181,-3.4612 7.4617,-6.00216 8.6367,-10.28906 0.254,-0.9844 0.3822,-1.96917 0.668,-2.92187 z m -105.2032,2.63671 c 1.9688,0 2.6993,0.92021 2.6993,2.25391 0,1.2702 -0.7937,2 -3.0801,2 -0.9526,0 -2.0653,-0.22166 -2.3828,-0.28516 v -0.91992 c 0,-1.937 0.6042,-3.04883 2.7636,-3.04883 z m 79.8301,5.46094 v 5.17578 c 0,0 -1.2701,0.57227 -2.9531,0.57227 -1.8101,0 -2.8574,-0.73116 -2.8574,-2.16016 0,-2.8262 5.0801,-1.90489 5.8105,-3.58789 z" transform="translate(19.565558,486.59836)" />
    </g>
  </g>
</svg>
