<?xml version="1.0" encoding="UTF-8" standalone="no"?>
<!-- Created with Inkscape (http://www.inkscape.org/) -->

<svg width="132.29167mm" height="105.83334mm" viewBox="0 0 132.29167 105.83334" version="1.1" id="svg18697" xmlns="http://www.w3.org/2000/svg" xmlns:svg="http://www.w3.org/2000/svg">
  <defs id="defs18694" />
  <rect style="fill:#0b1320;fill-opacity:1;fill-rule:evenodd;stroke-width:0.352131;-inkscape-stroke:none;stop-color:#000000" id="rect849" width="132.29167" height="105.83334" x="0" y="0" />
  <g id="g1256" transform="matrix(1.4181144,0,0,1.4181144,5.1743006,4.1394481)">
    <path id="path13026" style="font-size:7.40833px;line-height:1.25;font-family:'Bebas Neue';-inkscape-font-specification:'Bebas Neue';letter-spacing:0px;word-spacing:0px;fill:#ffffff;stroke-width:0.331535" d="m 13.034629,35.822797 c -0.999674,0 -1.669969,0.148408 -2.011222,0.4455 -0.337239,0.293077 -0.506368,0.883081 -0.506368,1.770341 v 1.445931 c 0,0.598199 -0.108263,1.013636 -0.325058,1.246493 -0.2127814,0.22884 -0.6063358,0.343189 -1.1804432,0.343189 H 8.6443885 v 0.861214 h 0.3671493 c 0.5700939,0 0.9636454,0.116156 1.1804432,0.349017 0.216795,0.232855 0.325058,0.652569 0.325058,1.258796 v 1.439455 c 0,0.887259 0.169129,1.479076 0.506368,1.776168 0.341253,0.297095 1.011548,0.4455 2.011222,0.4455 h 0.372978 V 46.33736 h -0.40924 c -0.566078,0 -0.935285,-0.08819 -1.10792,-0.264837 -0.172634,-0.176651 -0.259011,-0.548317 -0.259011,-1.114397 v -1.493201 c 0,-0.626301 -0.09065,-1.081882 -0.271315,-1.366931 -0.180665,-0.285048 -0.493277,-0.482146 -0.938916,-0.590547 0.441623,-0.100367 0.752425,-0.292547 0.93309,-0.577596 0.184678,-0.285046 0.277141,-0.74309 0.277141,-1.373406 v -1.493201 c 0,-0.56608 0.08638,-0.937746 0.259011,-1.114395 0.172635,-0.176651 0.541842,-0.26484 1.10792,-0.26484 h 0.40924 v -0.861212 z m 59.547352,0 v 0.861212 h 0.421538 c 0.562064,0 0.927649,0.08819 1.096267,0.26484 0.172631,0.172634 0.259009,0.5443 0.259009,1.114395 v 1.493201 c 0,0.630316 0.09001,1.08836 0.270669,1.373406 0.180662,0.285049 0.493922,0.477229 0.939562,0.577596 -0.44564,0.108401 -0.7589,0.305499 -0.939562,0.590547 -0.180667,0.285049 -0.270669,0.74063 -0.270669,1.366931 v 1.493201 c 0,0.57411 -0.08637,0.947588 -0.259009,1.120223 -0.168618,0.172634 -0.534203,0.259011 -1.096267,0.259011 h -0.421538 v 0.867041 h 0.37945 c 0.999673,0 1.666343,-0.148405 1.999566,-0.4455 0.337239,-0.297092 0.50572,-0.888909 0.50572,-1.776168 v -1.439455 c 0,-0.606227 0.108263,-1.025941 0.325061,-1.258796 0.216792,-0.232858 0.610349,-0.349017 1.18044,-0.349017 h 0.372979 v -0.861214 h -0.372979 c -0.570091,0 -0.963648,-0.114352 -1.18044,-0.343189 -0.216798,-0.232857 -0.325061,-0.648294 -0.325061,-1.246493 v -1.445931 c 0,-0.88726 -0.168481,-1.477264 -0.50572,-1.770341 -0.333223,-0.297092 -0.999893,-0.4455 -1.999566,-0.4455 z m -50.274098,1.03993 -0.668249,1.086553 h 0.723934 l 1.002376,-1.086553 z m -7.073598,1.327433 c -1.002562,0 -1.522341,0.594671 -1.522341,1.634361 v 3.378803 c 0,1.039692 0.519779,1.633713 1.522341,1.633713 1.002559,0 1.522338,-0.594021 1.522338,-1.633713 v -2.061082 h -1.429744 v 0.928556 h 0.46428 v 1.19728 c 0,0.464148 -0.204129,0.631339 -0.529031,0.631339 -0.324904,0 -0.52903,-0.167191 -0.52903,-0.631339 v -3.508957 c 0,-0.464147 0.204126,-0.640405 0.52903,-0.640405 0.324902,0 0.529031,0.176258 0.529031,0.640405 v 0.696094 h 0.965464 v -0.630694 c 0,-1.03969 -0.519779,-1.634361 -1.522338,-1.634361 z m 6.89747,0 c -1.002559,0 -1.550185,0.594671 -1.550185,1.634361 v 3.378803 c 0,1.039692 0.547626,1.633713 1.550185,1.633713 1.002559,0 1.550184,-0.594021 1.550184,-1.633713 v -3.378803 c 0,-1.03969 -0.547625,-1.634361 -1.550184,-1.634361 z m 32.59204,0 c -0.993276,0 -1.503558,0.594671 -1.503561,1.634361 0,1.856594 1.995684,2.106811 1.995684,3.443557 0,0.464148 -0.204129,0.631339 -0.529033,0.631339 -0.324899,0 -0.529028,-0.167191 -0.529028,-0.631339 V 42.571985 H 53.19239 v 0.631339 c 0,1.039692 0.519782,1.633713 1.522341,1.633713 1.002559,0 1.522335,-0.594021 1.522335,-1.633713 0,-1.85659 -1.995681,-2.107455 -1.995681,-3.444203 0,-0.464147 0.185349,-0.640405 0.510256,-0.640405 0.324901,0 0.510898,0.176258 0.510898,0.640405 v 0.408592 h 0.965464 v -0.343192 c 0,-1.03969 -0.51093,-1.634361 -1.504208,-1.634361 z m 3.536802,0 c -1.002562,0 -1.522341,0.594671 -1.522341,1.634361 v 3.378803 c 0,1.039692 0.519779,1.633713 1.522341,1.633713 1.002559,0 1.522338,-0.594021 1.522338,-1.633713 v -0.863155 h -0.965464 v 0.927909 c 0,0.464148 -0.204126,0.631339 -0.529033,0.631339 -0.324902,0 -0.529031,-0.167191 -0.529031,-0.631339 v -3.508957 c 0,-0.464147 0.204129,-0.640405 0.529031,-0.640405 0.324907,0 0.529033,0.176258 0.529033,0.640405 v 0.696094 h 0.965464 v -0.630694 c 0,-1.03969 -0.519779,-1.634361 -1.522338,-1.634361 z m -40.76126,0.07447 v 4.205048 l -0.454563,0.483054 v 0.927909 l 0.454563,-0.48241 v 1.364342 h 2.701488 V 43.834665 H 18.520491 V 42.302612 L 19.64395,41.09627 v -0.928556 l -1.123459,1.206993 v -3.11008 z m 6.609321,0 0.723937,6.497946 h 1.401899 l 0.37168,-3.462334 0.371034,3.462334 h 1.355276 l 0.723937,-6.497946 h -0.890996 l -0.529034,5.161445 -0.510898,-5.161448 h -0.983596 l -0.492121,5.124538 -0.54781,-5.124538 z m 5.448952,0 v 6.497946 h 0.919491 V 40.05634 l 1.271744,4.706236 H 32.79784 V 38.26463 h -0.909776 v 3.889701 L 30.839069,38.26463 Z m 3.973233,0 v 6.497946 h 1.021151 V 38.26463 Z m 1.763868,0 v 6.497946 h 2.785019 v -0.92791 H 36.315862 V 41.93158 h 1.401899 v -0.928554 h -1.401899 v -1.809842 h 1.763868 v -0.928555 z m 5.51435,0 v 4.956828 c 0,0.501281 -0.260464,0.622276 -0.585366,0.622276 -0.111394,0 -0.240859,2.08e-4 -0.352256,-0.009 v 0.927906 c 0.167093,0.01855 0.305815,0.01878 0.491475,0.01878 0.770483,0 1.467298,-0.334102 1.467298,-1.633715 v -4.883012 z m 2.487802,0 -1.039929,6.497946 h 0.93762 l 0.176129,-1.178502 h 1.253615 l 0.176125,1.178502 h 1.03022 L 44.79136,38.264629 Z m 2.505937,0 1.003021,6.497946 h 1.522338 L 49.33053,38.26463 h -0.937617 l -0.779624,5.300667 -0.779627,-5.300667 z m 4.539821,0 -1.039932,6.497946 h 0.93762 l 0.176129,-1.178502 h 1.253615 l 0.176125,1.178502 h 1.03022 L 51.837115,38.26463 Z m 10.062587,0 v 6.497946 h 1.021154 v -2.645152 h 0.352256 c 0.464149,0 0.668897,0.222204 0.668897,0.825597 v 1.021154 c 0,0.529127 0.0369,0.631307 0.0926,0.798401 h 1.039928 c -0.102111,-0.241356 -0.111372,-0.473069 -0.111372,-0.78869 v -1.003022 c 0,-0.677655 -0.167396,-1.16961 -0.67796,-1.383119 0.454865,-0.213506 0.668252,-0.649349 0.668252,-1.317721 v -0.510899 c 0,-1.002559 -0.454369,-1.494495 -1.512627,-1.494495 z m 3.731708,0 v 6.497946 h 1.021151 V 38.26463 Z m 1.763865,0 v 6.497946 h 1.021151 v -2.441183 h 0.482409 c 1.021128,0 1.522338,-0.566177 1.522338,-1.605869 V 39.8705 c 0,-1.039691 -0.50121,-1.60587 -1.522338,-1.60587 z m 3.220807,0 v 0.928555 h 1.067775 v 5.569391 h 1.021151 v -5.569391 h 1.067127 V 38.26463 Z m -46.989833,0.854089 c 0.324904,0 0.52903,0.176258 0.52903,0.640406 v 3.508957 c 0,0.464148 -0.204126,0.640405 -0.52903,0.640405 -0.324904,0 -0.529031,-0.176257 -0.529031,-0.640405 v -3.508957 c 0,-0.464148 0.204127,-0.640406 0.529031,-0.640406 z m 39.294607,0.07447 h 0.49212 c 0.362037,0 0.519319,0.204102 0.519319,0.668249 v 0.640406 c 0,0.519845 -0.231961,0.687027 -0.612564,0.687027 h -0.398875 z m 5.49557,0 h 0.482409 c 0.324904,0 0.50119,0.148414 0.50119,0.612561 v 0.974531 c 0,0.464146 -0.176286,0.612562 -0.50119,0.612562 h -0.482409 z m -22.928976,0.222749 0.492123,3.286207 h -0.984244 z m 7.045757,0 0.492121,3.286207 H 50.54659 Z" />
    <g id="layer1-3" transform="matrix(0.77222431,0,0,0.77222431,-66.736153,-108.48275)">
      <path id="Letter_1-6" style="font-size:15.8939px;line-height:1.25;font-family:'Pixel Bit Advanced';-inkscape-font-specification:'Pixel Bit Advanced';letter-spacing:0px;word-spacing:0px;fill:#ff9c1e;stroke-width:2.1454" d="m 409.4082,636.60742 v 60.07031 h 45.05469 v -60.07031 z m 7.50977,7.50781 h 7.50976 v 15.01758 h 7.50782 V 651.625 h 7.50976 v -7.50977 h 7.50781 v 7.50977 h -7.50781 v 7.50781 h -7.50976 v 7.50977 h 7.50976 v 7.50781 h 7.50781 v 7.50977 h -7.50781 v -7.50977 h -7.50976 v -7.50781 h -7.50782 v 15.01758 h -7.50976 z" transform="scale(0.26458333)" />
      <path d="M 126.20346,178.36921 V 172.409 h 3.97347 v 5.96021 z m 5.96021,1.98674 v -9.93369 h -7.94695 v 9.93369 z m -9.93369,3.97348 v -15.8939 h 11.92043 v 15.8939 z" id="Letter_2-7" style="font-size:15.8939px;line-height:1.25;font-family:'Pixel Bit Advanced';-inkscape-font-specification:'Pixel Bit Advanced';letter-spacing:0px;word-spacing:0px;fill:#1e6bff;fill-opacity:1;stroke-width:0.567638" />
      <path id="Letter_3-5" style="font-size:15.8939px;line-height:1.25;font-family:'Pixel Bit Advanced';-inkscape-font-specification:'Pixel Bit Advanced';letter-spacing:0px;word-spacing:0px;fill:#ff1e7b;fill-opacity:1;stroke-width:2.1454" d="m 514.5332,636.60742 v 60.07031 h 45.05469 v -60.07031 z m 7.50977,7.50781 h 22.52734 v 7.50977 h 7.50781 v 22.52539 h -7.50781 v 7.50977 h -22.52734 z m 22.52734,30.03516 V 651.625 h -15.01758 v 22.52539 z" transform="scale(0.26458333)" />
      <path d="m 159.978,180.35595 v -9.93369 h -1.98674 v 7.94695 h -3.97348 v -7.94695 h -1.98674 v 9.93369 z m -9.93369,3.97348 v -15.8939 h 11.92043 v 15.8939 z" id="Letter_4-3" style="font-size:15.8939px;line-height:1.25;font-family:'Pixel Bit Advanced';-inkscape-font-specification:'Pixel Bit Advanced';letter-spacing:0px;word-spacing:0px;fill:#79ff1e;fill-opacity:1;stroke-width:0.567638" />
      <path d="m 173.88516,180.35595 v -9.93369 h -7.94695 v 1.98674 h 5.96021 v 5.96021 h -3.97347 v -1.98673 h -1.98674 v 3.97347 z m -9.93369,3.97348 v -15.8939 h 11.92043 v 15.8939 z" id="Letter_5-5" style="font-size:15.8939px;line-height:1.25;font-family:'Pixel Bit Advanced';-inkscape-font-specification:'Pixel Bit Advanced';letter-spacing:0px;word-spacing:0px;fill:#1effe9;fill-opacity:1;stroke-width:0.567638" />
    </g>
  </g>
</svg>
