<?xml version="1.0" encoding="UTF-8" standalone="no"?>
<!-- Created with Inkscape (http://www.inkscape.org/) -->

<svg version="1.1" width="500" height="400" id="svg2882" xmlns="http://www.w3.org/2000/svg" xmlns:svg="http://www.w3.org/2000/svg">
  <defs id="defs13" />
  <rect width="500" height="400" x="0" y="0" id="rect2929" style="fill:#ffffff;fill-opacity:1;stroke:none;stroke-width:1.75674" />
  <g id="g828" transform="matrix(1.4528094,0,0,1.4528094,77.272921,2.0090565)">
    <path d="m 97.08984,38.29138 c 0.67498,4.83733 -0.65001,7.17511 -0.875,10.4375 -0.1935,2.80574 0.31242,5.30015 -1.9375,9.6875 -3.15242,-1.03262 -5.42557,-0.95895 -7.46875,-0.36811 -1.55195,0.44879 -4.63349,1.69555 -6.46875,3.77436 -2.11174,-1.65817 -3.31251,-5.0626 -3.59375,-7.875 -0.29239,-2.92381 -2.79198,-4.2861 -4.125,-7.21875 -1.12496,-2.47491 0.22493,-5.10007 -1.6875,-7.125 -5.96229,4.61234 -7.0613,6.66981 -8.5625,10.84375 -1.5012,4.17394 -0.28125,12.8125 -0.28125,12.8125 l 5.125,14.53125 c 1.1138,3.53302 0.44506,6.8387 -1.125,8.8125 -1.57006,1.9738 -4.19358,2.75965 -5.125,5.125 -0.93142,2.36535 -0.37627,6.02396 0.28125,8 0.65752,1.97604 2.5625,3.6875 2.5625,3.6875 -0.47478,3.13356 -1.30104,6.33762 -0.71875,11.03125 0.58229,4.69363 -0.40773,9.39044 2.09375,16.40625 -0.25103,3.25036 -0.13001,6.49964 0.0937,9.75 -1.62174,2.34131 -4.45474,3.97241 -4.71875,7.1875 -0.264,3.21508 1.09169,8.9633 2,10.96875 0.9083,2.00545 2.87207,1.91144 3.46875,5.375 0.59076,3.4292 1.00886,7.83992 2.15625,9.8125 1.14738,1.97258 6.16467,1.70741 10,1.34375 -0.65896,16.86929 2.12877,27.48287 3.03125,35.875 h 44.53125 V 76.51013 c -4.17158,-3.21216 -14.875,-12.125 -14.875,-12.125 0.44998,-3.03739 -0.35629,-12.1001 -1.59375,-14.96875 -1.25577,-2.91111 -7.57516,-11.46249 -12.1875,-11.125 z" id="path3678" style="fill:#000000;fill-opacity:1;stroke:none" />
    <path d="m 140.6875,76.71875 c -7.59271,0 -11.90625,3.990963 -11.90625,11.3125 0,7.321537 4.31354,11.3125 11.90625,11.3125 h 24.6875 c 7.59271,0 11.9375,-3.990963 11.9375,-11.3125 0,-7.321537 -4.34479,-11.3125 -11.9375,-11.3125 z m -0.46875,7.4375 h 25.625 c 3.3896,0 4.6875,1.50228 4.6875,3.875 0,2.37272 -1.2979,3.875 -4.6875,3.875 h -25.625 c -3.3896,0 -4.6875,-1.50228 -4.6875,-3.875 0,-2.37272 1.2979,-3.875 4.6875,-3.875 z m -10.90625,20 v 6.625 h 28.40625 l -28.40625,7.6875 v 9.34375 H 176.75 v -6.71875 H 142.40625 L 176.75,111.8125 v -7.65625 z m 0,29 v 6.625 h 28.40625 l -28.40625,7.6875 v 9.34375 H 176.75 v -6.71875 H 142.40625 L 176.75,140.8125 v -7.65625 z m 11.375,28.4375 c -7.59271,0 -11.90625,3.99096 -11.90625,11.3125 0,7.32154 4.31354,11.3125 11.90625,11.3125 h 24.6875 c 7.59271,0 11.9375,-3.99096 11.9375,-11.3125 0,-7.32154 -4.34479,-11.3125 -11.9375,-11.3125 z m -0.46875,7.4375 h 25.625 c 3.3896,0 4.6875,1.50228 4.6875,3.875 0,2.37272 -1.2979,3.875 -4.6875,3.875 h -25.625 c -3.3896,0 -4.6875,-1.50228 -4.6875,-3.875 0,-2.37272 1.2979,-3.875 4.6875,-3.875 z m -10.90625,17.4375 v 7.34375 L 150,203.6875 h -20.6875 v 7.46875 H 176.75 v -7.46875 h -14.5625 l -4.34375,-2.28125 18.90625,-7.25 v -7.6875 l -26.28125,10.375 z" id="path2836" style="font-size:67.7921px;fill:#000000;fill-opacity:1;stroke:none" />
    <path d="m 159.53125,213.625 -3.9375,0.65625 v 0.40625 c 0.4053,-0.0535 0.6991,-0.0625 0.875,-0.0625 0.25235,2e-5 0.46439,0.0575 0.625,0.1875 0.11466,0.10708 0.15624,0.24567 0.15625,0.40625 -1e-5,0.19885 -0.0332,0.44412 -0.125,0.75 -0.0535,0.16825 -0.13465,0.40456 -0.21875,0.6875 l -1.125,3.96875 c -0.2906,-0.39001 -0.57677,-0.64424 -0.875,-0.8125 -0.29826,-0.16826 -0.64955,-0.24999 -1.0625,-0.25 -0.78768,1e-5 -1.65314,0.31873 -2.59375,0.96875 -1.19299,0.81062 -2.1485,1.86386 -2.875,3.15625 -0.72649,1.29241 -1.09375,2.48555 -1.09375,3.625 0,0.8871 0.19675,1.60498 0.625,2.125 0.4359,0.51237 0.95005,0.78124 1.53125,0.78125 0.57355,-1e-5 1.18541,-0.23631 1.8125,-0.6875 0.91002,-0.65767 1.92238,-1.84949 3.03125,-3.5625 l -0.46875,1.4375 c -0.22943,0.73415 -0.34375,1.31411 -0.34375,1.75 0,0.33649 0.0818,0.59772 0.25,0.78125 0.16824,0.18351 0.39623,0.28124 0.65625,0.28125 0.48942,-1e-5 1.00423,-0.24461 1.5625,-0.71875 0.56589,-0.47413 1.13689,-1.11026 1.6875,-1.875 l -0.40625,-0.21875 c -0.6118,0.73415 -1.02125,1.19146 -1.28125,1.375 -0.13767,0.0994 -0.2756,0.15625 -0.375,0.15625 -0.0688,0 -0.1187,-0.0562 -0.1875,-0.125 -0.0612,-0.0688 -0.0938,-0.14225 -0.0937,-0.21875 -10e-6,-0.22941 0.0984,-0.70336 0.3125,-1.4375 l 3.9375,-13.53125 z m 17.78125,0 -3.9375,0.65625 v 0.40625 c 0.35942,-0.0535 0.63661,-0.0625 0.8125,-0.0625 0.30589,2e-5 0.5422,0.0651 0.6875,0.1875 0.14535,0.11472 0.21875,0.25397 0.21875,0.4375 0,0.13002 -0.15389,0.62057 -0.40625,1.5 l -3.09375,10.78125 c -0.24472,0.8565 -0.375,1.4122 -0.375,1.6875 0,0.26001 0.0901,0.48867 0.28125,0.6875 0.19883,0.19885 0.4594,0.31249 0.75,0.3125 0.40531,-1e-5 0.83005,-0.1469 1.28125,-0.4375 0.61178,-0.40531 1.2735,-1.13151 2,-2.15625 l -0.34375,-0.34375 c -0.4359,0.65767 -0.85234,1.12396 -1.25,1.4375 -0.16824,0.13 -0.32345,0.21875 -0.46875,0.21875 -0.10707,0 -0.20475,-0.0485 -0.28125,-0.125 -0.0688,-0.0765 -0.0938,-0.16654 -0.0937,-0.28125 -10e-6,-0.15295 0.0901,-0.56939 0.28125,-1.25 z M 116.1875,215 c -0.32119,2e-5 -0.59073,0.12199 -0.8125,0.34375 -0.22177,0.22179 -0.3125,0.49133 -0.3125,0.8125 0,0.31356 0.0907,0.58309 0.3125,0.8125 0.22942,0.22178 0.49896,0.31252 0.8125,0.3125 0.31354,2e-5 0.59073,-0.0907 0.8125,-0.3125 0.22942,-0.22941 0.34375,-0.49894 0.34375,-0.8125 0,-0.32117 -0.12198,-0.59071 -0.34375,-0.8125 -0.22177,-0.22176 -0.49131,-0.34373 -0.8125,-0.34375 z m -32.25,4.5625 -3.28125,0.75 v 0.40625 c 0.34413,-0.0458 0.621976,-0.0625 0.84375,-0.0625 0.390012,1e-5 0.683815,0.10537 0.875,0.28125 0.267654,0.24473 0.447788,0.74358 0.5625,1.53125 0.275301,1.8889 0.44647,4.48459 0.5,7.75 h 0.5 l 4.75,-7.9375 0.75,7.9375 h 0.40625 c 0.420593,-0.42826 1.049738,-1.18702 1.90625,-2.25 0.864137,-1.07062 1.72062,-2.22223 2.53125,-3.46875 0.665304,-1.04004 1.114315,-1.90482 1.34375,-2.5625 0.114695,-0.34412 0.156234,-0.69608 0.15625,-1.09375 -1.6e-5,-0.39 -0.09074,-0.70807 -0.3125,-0.9375 -0.214141,-0.23705 -0.498974,-0.34374 -0.8125,-0.34375 -0.275319,1e-5 -0.480375,0.0818 -0.65625,0.25 -0.175903,0.16061 -0.281263,0.35669 -0.28125,0.59375 -1.3e-5,0.1606 0.04087,0.29221 0.125,0.4375 0.08411,0.13766 0.231008,0.29986 0.4375,0.4375 0.214112,0.13002 0.3444,0.21245 0.375,0.28125 0.07646,0.13001 0.124985,0.30051 0.125,0.46875 -1.5e-5,0.35943 -0.252277,0.91579 -0.71875,1.71875 -0.795336,1.36888 -1.856875,2.84619 -3.1875,4.40625 l -0.78125,-8.59375 h -0.4375 l -4.71875,7.75 c -0.03059,-0.26 -0.04787,-0.8732 -0.09375,-1.875 -0.137657,-2.64597 -0.447414,-4.59788 -0.90625,-5.875 z m 22.9375,0 c -0.84886,1e-5 -1.5508,0.23764 -2.09375,0.75 -0.53532,0.51238 -0.8125,1.13322 -0.8125,1.875 0,0.40532 0.12131,0.81345 0.3125,1.21875 0.19883,0.40532 0.63188,1.03314 1.3125,1.84375 0.68825,0.81062 1.12962,1.44741 1.34375,1.90625 0.12234,0.26001 0.18749,0.53786 0.1875,0.84375 -1e-5,0.47414 -0.18712,0.85866 -0.53125,1.1875 -0.33648,0.32119 -0.7938,0.5 -1.375,0.5 -0.75708,0 -1.34536,-0.23697 -1.78125,-0.71875 -0.4359,-0.48178 -0.67285,-1.30635 -0.71875,-2.46875 h -0.4375 l -0.6875,3.71875 h 0.4375 c 0.17589,-0.35178 0.43712,-0.53125 0.78125,-0.53125 0.13765,0 0.31014,0.0332 0.5625,0.125 0.71885,0.26001 1.35564,0.40624 1.90625,0.40625 1.00944,-1e-5 1.84232,-0.32571 2.5,-0.9375 0.66531,-0.61943 0.99999,-1.32968 1,-2.125 -1e-5,-0.48943 -0.14691,-1.01189 -0.4375,-1.5625 -0.29061,-0.5506 -0.9121,-1.35157 -1.90625,-2.4375 -0.37473,-0.41295 -0.63529,-0.73932 -0.75,-0.96875 -0.10709,-0.22941 -0.15625,-0.46638 -0.15625,-0.71875 0,-0.36706 0.13094,-0.67748 0.40625,-0.9375 0.28294,-0.26 0.68211,-0.40624 1.15625,-0.40625 0.58883,1e-5 1.07108,0.25228 1.46875,0.71875 0.39765,0.4665 0.61805,1.19402 0.65625,2.21875 h 0.40625 l 0.71875,-3.5 h -0.4375 c -0.22178,0.35944 -0.51492,0.53126 -0.84375,0.53125 -0.13001,1e-5 -0.38359,-0.0734 -0.78125,-0.21875 -0.39002,-0.15294 -0.64295,-0.25825 -0.75,-0.28125 -0.19884,-0.0383 -0.41154,-0.0312 -0.65625,-0.0312 z m 9.46875,0 -3.96875,0.625 v 0.4375 c 0.52766,-0.0841 0.89426,-0.12499 1.0625,-0.125 0.20648,1e-5 0.35404,0.0805 0.46875,0.1875 0.12234,0.10707 0.1875,0.23801 0.1875,0.40625 0,0.21413 -0.13029,0.7213 -0.375,1.5625 L 112.25,227.8125 c -0.19118,0.65767 -0.28125,1.1233 -0.28125,1.40625 0,0.28295 0.0824,0.52757 0.28125,0.71875 0.19883,0.18351 0.4677,0.28124 0.78125,0.28125 0.47413,-1e-5 0.94872,-0.21969 1.46875,-0.625 0.70355,-0.54296 1.32372,-1.20468 1.84375,-2 l -0.40625,-0.28125 c -0.44355,0.63473 -0.87661,1.12462 -1.3125,1.46875 -0.1606,0.12234 -0.29154,0.1875 -0.40625,0.1875 -0.0994,0 -0.20475,-0.0172 -0.28125,-0.0937 -0.0688,-0.0765 -0.0938,-0.19014 -0.0937,-0.3125 -1e-5,-0.10706 0.0658,-0.42579 0.21875,-0.96875 l 2.28125,-8.03125 z m 6.3125,0 -3.96875,0.6875 0.0625,0.4375 0.4375,-0.0937 c 0.22942,-0.0306 0.37695,-0.0312 0.46875,-0.0312 0.19882,1e-5 0.36999,0.0575 0.5,0.1875 0.13768,0.12236 0.21874,0.26926 0.21875,0.4375 -1e-5,0.17589 -0.13029,0.69836 -0.375,1.5625 l -2.09375,7.1875 h 1.71875 l 0.5625,-1.90625 c 0.23707,-0.77238 0.54682,-1.47497 0.90625,-2.125 0.68061,-1.23122 1.32571,-2.24356 1.9375,-3.03125 0.61178,-0.79531 1.21534,-1.37461 1.78125,-1.71875 0.29823,-0.1835 0.53587,-0.24999 0.75,-0.25 0.14529,1e-5 0.2756,0.0256 0.375,0.125 0.0994,0.0918 0.15624,0.22206 0.15625,0.375 -1e-5,0.32119 -0.0818,0.77021 -0.25,1.34375 L 124.5,227.375 c -0.26002,0.89474 -0.37501,1.50793 -0.375,1.875 -1e-5,0.2906 0.0817,0.51926 0.25,0.6875 0.16823,0.17594 0.37329,0.28124 0.65625,0.28125 0.35177,-1e-5 0.7752,-0.17051 1.21875,-0.46875 0.63472,-0.4359 1.28879,-1.13916 2,-2.15625 l -0.34375,-0.21875 c -0.4818,0.65767 -0.93845,1.14757 -1.34375,1.46875 -0.13001,0.0994 -0.2207,0.125 -0.3125,0.125 -0.0688,0 -0.15755,-0.0249 -0.21875,-0.0937 -0.0612,-0.0765 -0.0938,-0.17418 -0.0937,-0.28125 -1e-5,-0.12235 0.0894,-0.44175 0.25,-1 l 1.40625,-4.84375 c 0.22176,-0.76472 0.34374,-1.3849 0.34375,-1.84375 -1e-5,-0.4053 -0.1539,-0.71638 -0.40625,-0.96875 -0.24473,-0.25236 -0.55514,-0.37499 -0.9375,-0.375 -0.70356,1e-5 -1.42277,0.32705 -2.1875,1 -0.75709,0.67297 -1.8512,2.08515 -3.28125,4.21875 l 1.53125,-5.21875 z m 13.46875,0 c -0.78003,1e-5 -1.62056,0.29513 -2.5,0.9375 -1.12416,0.81062 -2.04711,1.89643 -2.78125,3.25 -0.7265,1.34594 -1.09375,2.62782 -1.09375,3.84375 0,0.81062 0.21969,1.47102 0.625,1.9375 0.4053,0.45885 0.87924,0.68749 1.4375,0.6875 0.5812,-1e-5 1.1771,-0.18778 1.78125,-0.5625 0.8412,-0.52002 1.74819,-1.44231 2.75,-2.75 L 136.125,227.75 c -0.16826,0.61179 -0.25001,1.12528 -0.25,1.5 -1e-5,0.31354 0.0582,0.55816 0.21875,0.71875 0.0421,0.0421 0.10415,0.0622 0.15625,0.0937 -0.53453,0.59619 -0.81251,1.25553 -0.8125,1.9375 -1e-5,0.65002 0.22101,1.1891 0.6875,1.625 0.46648,0.4359 1.11158,0.65625 1.9375,0.65625 0.42059,0 0.83637,-0.0811 1.21875,-0.21875 0.39,-0.13001 0.84798,-0.38293 1.40625,-0.75 l -0.21875,-0.34375 c -0.55062,0.1835 -1.0239,0.28125 -1.40625,0.28125 -0.70357,0 -1.26757,-0.2044 -1.71875,-0.625 -0.44356,-0.41296 -0.68751,-0.91881 -0.6875,-1.5 -1e-5,-0.23953 0.0703,-0.54951 0.1875,-0.90625 0.47413,-1e-5 1.00423,-0.21204 1.5625,-0.625 0.55824,-0.4206 1.09732,-1.04842 1.625,-1.84375 L 139.625,227.5 c -0.49709,0.69591 -0.88926,1.15323 -1.1875,1.375 -0.1606,0.12233 -0.2756,0.1875 -0.375,0.1875 -0.0918,0 -0.1888,-0.0562 -0.25,-0.125 -0.0765,-0.0918 -0.0938,-0.19014 -0.0937,-0.3125 0,-0.0688 0.008,-0.1506 0.0312,-0.25 l 0.25,-1.0625 2.21875,-7.75 -1.8125,0.25 L 138,221.125 c -0.1606,-0.56589 -0.40522,-0.97402 -0.71875,-1.21875 -0.3059,-0.2447 -0.68977,-0.34374 -1.15625,-0.34375 z m 29.375,0 c -0.78003,1e-5 -1.62056,0.29513 -2.5,0.9375 -1.12416,0.81062 -2.04711,1.89643 -2.78125,3.25 -0.7265,1.34594 -1.09375,2.62782 -1.09375,3.84375 0,0.81062 0.18844,1.47102 0.59375,1.9375 0.40531,0.45885 0.9105,0.68749 1.46875,0.6875 0.5812,-1e-5 1.17711,-0.18778 1.78125,-0.5625 0.8412,-0.52002 1.7482,-1.44231 2.75,-2.75 l -0.25,0.84375 c -0.16826,0.61179 -0.25001,1.12528 -0.25,1.5 -1e-5,0.31354 0.0894,0.55816 0.25,0.71875 0.16823,0.16827 0.42115,0.24999 0.75,0.25 0.47412,-1e-5 0.97299,-0.21204 1.53125,-0.625 0.55825,-0.4206 1.09733,-1.04842 1.625,-1.84375 L 169,227.5 c -0.49709,0.69591 -0.88926,1.15323 -1.1875,1.375 -0.1606,0.12233 -0.30685,0.1875 -0.40625,0.1875 -0.0918,0 -0.15755,-0.0562 -0.21875,-0.125 -0.0765,-0.0918 -0.12501,-0.19014 -0.125,-0.3125 0,-0.0688 0.008,-0.1506 0.0312,-0.25 l 0.28125,-1.0625 2.21875,-7.75 -1.8125,0.25 -0.40625,1.3125 c -0.16061,-0.56589 -0.40521,-0.97402 -0.71875,-1.21875 -0.3059,-0.2447 -0.68977,-0.34374 -1.15625,-0.34375 z m -11.71875,0.5625 c 0.43589,1e-5 0.77954,0.17052 1.0625,0.46875 0.28295,0.29826 0.43749,0.66683 0.4375,1.15625 -1e-5,1.28476 -0.61187,2.81061 -1.8125,4.53125 -1.20064,1.72065 -2.17343,2.5625 -2.96875,2.5625 -0.35178,0 -0.65389,-0.13926 -0.90625,-0.4375 -0.25236,-0.30589 -0.40626,-0.73895 -0.40625,-1.3125 -1e-5,-1.45299 0.52246,-2.97185 1.5625,-4.5625 1.04768,-1.59063 2.06768,-2.40624 3.03125,-2.40625 z m -17.625,0.0312 c 0.43589,10e-6 0.77888,0.14691 1.03125,0.4375 0.25236,0.29061 0.37499,0.75623 0.375,1.40625 -1e-5,1.72065 -0.66106,3.39472 -1.96875,5.03125 -0.97886,1.23122 -1.8852,1.84375 -2.71875,1.84375 -0.33649,0 -0.64625,-0.13925 -0.90625,-0.4375 -0.26001,-0.30589 -0.375,-0.72998 -0.375,-1.25 0,-1.03239 0.30211,-2.19164 0.90625,-3.46875 0.61179,-1.2771 1.31371,-2.22496 2.09375,-2.875 0.5506,-0.45883 1.07307,-0.68749 1.5625,-0.6875 z m 29.34375,0 c 0.43589,10e-6 0.77888,0.14691 1.03125,0.4375 0.25236,0.29061 0.40624,0.75623 0.40625,1.40625 -1e-5,1.72065 -0.66107,3.39472 -1.96875,5.03125 -0.97887,1.23122 -1.8852,1.84375 -2.71875,1.84375 -0.33649,0 -0.64624,-0.13925 -0.90625,-0.4375 -0.26001,-0.30589 -0.37501,-0.72998 -0.375,-1.25 -1e-5,-1.03239 0.30211,-2.19164 0.90625,-3.46875 0.61179,-1.2771 1.28246,-2.22496 2.0625,-2.875 0.5506,-0.45883 1.07307,-0.68749 1.5625,-0.6875 z" id="path2853" style="fill:#000000;fill-opacity:1;stroke:none" />
  </g>
</svg>
