<?xml version="1.0" encoding="UTF-8" standalone="no"?>
<svg xmlns:dc="http://purl.org/dc/elements/1.1/" xmlns:cc="http://creativecommons.org/ns#" xmlns:rdf="http://www.w3.org/1999/02/22-rdf-syntax-ns#" xmlns:svg="http://www.w3.org/2000/svg" xmlns="http://www.w3.org/2000/svg" id="svg8" version="1.1" viewBox="0 0 119.0625 79.375" height="79.375mm" width="119.0625mm">
  <defs id="defs2" />
  <metadata id="metadata5">
    <rdf:RDF>
      <cc:Work rdf:about="">
        <dc:format>image/svg+xml</dc:format>
        <dc:type rdf:resource="http://purl.org/dc/dcmitype/StillImage" />
        <dc:title></dc:title>
      </cc:Work>
    </rdf:RDF>
  </metadata>
  <g transform="translate(-0.75595278,-78.188217)" id="layer1">
    <rect ry="0" rx="0" y="78.188217" x="0.75595278" height="79.375" width="119.0625" id="rect4562" style="opacity:1;vector-effect:none;fill:#ffffff;fill-opacity:1;stroke:none;stroke-width:0.43000683;stroke-linecap:butt;stroke-linejoin:miter;stroke-miterlimit:4;stroke-dasharray:none;stroke-dashoffset:0;stroke-opacity:1" />
    <g id="g902">
      <rect style="opacity:1;vector-effect:none;fill:#000000;fill-opacity:0.94117647;stroke:none;stroke-width:0.23895103;stroke-linecap:butt;stroke-linejoin:miter;stroke-miterlimit:4;stroke-dasharray:none;stroke-dashoffset:0;stroke-opacity:1" id="rect4518" width="26.458334" height="26.458334" x="15.119202" y="92.722084" rx="2.4054258" ry="2.4054258" />
      <g aria-label="K" style="font-style:normal;font-variant:normal;font-weight:normal;font-stretch:normal;font-size:17.20027351px;line-height:1.25;font-family:sans-serif;font-variant-ligatures:normal;font-variant-position:normal;font-variant-caps:normal;font-variant-numeric:normal;font-variant-alternates:normal;font-feature-settings:normal;text-indent:0;text-align:start;text-decoration:none;text-decoration-line:none;text-decoration-style:solid;text-decoration-color:#000000;letter-spacing:0px;word-spacing:0px;text-transform:none;writing-mode:lr-tb;direction:ltr;text-orientation:mixed;dominant-baseline:auto;baseline-shift:baseline;text-anchor:start;white-space:normal;shape-padding:0;opacity:1;vector-effect:none;fill:#ffffff;fill-opacity:1;stroke:none;stroke-width:0.43000683;stroke-linecap:butt;stroke-linejoin:miter;stroke-miterlimit:4;stroke-dasharray:none;stroke-dashoffset:0;stroke-opacity:1" id="text4526">
        <path d="m 23.309226,99.664921 h 1.696511 v 5.299499 l 5.627043,-5.299499 h 2.183628 l -6.223341,5.845409 6.668465,6.69366 h -2.23402 l -6.021775,-6.03858 v 6.03858 h -1.696511 z" style="font-style:normal;font-variant:normal;font-weight:normal;font-stretch:normal;font-size:17.20027351px;line-height:1.25;font-family:sans-serif;font-variant-ligatures:normal;font-variant-position:normal;font-variant-caps:normal;font-variant-numeric:normal;font-variant-alternates:normal;font-feature-settings:normal;text-indent:0;text-align:start;text-decoration:none;text-decoration-line:none;text-decoration-style:solid;text-decoration-color:#000000;letter-spacing:0px;word-spacing:0px;text-transform:none;writing-mode:lr-tb;direction:ltr;text-orientation:mixed;dominant-baseline:auto;text-anchor:start;white-space:normal;shape-padding:0;vector-effect:none;fill:#ffffff;fill-opacity:1;stroke:none;stroke-width:0.43000683;stroke-linecap:butt;stroke-linejoin:miter;stroke-miterlimit:4;stroke-dasharray:none;stroke-dashoffset:0;stroke-opacity:1" id="path877" />
      </g>
    </g>
    <g transform="translate(1.2027128)" id="g907">
      <rect ry="2.4054258" rx="2.4054258" y="92.722084" x="45.855194" height="26.458334" width="26.458334" id="rect4520" style="opacity:1;vector-effect:none;fill:#000000;fill-opacity:0.94117647;stroke:none;stroke-width:0.23895103;stroke-linecap:butt;stroke-linejoin:miter;stroke-miterlimit:4;stroke-dasharray:none;stroke-dashoffset:0;stroke-opacity:1" />
      <g aria-label="O" style="font-style:normal;font-variant:normal;font-weight:normal;font-stretch:normal;font-size:17.20027351px;line-height:1.25;font-family:sans-serif;font-variant-ligatures:normal;font-variant-position:normal;font-variant-caps:normal;font-variant-numeric:normal;font-variant-alternates:normal;font-feature-settings:normal;text-indent:0;text-align:start;text-decoration:none;text-decoration-line:none;text-decoration-style:solid;text-decoration-color:#000000;letter-spacing:0px;word-spacing:0px;text-transform:none;writing-mode:lr-tb;direction:ltr;text-orientation:mixed;dominant-baseline:auto;baseline-shift:baseline;text-anchor:start;white-space:normal;shape-padding:0;opacity:1;vector-effect:none;fill:#ffffff;fill-opacity:1;stroke:none;stroke-width:0.43000683;stroke-linecap:butt;stroke-linejoin:miter;stroke-miterlimit:4;stroke-dasharray:none;stroke-dashoffset:0;stroke-opacity:1" id="text4530">
        <path d="m 59.08856,100.81552 q -1.847686,0 -2.9395,1.37737 -1.083416,1.37737 -1.083416,3.75416 0,2.3684 1.083416,3.74576 1.091814,1.37737 2.9395,1.37737 1.847686,0 2.922703,-1.37737 1.083415,-1.37736 1.083415,-3.74576 0,-2.37679 -1.083415,-3.75416 -1.075017,-1.37737 -2.922703,-1.37737 z m 0,-1.377361 q 2.637151,0 4.216083,1.772101 1.578931,1.7637 1.578931,4.73679 0,2.9647 -1.578931,4.7368 -1.578932,1.7637 -4.216083,1.7637 -2.64555,0 -4.23288,-1.7637 -1.578931,-1.7637 -1.578931,-4.7368 0,-2.97309 1.578931,-4.73679 1.58733,-1.772101 4.23288,-1.772101 z" style="font-style:normal;font-variant:normal;font-weight:normal;font-stretch:normal;font-size:17.20027351px;line-height:1.25;font-family:sans-serif;font-variant-ligatures:normal;font-variant-position:normal;font-variant-caps:normal;font-variant-numeric:normal;font-variant-alternates:normal;font-feature-settings:normal;text-indent:0;text-align:start;text-decoration:none;text-decoration-line:none;text-decoration-style:solid;text-decoration-color:#000000;letter-spacing:0px;word-spacing:0px;text-transform:none;writing-mode:lr-tb;direction:ltr;text-orientation:mixed;dominant-baseline:auto;text-anchor:start;white-space:normal;shape-padding:0;vector-effect:none;fill:#ffffff;fill-opacity:1;stroke:none;stroke-width:0.43000683;stroke-linecap:butt;stroke-linejoin:miter;stroke-miterlimit:4;stroke-dasharray:none;stroke-dashoffset:0;stroke-opacity:1" id="path874" />
      </g>
    </g>
    <g transform="translate(-5.9042855e-6)" id="g912">
      <rect style="opacity:1;vector-effect:none;fill:#000000;fill-opacity:0.94117647;stroke:none;stroke-width:0.23895103;stroke-linecap:butt;stroke-linejoin:miter;stroke-miterlimit:4;stroke-dasharray:none;stroke-dashoffset:0;stroke-opacity:1" id="rect4522" width="26.458334" height="26.458334" x="78.996613" y="92.722084" rx="2.4054258" ry="2.4054258" />
      <g aria-label="D" style="font-style:normal;font-weight:normal;font-size:17.20027351px;line-height:1.25;font-family:sans-serif;letter-spacing:0px;word-spacing:0px;fill:#ffffff;fill-opacity:1;stroke:none;stroke-width:0.43000683" id="text4534">
        <path d="m 88.647991,101.05908 v 9.75074 h 2.049251 q 2.595159,0 3.796154,-1.1758 1.209395,-1.1758 1.209395,-3.71216 0,-2.51958 -1.209395,-3.68698 -1.200995,-1.1758 -3.796154,-1.1758 z m -1.696512,-1.394159 h 3.485407 q 3.64498,0 5.34989,1.520139 1.70491,1.51174 1.70491,4.7368 0,3.24184 -1.713308,4.76199 -1.713309,1.52014 -5.341492,1.52014 h -3.485407 z" style="fill:#ffffff;stroke-width:0.43000683" id="path871" />
      </g>
    </g>
    <g id="text4560" style="font-style:normal;font-variant:normal;font-weight:normal;font-stretch:normal;font-size:26.03973389px;line-height:1.25;font-family:Telegrafico;-inkscape-font-specification:Telegrafico;letter-spacing:0px;word-spacing:0px;fill:#000000;fill-opacity:1;stroke:none;stroke-width:0.65099335" transform="scale(0.99919376,1.0008069)" aria-label="MENTOR">
      <path id="path858" style="font-style:normal;font-variant:normal;font-weight:normal;font-stretch:normal;font-family:Telegrafico;-inkscape-font-specification:Telegrafico;stroke-width:0.65099335" d="m 17.434916,130.80437 v 8.31268 h -2.303515 v -13.90121 l 6.950606,6.9506 6.970636,-6.9506 v 13.90121 h -2.343576 v -8.31268 l -4.62706,4.64709 z" />
      <path id="path860" style="font-style:normal;font-variant:normal;font-weight:normal;font-stretch:normal;font-family:Telegrafico;-inkscape-font-specification:Telegrafico;stroke-width:0.65099335" d="m 42.338698,125.21584 v 2.32354 h -6.950606 v 3.48532 h 6.950606 v 2.30352 h -6.950606 v 3.46528 h 6.950606 v 2.32355 h -9.254121 v -13.90121 z" />
      <path id="path862" style="font-style:normal;font-variant:normal;font-weight:normal;font-stretch:normal;font-family:Telegrafico;-inkscape-font-specification:Telegrafico;stroke-width:0.65099335" d="m 46.358738,125.19581 9.254121,8.33271 v -8.33271 h 2.323545 v 13.90121 -0.02 0.0401 l -9.274151,-8.33271 v 8.31268 h -2.303515 z" />
      <path id="path864" style="font-style:normal;font-variant:normal;font-weight:normal;font-stretch:normal;font-family:Telegrafico;-inkscape-font-specification:Telegrafico;stroke-width:0.65099335" d="m 61.921547,125.21584 h 11.597697 v 2.32354 h -4.627061 v 11.57767 h -2.323545 v -11.57767 h -4.647091 z" />
      <path id="path866" style="font-style:normal;font-variant:normal;font-weight:normal;font-stretch:normal;font-family:Telegrafico;-inkscape-font-specification:Telegrafico;stroke-width:0.65099335" d="m 82.93463,125.21584 q 2.884401,0 4.907488,2.04312 2.063148,2.04311 2.063148,4.90748 0,2.90444 -2.063148,4.90749 -2.023087,2.04312 -4.907488,2.04312 -2.884401,0 -4.907488,-2.04312 -2.043118,-2.02308 -2.043118,-4.90749 0,-2.86437 2.043118,-4.90748 2.003056,-2.04312 4.907488,-2.04312 z m 0,2.32354 q -1.902904,0 -3.285013,1.36208 -1.342048,1.36208 -1.342048,3.26498 0,1.90291 1.342048,3.28502 1.382109,1.34204 3.285013,1.34204 1.902903,0 3.264982,-1.34204 1.362078,-1.38211 1.362078,-3.28502 0,-1.9029 -1.362078,-3.26498 -1.362079,-1.36208 -3.264982,-1.36208 z" />
      <path id="path868" style="font-style:normal;font-variant:normal;font-weight:normal;font-stretch:normal;font-family:Telegrafico;-inkscape-font-specification:Telegrafico;stroke-width:0.65099335" d="m 100.91323,127.53938 h -4.647092 v 4.60703 l 4.647092,0.02 q 0.94144,0 1.62248,-0.68103 0.68103,-0.68104 0.68103,-1.64251 0,-0.94144 -0.68103,-1.62248 -0.68104,-0.68104 -1.62248,-0.68104 z m 1.96299,11.57767 -2.68409,-4.62706 h -3.925992 v 4.62706 h -2.303514 v -13.90121 h 6.950606 q 1.9029,0 3.26498,1.36208 1.36208,1.36208 1.36208,3.26498 0,1.4422 -0.82125,2.624 -0.80123,1.16178 -2.04312,1.66254 l 2.86437,4.98761 z" />
    </g>
  </g>
</svg>
