<?xml version="1.0" encoding="UTF-8" standalone="no"?>
<!-- Created with Inkscape (http://www.inkscape.org/) -->

<svg width="132.29167mm" height="105.83334mm" viewBox="0 0 132.29167 105.83334" version="1.1" id="svg995" xmlns="http://www.w3.org/2000/svg" xmlns:svg="http://www.w3.org/2000/svg" xmlns:rdf="http://www.w3.org/1999/02/22-rdf-syntax-ns#" xmlns:cc="http://creativecommons.org/ns#" xmlns:dc="http://purl.org/dc/elements/1.1/">
  <defs id="defs989" />
  <metadata id="metadata992">
    <rdf:RDF>
      <cc:Work rdf:about="">
        <dc:format>image/svg+xml</dc:format>
        <dc:type rdf:resource="http://purl.org/dc/dcmitype/StillImage" />
      </cc:Work>
    </rdf:RDF>
  </metadata>
  <g id="layer1" transform="translate(-17.575911,-42.243965)">
    <rect style="fill:#ffffff;fill-rule:evenodd;stroke-width:0.264583;stop-color:#000000" id="rect2495" width="132.29167" height="105.83334" x="17.575911" y="42.243965" />
    <path id="path1552" style="fill:#0b426c;fill-opacity:1;fill-rule:nonzero;stroke:none;stroke-width:0.352778" d="m 112.67563,95.160641 c 0,15.990709 -12.963169,28.953879 -28.953879,28.953879 -15.99072,0 -28.95389,-12.96317 -28.95389,-28.953879 0,-15.99071 12.96317,-28.95389 28.95389,-28.95389 15.99071,0 28.953879,12.96318 28.953879,28.95389 z" />
    <path id="path1554" style="fill:#ffffff;fill-opacity:1;fill-rule:nonzero;stroke:none;stroke-width:0.352778" d="m 78.201481,73.545941 h 11.0423 v 43.229039 h -11.0423 z" />
    <path id="path1556" style="fill:#ffffff;fill-opacity:1;fill-rule:nonzero;stroke:none;stroke-width:0.352778" d="M 62.108821,89.638961 H 105.33644 V 100.68267 H 62.108821 Z" />
    <path id="path1558" style="fill:#0b426c;fill-opacity:1;fill-rule:nonzero;stroke:none;stroke-width:0.352778" d="m 64.478781,91.889331 h 2.14418 l 1.48837,3.49603 1.49648,-3.49603 h 2.14031 v 6.53309 h -1.59315 v -4.77767 l -1.50601,3.52249 h -1.0668 l -1.50601,-3.52249 v 4.77767 h -1.59737 v -6.53309" />
    <path id="path1560" style="fill:#0b426c;fill-opacity:1;fill-rule:nonzero;stroke:none;stroke-width:0.352778" d="m 73.405821,91.889331 h 4.54625 v 1.27317 h -2.86103 v 1.21673 h 2.69134 v 1.27353 h -2.69134 v 1.49648 h 2.95733 v 1.27318 h -4.64255 v -6.53309" />
    <path id="path1562" style="fill:#0b426c;fill-opacity:1;fill-rule:nonzero;stroke:none;stroke-width:0.352778" d="m 81.216671,93.162501 v 3.98674 h 0.60466 c 0.68792,0 1.21285,-0.17109 1.57515,-0.51117 0.36407,-0.34184 0.54716,-0.83785 0.54716,-1.48837 0,-0.6477 -0.18203,-1.14124 -0.54292,-1.47884 -0.3623,-0.33902 -0.889,-0.50836 -1.57939,-0.50836 h -0.60466 m -1.68416,-1.27317 h 1.77624 c 0.99236,0 1.72967,0.0716 2.21473,0.21484 0.48649,0.13899 0.90382,0.37888 1.25131,0.7179 0.30586,0.29351 0.53304,0.63394 0.68192,1.01847 0.14887,0.38594 0.22331,0.82127 0.22331,1.30916 0,0.49318 -0.0744,0.93274 -0.22331,1.32151 -0.14888,0.38452 -0.37606,0.72495 -0.68192,1.01952 -0.35031,0.33796 -0.77047,0.57891 -1.26118,0.72214 -0.48895,0.13935 -1.22485,0.20955 -2.20486,0.20955 h -1.77624 v -6.53309" />
    <path id="path1564" style="fill:#0b426c;fill-opacity:1;fill-rule:nonzero;stroke:none;stroke-width:0.352778" d="m 86.971181,91.889331 h 1.68522 v 6.53344 h -1.68522 z" />
    <path id="path1566" style="fill:#0b426c;fill-opacity:1;fill-rule:nonzero;stroke:none;stroke-width:0.352778" d="m 95.495701,98.064001 c -0.31009,0.16016 -0.63253,0.28116 -0.96731,0.36265 -0.33479,0.0825 -0.68474,0.12242 -1.05022,0.12242 -1.08867,0 -1.94981,-0.30304 -2.58657,-0.90946 -0.635,-0.61031 -0.95356,-1.43581 -0.95356,-2.47756 0,-1.04317 0.31856,-1.86867 0.95356,-2.4765 0.63676,-0.6089 1.4979,-0.91334 2.58657,-0.91334 0.36548,0 0.71543,0.0399 1.05022,0.121 0.33478,0.0829 0.65722,0.2039 0.96731,0.36406 v 1.35185 c -0.31291,-0.21237 -0.62018,-0.36936 -0.92322,-0.46884 -0.30303,-0.0991 -0.623,-0.14852 -0.9592,-0.14852 -0.60078,0 -1.0735,0.19261 -1.4164,0.57855 -0.34467,0.38453 -0.51682,0.91511 -0.51682,1.59174 0,0.67521 0.17215,1.20438 0.51682,1.58891 0.3429,0.38594 0.81562,0.5775 1.4164,0.5775 0.3362,0 0.65617,-0.0497 0.9592,-0.14888 0.30304,-0.0995 0.61031,-0.25506 0.92322,-0.46743 v 1.35185" />
    <path id="path1568" style="fill:#0b426c;fill-opacity:1;fill-rule:nonzero;stroke:none;stroke-width:0.352778" d="m 100.8604,97.231791 h -2.634899 l -0.41452,1.19063 h -1.69368 l 2.4197,-6.53309 h 2.008009 l 2.4197,6.53309 h -1.69368 l -0.41063,-1.19063 m -2.214389,-1.21108 H 100.436 l -0.892879,-2.59927 -0.89711,2.59927" />
  </g>
</svg>
