<?xml version="1.0" encoding="UTF-8" standalone="no"?>
<!-- Created with Inkscape (http://www.inkscape.org/) -->

<svg version="1.1" width="500" height="400" id="svg2" xmlns="http://www.w3.org/2000/svg" xmlns:svg="http://www.w3.org/2000/svg" xmlns:rdf="http://www.w3.org/1999/02/22-rdf-syntax-ns#" xmlns:cc="http://creativecommons.org/ns#" xmlns:dc="http://purl.org/dc/elements/1.1/">
  <defs id="defs4" />
  <metadata id="metadata7">
    <rdf:RDF>
      <cc:Work rdf:about="">
        <dc:format>image/svg+xml</dc:format>
        <dc:type rdf:resource="http://purl.org/dc/dcmitype/StillImage" />
      </cc:Work>
    </rdf:RDF>
  </metadata>
  <rect style="color:#000000;display:inline;overflow:visible;visibility:visible;fill:#ffffff;fill-opacity:1;fill-rule:nonzero;stroke:none;stroke-width:3.16923;marker:none;enable-background:accumulate" id="rect2982" width="500" height="400" x="0" y="0" />
  <path d="m 292.48301,144.86159 a 3.5582807,4.169786 0 0 0 -0.34744,0.0347 3.5582807,4.169786 0 0 0 -1.09443,0.33007 l -3.59598,1.84142 -13.61958,68.08052 h 49.4752 v -20.13404 h 20.11667 a 3.5582807,4.169786 0 0 0 2.03251,-7.55678 l -50.95181,-41.81419 a 3.5582807,4.169786 0 0 0 -2.01514,-0.78174 z m -31.94695,16.05165 -50.83021,26.12734 a 3.5582807,4.169786 0 0 0 1.45925,7.97372 h 20.08192 v 50.27431 c 0,6.56358 3.28633,9.84984 9.84988,9.84984 h 72.35401 c 6.56346,0 9.84978,-3.28626 9.84987,-9.84984 v -5.99333 h -62.34779 c -10.72608,0 -15.01783,-5.37755 -12.87258,-16.10374 z m 70.86003,38.99994 v 44.31572 c 0,6.56352 3.28631,9.83255 9.84987,9.83255 h 39.43425 c 6.56344,0 9.84977,-3.26903 9.84987,-9.83255 v -44.31572 h -14.76613 l -0.0695,39.3821 h -29.53224 v -39.3821 h -14.76613 z m 76.1932,0 c -6.56355,10e-5 -9.84987,3.28641 -9.84987,9.84987 v 34.46585 c 0,6.56352 3.28632,9.83255 9.84987,9.83255 h 39.38212 v -14.76617 h -34.46587 v -24.61597 h 34.46587 v -14.76613 z m -344.71083,1.05969 c -6.56354,0 -9.84987,3.28633 -9.84987,9.84987 v 44.31571 h 14.76612 v -10.50997 h 34.46587 c 6.56346,0 9.84987,-3.26898 9.84987,-9.83251 v -23.97323 c 0,-6.56354 -3.28641,-9.84987 -9.84987,-9.84987 z m 66.29122,0 c -6.56355,0 -9.84988,3.28633 -9.84988,9.84987 v 44.31571 h 14.76612 v -39.38209 h 24.56388 v -14.78349 z m 46.53935,0 c -6.56345,0 -9.84988,3.28633 -9.84988,9.84987 v 34.46587 c 0,6.56358 3.28643,9.84984 9.84988,9.84984 h 39.36475 c 6.56346,0 9.83241,-3.28626 9.8325,-9.84984 v -34.46587 c -9e-5,-6.56354 -3.26904,-9.84987 -9.8325,-9.84987 z M 67.79471,215.75636 h 29.54962 v 14.10599 H 67.79471 Z m 112.8132,0 h 29.53224 v 24.61603 h -29.53224 z" id="path3149" style="fill:#800000;fill-opacity:1;stroke:none" />
</svg>
