<?xml version="1.0" encoding="UTF-8" standalone="no"?>
<!-- Created with Inkscape (http://www.inkscape.org/) -->

<svg version="1.1" width="500" height="400" id="svg2944" xmlns="http://www.w3.org/2000/svg" xmlns:svg="http://www.w3.org/2000/svg" xmlns:rdf="http://www.w3.org/1999/02/22-rdf-syntax-ns#" xmlns:cc="http://creativecommons.org/ns#" xmlns:dc="http://purl.org/dc/elements/1.1/">
  <metadata id="metadata12">
    <rdf:RDF>
      <cc:Work rdf:about="">
        <dc:format>image/svg+xml</dc:format>
        <dc:type rdf:resource="http://purl.org/dc/dcmitype/StillImage" />
      </cc:Work>
    </rdf:RDF>
  </metadata>
  <defs id="defs2946" />
  <rect style="fill:#ffffff;fill-rule:evenodd;stop-color:#000000" id="rect847" width="500" height="400" x="0" y="0" />
  <rect style="color:#000000;display:inline;overflow:visible;visibility:visible;fill:#ffffff;fill-opacity:1;fill-rule:nonzero;stroke:none;stroke-width:2;marker:none;enable-background:accumulate" id="rect3002" width="124.453" height="118.93" x="125.18129" y="136.72531" rx="9.6005497" ry="9.6005497" />
  <g id="g988" transform="matrix(1.4287792,0,0,1.4287792,17.823378,14.258599)">
    <path d="m 108.40022,42.502093 c -4.49835,0 -8.1268,3.628452 -8.1268,8.126801 v 38.31958 c 2.78553,-1.975915 7.07165,-3.839455 9.49442,-4.076551 2.16642,-0.212013 5.16155,0.466508 7.49559,1.420218 0.0942,-0.995437 0.18036,-2.000447 0.31561,-3.024538 1.23655,-9.362912 3.74611,-17.0058 7.67969,-23.801798 -2.38388,-0.770763 -5.07875,-2.056437 -6.86438,-3.445343 -3.53007,-2.745729 -6.87498,-9.523564 -5.70717,-11.677346 1.25802,-2.32022 10.73389,1.552334 13.59727,4.365854 1.1402,1.120374 2.20887,2.893243 2.99823,4.707759 2.8578,-3.772585 6.25109,-7.346644 10.17823,-10.914636 z m 38.47739,0 c -1.55835,1.208937 -3.00488,2.385296 -4.33956,3.550544 3.20633,1.249205 7.2936,4.025619 8.83691,6.022776 2.45458,3.17644 3.8997,10.375753 2.44593,11.545844 -1.45372,1.1701 -8.1059,-2.165371 -11.23024,-5.365267 -1.91782,-1.964152 -3.58008,-5.422639 -4.23435,-8.258303 -6.44901,6.592977 -9.63417,12.683272 -11.86145,19.120339 3.43584,-0.333337 8.45004,0.339873 10.75684,1.472818 3.6032,1.76963 8.04819,7.593028 7.25889,9.284017 -0.78933,1.69098 -8.2253,1.653369 -12.44006,0.157802 -2.51571,-0.892626 -5.43732,-3.165151 -7.28519,-5.365267 -3.47874,9.359732 -3.96698,19.48612 -2.78784,28.220254 1.23982,-2.55774 8.52306,-6.176774 11.99295,-6.496182 3.9974,-0.367969 10.83832,2.274604 11.04614,4.129152 0.20781,1.85451 -6.16997,5.68077 -10.54643,6.60138 -4.01165,0.84395 -10.51408,-0.59858 -12.25595,-2.60373 0.81828,5.48345 1.46145,10.53398 2.99823,15.66298 8.05707,-8.45808 24.8453,-13.25446 38.10918,-20.581142 -2.67782,-0.27312 -7.65215,-4.498644 -9.38922,-8.153102 -1.91998,-4.03913 -2.73201,-11.428849 -1.13091,-12.387455 1.60111,-0.95861 7.83796,2.883089 9.96783,6.285778 1.8226,2.911821 3.36938,10.709713 2.18292,13.360568 6.24707,-3.54887 10.09141,-6.736773 14.35998,-10.993538 2.45221,-2.445427 4.3501,-5.600293 6.33838,-8.232003 -2.87122,-0.135234 -6.4425,-1.063408 -8.67911,-2.524832 -3.7439,-2.446225 -8.30973,-8.341488 -7.44299,-9.994125 0.86673,-1.652654 8.21755,-1.63588 11.80885,0.157802 2.28799,1.142728 5.85436,4.673912 7.67969,7.600795 3.76248,-5.661214 6.68719,-11.853796 8.0216,-20.961362 -2.65149,1.195362 -6.40523,1.965347 -9.12621,1.63062 -4.43877,-0.545986 -11.12218,-3.815399 -11.07244,-5.680871 0.0497,-1.86548 6.63741,-5.0771 10.65164,-5.049663 2.53251,0.01733 7.21703,1.59174 10.15192,3.392742 0.11715,-1.750543 0.19505,-3.59973 0.2104,-5.549369 z m 55.8619,0 c -0.31952,7.624596 -1.19265,14.3773 -2.91934,20.566857 1.93271,-0.478201 3.9829,-0.729212 5.57567,-0.499706 3.97328,0.572557 12.81314,5.772595 11.72995,8.179402 -1.00548,2.234176 -8.43228,3.668773 -12.75566,2.524832 -2.18407,-0.577879 -4.83401,-1.939417 -6.89069,-3.366442 -3.02249,7.250881 -7.58056,13.854168 -14.28108,20.514257 -0.72765,0.723255 -1.46976,1.425478 -2.20923,2.104026 2.16945,1.278878 4.51263,3.254281 5.65457,5.102264 2.11024,3.414897 3.77715,13.541317 1.23612,14.254777 -2.35881,0.66232 -8.20272,-4.12932 -10.09933,-8.1794 -0.89646,-1.91428 -1.55071,-4.566336 -1.81472,-6.943288 -9.73267,7.536118 -19.95875,11.968258 -28.64106,15.885398 4.18732,5.00697 8.24707,10.11204 12.20335,14.62298 -0.40395,-2.62546 2.70785,-8.53012 5.94388,-11.04613 3.53061,-2.74513 10.5804,-5.14421 11.86145,-3.78725 1.28106,1.35699 -1.13375,8.28579 -3.99765,11.09874 -2.47688,2.43282 -9.89936,5.67243 -12.67676,4.99706 4.76011,5.30652 9.35815,9.62374 13.88657,11.67735 3.19355,1.44826 6.28006,2.87664 9.41552,4.18175 -0.44061,-2.80079 -0.28884,-6.37824 0.63121,-8.81061 1.58214,-4.18302 6.35253,-9.87954 8.1531,-9.38922 1.80057,0.49031 3.37114,7.65245 2.39333,11.54585 -0.59638,2.3747 -3.09584,6.357 -5.47047,8.81061 6.14638,2.06802 12.9292,3.42463 21.61887,3.26124 -1.62683,-2.31938 -3.04186,-5.59425 -3.28754,-8.17941 -0.42318,-4.45216 1.32367,-11.6922 3.15604,-12.04555 1.83238,-0.35336 6.39451,5.41076 7.23259,9.33662 0.52378,2.45366 2.4e-4,7.29223 -1.10461,10.54643 2.34116,-0.21118 4.82613,-0.52788 7.44299,-0.94681 V 50.628894 c 0,-4.498349 -3.62845,-8.126801 -8.1268,-8.126801 z m -85.87058,50.36513 c -2.04128,1.218173 -4.49984,2.318183 -6.54878,2.761535 -2.95169,0.638724 -7.27293,0.02777 -10.04673,-1.130914 v 43.079936 c 1.87876,-1.80906 6.49837,-3.90825 9.62592,-3.99765 2.49397,-0.0713 7.14918,1.28334 10.15193,2.94564 -0.10574,-3.35435 0.28229,-6.59636 1.44652,-9.46812 0.12097,-0.29839 0.24266,-0.59833 0.3945,-0.89421 -2.16059,-9.67786 -5.18685,-20.24786 -5.02336,-33.296217 z m 26.58963,21.539967 c -4.70201,2.20657 -8.79686,4.3791 -11.83514,7.02219 2.26998,0.11365 4.75419,0.57755 6.41728,1.44652 3.5579,1.85902 10.15793,9.71398 8.3372,11.62474 -1.6901,1.77372 -9.18868,0.64694 -12.88716,-1.86732 -2.12221,-1.44295 -4.4519,-4.01364 -5.91758,-6.25948 -0.25213,0.47399 -0.48408,0.94055 -0.68381,1.44652 -4.99604,12.65667 3.51251,29.31341 5.91758,33.61182 h 61.27977 c 0.11319,-2.27459 0.88493,-5.14464 1.84102,-7.44299 -7.88459,-1.57558 -15.68924,-4.63308 -23.17059,-9.44182 -0.87081,-0.55972 -1.70265,-1.11061 -2.52483,-1.68322 -0.78228,2.39117 -2.20496,5.09058 -3.76095,6.60138 -2.88004,2.79641 -12.40569,6.6146 -13.64987,4.28696 -1.15496,-2.16072 2.26603,-8.90009 5.81237,-11.62475 1.66998,-1.28306 4.10738,-2.46465 6.36468,-3.23494 -9.71924,-8.01464 -15.74676,-16.77589 -21.53997,-24.48561 z m -43.18514,25.90583 v 12.99236 c 0,4.49835 3.62845,8.1268 8.1268,8.1268 h 18.67324 c -2.00748,-4.20967 -5.20132,-11.76407 -6.49618,-19.56744 -2.59438,1.51511 -6.82641,2.6844 -9.86263,2.41963 -3.51016,-0.30641 -8.48167,-2.24653 -10.44123,-3.97135 z m 124.42686,13.33426 c -7.11232,1.49419 -14.35115,2.02835 -21.56627,1.39392 0.84621,1.74352 1.51498,3.64845 1.63062,5.20747 0.026,0.35017 0.0246,0.75629 0,1.18351 h 11.83515 c 4.38403,0 7.92284,-3.44603 8.1005,-7.7849 z" id="rect3798" style="fill:#708000;fill-opacity:1" />
    <path id="path951" style="font-size:31.9594px;line-height:0%;font-family:Dennis;-inkscape-font-specification:Dennis;fill:#708000" d="m 188.04492,170.02734 c -3.81806,0.50977 -5.72851,2.20092 -5.72851,5.07227 0.50976,2.53845 1.74859,4.89404 3.71484,7.06836 4.68155,5.17051 8.95282,8.43271 12.8125,9.78515 1.01953,0 2.48093,7.68293 4.38477,23.04883 h 1.01367 l 2.35742,-0.67187 c 0,-1.31084 -0.10965,-2.96543 -0.32813,-4.96289 l 0.32813,-3.29297 c -0.21847,0 -0.32813,-0.11292 -0.32813,-0.3418 h 0.32813 c 0,-0.23928 -0.10965,-0.57868 -0.32813,-1.01562 l 0.32813,-1.29492 -0.32813,-1.3418 c 0,-0.23928 0.10966,-0.57673 0.32813,-1.01367 l -0.32813,-0.67188 c 0.21848,-1.2172 0.32813,-2.23149 0.32813,-3.04297 v -3.37109 h 1.01367 l 2.35547,0.34375 c 0,-0.22887 0.11488,-0.34375 0.34375,-0.34375 v 0.34375 c 3.15225,-0.22887 4.72852,-0.45862 4.72852,-0.6875 4.20299,-0.0936 7.01286,-1.10271 8.42773,-3.02734 v -0.3418 c -6.06521,0.9051 -9.7745,1.35742 -11.12695,1.35742 h -3.3711 l -2.37109,-0.34375 v -2.35547 c 0,-0.0208 0.0313,-0.42286 0.0937,-1.20312 0.0416,-0.50977 0.0207,-1.00908 -0.0625,-1.49805 l -0.0312,-1.01367 c 0,-2.76732 -0.67163,-4.22871 -2.01367,-4.38477 l -1.70117,1.01367 c 0.22887,3.37072 0.34375,5.84119 0.34375,7.41211 v 1.01563 c -0.16646,0 -0.84331,-0.10966 -2.0293,-0.32813 -5.24334,-13.2748 -9.62752,-19.91211 -13.1543,-19.91211 z m -1.3418,2.69922 c 3.52677,0 7.23411,5.06104 11.125,15.1836 -0.54098,-0.44735 -0.98807,-0.66993 -1.34179,-0.66993 -6.97031,-5.46181 -10.45508,-9.50855 -10.45508,-12.14062 v -0.34375 c 0,-0.61381 0.22453,-1.29066 0.67187,-2.0293 z m -8.1621,11.03321 c -2.81934,0 -4.50526,1.35174 -5.05664,4.05664 v 2.35742 c -10e-6,0.95712 1.01429,3.20306 3.04296,6.74023 6.51256,8.09389 9.76953,13.15492 9.76954,15.1836 v 0.34375 l -1.68555,0.32812 h -1.68555 c -5.56585,-1.46689 -8.26084,-3.26573 -8.08398,-5.39844 l 0.32812,-4.04297 c -0.21847,0 -0.32812,-0.11486 -0.32812,-0.34374 -1.5085,-10e-6 -2.5228,1.23882 -3.04297,3.71484 v 2.0293 c 2.60086,4.26541 6.31015,6.39648 11.12695,6.39648 h 1.68555 c 2.31996,0 3.89623,-0.8942 4.72851,-2.68359 0,-2.19513 -0.89941,-4.4463 -2.69922,-6.75586 -6.01319,-7.70896 -9.49991,-13.21905 -10.45703,-16.52735 0.22888,-1.24841 0.67793,-2.25748 1.34375,-3.02734 1.42528,0 2.77702,0.90137 4.05664,2.70117 0.86349,2.46561 1.53512,3.69727 2.01368,3.69727 h 1.01367 l 1.01367,-0.66992 c -1.77899,-5.39939 -4.1398,-8.09961 -7.08398,-8.09961 z m -68.25782,1.01367 c -1.16518,0 -2.40205,0.56197 -3.71289,1.68554 -0.44734,0 -0.67187,-0.33745 -0.67187,-1.01367 h -1.3418 l -1.01367,0.68555 c 0,1.10277 0.1077,2.45124 0.32617,4.04297 0,0.70744 -0.1077,1.60686 -0.32617,2.69922 -0.58261,4.8168 -0.8959,7.33948 -0.9375,7.56836 -0.27049,1.69576 -0.63405,2.54297 -1.0918,2.54297 V 204 c 0.35372,0.67623 0.69117,1.01367 1.01367,1.01367 -0.22887,2.64248 -0.34179,4.55097 -0.34179,5.72656 v 2.0293 c 0,1.2068 0.45232,1.99135 1.35742,2.35547 h 0.32617 c 1.12357,0 1.80042,-0.33223 2.0293,-0.99805 v -1.68554 c 0,-0.81147 -0.11488,-1.82577 -0.34375,-3.04297 0.22887,-0.22888 0.34375,-1.12829 0.34375,-2.69922 2.82974,1.24842 5.41508,2.59493 7.75586,4.04101 5.21213,4.5047 8.47432,6.75782 9.78515,6.75782 0,-0.23928 0.11293,-0.57673 0.3418,-1.01367 v -0.34376 c -7.96904,-7.51129 -13.36753,-11.66768 -16.19727,-12.46874 v -0.6875 c 6.74144,-2.82975 10.11133,-5.86219 10.11133,-9.09766 v -1.01367 c -1.2068,-2.51764 -3.67727,-5.21785 -7.41211,-8.09961 z m 46.20703,0.34375 c -0.46815,0.0936 -0.92047,0.6556 -1.35742,1.68554 -2.01826,0.72824 -3.02734,1.29022 -3.02734,1.68555 v 1.01367 c 0,0.33292 0.4471,0.67036 1.3418,1.01367 -1.7998,3.9117 -3.14632,9.42179 -4.04102,16.52735 0.47856,4.49429 2.2774,6.74023 5.39844,6.74023 h 1.68554 c 3.15225,0 7.08607,-1.68397 11.79883,-5.05468 v -1.68555 h -0.67187 c -5.08729,2.69449 -8.68171,4.04101 -10.78321,4.04101 -2.25755,-0.67622 -3.38671,-1.46077 -3.38671,-2.35546 v -3.71485 c 0,-0.49936 1.23882,-0.83681 3.71484,-1.01367 6.52297,-1.41487 9.7832,-2.65369 9.7832,-3.71484 v -0.32813 c -0.44734,0 -0.66992,-0.22257 -0.66992,-0.66992 -5.03527,1.12357 -9.08201,1.90812 -12.14062,2.35547 0,-2.46562 0.89941,-6.40271 2.69921,-11.8125 8.7597,-1.04035 13.13868,-1.93977 13.13868,-2.69922 v -0.32813 c 0,-0.38495 -0.22258,-0.60947 -0.66993,-0.67187 h -2.35742 c -1.90383,0 -4.71175,0.10965 -8.42578,0.32812 0,-0.89469 -0.33744,-1.34179 -1.01367,-1.34179 z m -32.8789,0.32812 c -0.66583,0.35372 -1,0.69117 -1,1.01367 l 0.32812,0.67188 c 2.20554,0 4.2289,3.71256 6.07032,11.14062 0.9051,9.89368 1.58195,14.8418 2.02929,14.8418 2.01827,-0.34331 3.02735,-0.90529 3.02735,-1.68555 -0.66582,-3.96371 -1,-8.46278 -1,-13.49804 l -0.3418,-0.67188 c 0.22887,0 0.3418,-0.11487 0.3418,-0.34375 v -2.01172 l -0.3418,-3.38672 c 7.64653,3.01701 11.46875,6.61665 11.46875,10.79883 0,4.69196 -3.59964,8.40125 -10.79883,11.12696 h -3.37109 c -2.424,-0.66582 -4.10798,-2.12918 -5.05469,-4.38672 v -1.6836 c -0.23928,0 -0.57868,-0.10965 -1.01563,-0.32812 -1.12357,0 -1.68554,0.78455 -1.68554,2.35547 v 1.01562 c 0,3.3083 2.80987,5.33167 8.42773,6.07032 1.84141,-0.22888 2.96536,-0.45341 3.3711,-0.67188 8.77011,-3.16265 13.15429,-7.54684 13.15429,-13.1543 v -0.34375 c 0,-3.73484 -1.90849,-6.88216 -5.72656,-9.4414 -9.31109,-4.95204 -14.93409,-7.42774 -16.86914,-7.42774 z m -13.99805,2.3711 c 3.14185,2.08069 4.71289,3.99114 4.71289,5.72851 v 1.01367 c -1.05075,1.58132 -3.74575,3.48982 -8.08398,5.72657 v -5.38282 l 0.32812,-1.68554 c -0.21846,0 -0.32812,-0.11488 -0.32812,-0.34375 1.16518,-3.37072 2.28914,-5.05664 3.37109,-5.05664 z m 92.59961,5.15039 c 0.43695,0.22887 0.77635,0.34375 1.01563,0.34375 v 2.35547 h -0.34375 c 0,-0.14566 -0.22453,-0.9302 -0.67188,-2.35547 z" />
  </g>
</svg>
